<?xml version="1.0" ?><!DOCTYPE svg  PUBLIC '-//W3C//DTD SVG 1.1//EN'  'http://www.w3.org/Graphics/SVG/1.1/DTD/svg11.dtd'><svg height="60px" id="Layer_1" style="enable-background:new 0 0 60 60;" version="1.1" viewBox="0 0 60 60" width="60px" xml:space="preserve" xmlns="http://www.w3.org/2000/svg" xmlns:xlink="http://www.w3.org/1999/xlink"><style type="text/css">
	.st0{fill:#FFFFFF;}
	.st1{fill:#0A94E3;}
	.st2{fill:#C2E4F8;}
	.st3{fill:#ABCFD3;}
	.st4{fill-rule:evenodd;clip-rule:evenodd;fill:#FFFFFF;}
	.st5{fill-rule:evenodd;clip-rule:evenodd;fill:#C2E4F8;}
	.st6{fill:#E45544;}
	.st7{fill:#9F85E5;}
	.st8{fill:#83AEED;}
	.st9{fill:#5B6875;}
</style><path class="st2" d="M1,44v4c0,1.6568985,3.1339998,3,7,3s7-1.3431015,7-3v-4"/><path class="st1" d="M8,52c-3.9755859,0-8-1.3740234-8-4v-4c0-0.5522461,0.4472656-1,1-1s1,0.4477539,1,1v4  c0,0.7050781,2.2783203,2,6,2s6-1.2949219,6-2v-4c0-0.5522461,0.4472656-1,1-1s1,0.4477539,1,1v4C16,50.6259766,11.9755859,52,8,52z  "/><path class="st0" d="M1,40v4c0,1.6568985,3.1339998,3,7,3s7-1.3431015,7-3v-4"/><path class="st1" d="M8,48c-3.9755859,0-8-1.3740234-8-4v-4c0-0.5522461,0.4472656-1,1-1s1,0.4477539,1,1v4  c0,0.7050781,2.2783203,2,6,2s6-1.2949219,6-2v-4c0-0.5522461,0.4472656-1,1-1s1,0.4477539,1,1v4C16,46.6259766,11.9755859,48,8,48z  "/><path class="st0" d="M15,46v4c0,1.6568985,3.1340008,3,7,3s7-1.3431015,7-3v-4"/><path class="st1" d="M22,54c-3.9755859,0-8-1.3740234-8-4v-4c0-0.5522461,0.4472656-1,1-1s1,0.4477539,1,1v4  c0,0.7050781,2.2783203,2,6,2s6-1.2949219,6-2v-4c0-0.5522461,0.4472656-1,1-1s1,0.4477539,1,1v4C30,52.6259766,25.9755859,54,22,54  z"/><ellipse class="st0" cx="8" cy="40" rx="7" ry="3"/><path class="st1" d="M8,44c-3.9755859,0-8-1.3740234-8-4s4.0244141-4,8-4s8,1.3740234,8,4S11.9755859,44,8,44z M8,38  c-3.7216797,0-6,1.2949219-6,2s2.2783203,2,6,2s6-1.2949219,6-2S11.7216797,38,8,38z"/><path class="st2" d="M15,42v4c0,1.6568985,3.1340008,3,7,3s7-1.3431015,7-3v-4"/><path class="st1" d="M22,50c-3.9755859,0-8-1.3740234-8-4v-4c0-0.5522461,0.4472656-1,1-1s1,0.4477539,1,1v4  c0,0.7050781,2.2783203,2,6,2s6-1.2949219,6-2v-4c0-0.5522461,0.4472656-1,1-1s1,0.4477539,1,1v4C30,48.6259766,25.9755859,50,22,50  z"/><path class="st0" d="M43,46v4c0,1.6568985,3.1339989,3,7,3s7-1.3431015,7-3v-4"/><path class="st1" d="M50,54c-3.9755859,0-8-1.3740234-8-4v-4c0-0.5522461,0.4472656-1,1-1s1,0.4477539,1,1v4  c0,0.7050781,2.2783203,2,6,2s6-1.2949219,6-2v-4c0-0.5522461,0.4472656-1,1-1s1,0.4477539,1,1v4C58,52.6259766,53.9755859,54,50,54  z"/><path class="st0" d="M15,38v4c0,1.6568985,3.1340008,3,7,3s7-1.3431015,7-3v-4"/><path class="st1" d="M22,46c-3.9755859,0-8-1.3740234-8-4v-4c0-0.5522461,0.4472656-1,1-1s1,0.4477539,1,1v4  c0,0.7050781,2.2783203,2,6,2s6-1.2949219,6-2v-4c0-0.5522461,0.4472656-1,1-1s1,0.4477539,1,1v4C30,44.6259766,25.9755859,46,22,46  z"/><path class="st2" d="M43,42v4c0,1.6568985,3.1339989,3,7,3s7-1.3431015,7-3v-4"/><path class="st1" d="M50,50c-3.9755859,0-8-1.3740234-8-4v-4c0-0.5522461,0.4472656-1,1-1s1,0.4477539,1,1v4  c0,0.7050781,2.2783203,2,6,2s6-1.2949219,6-2v-4c0-0.5522461,0.4472656-1,1-1s1,0.4477539,1,1v4C58,48.6259766,53.9755859,50,50,50  z"/><path class="st2" d="M15,34v4c0,1.6568985,3.1340008,3,7,3s7-1.3431015,7-3v-4"/><path class="st1" d="M22,42c-3.9755859,0-8-1.3740234-8-4v-4c0-0.5522461,0.4472656-1,1-1s1,0.4477539,1,1v4  c0,0.7050781,2.2783203,2,6,2s6-1.2949219,6-2v-4c0-0.5522461,0.4472656-1,1-1s1,0.4477539,1,1v4C30,40.6259766,25.9755859,42,22,42  z"/><path class="st0" d="M43,38v4c0,1.6568985,3.1339989,3,7,3s7-1.3431015,7-3v-4"/><path class="st1" d="M50,46c-3.9755859,0-8-1.3740234-8-4v-4c0-0.5522461,0.4472656-1,1-1s1,0.4477539,1,1v4  c0,0.7050781,2.2783203,2,6,2s6-1.2949219,6-2v-4c0-0.5522461,0.4472656-1,1-1s1,0.4477539,1,1v4C58,44.6259766,53.9755859,46,50,46  z"/><path class="st0" d="M15,30v4c0,1.6568985,3.1340008,3,7,3s7-1.3431015,7-3v-4"/><path class="st1" d="M22,38c-3.9755859,0-8-1.3740234-8-4v-4c0-0.5522461,0.4472656-1,1-1s1,0.4477539,1,1v4  c0,0.7050781,2.2783203,2,6,2s6-1.2949219,6-2v-4c0-0.5522461,0.4472656-1,1-1s1,0.4477539,1,1v4C30,36.6259766,25.9755859,38,22,38  z"/><path class="st2" d="M43,34v4c0,1.6568985,3.1339989,3,7,3s7-1.3431015,7-3v-4"/><path class="st1" d="M50,42c-3.9755859,0-8-1.3740234-8-4v-4c0-0.5522461,0.4472656-1,1-1s1,0.4477539,1,1v4  c0,0.7050781,2.2783203,2,6,2s6-1.2949219,6-2v-4c0-0.5522461,0.4472656-1,1-1s1,0.4477539,1,1v4C58,40.6259766,53.9755859,42,50,42  z"/><path class="st0" d="M43,30v4c0,1.6568985,3.1339989,3,7,3s7-1.3431015,7-3v-4"/><path class="st1" d="M50,38c-3.9755859,0-8-1.3740234-8-4v-4c0-0.5522461,0.4472656-1,1-1s1,0.4477539,1,1v4  c0,0.7050781,2.2783203,2,6,2s6-1.2949219,6-2v-4c0-0.5522461,0.4472656-1,1-1s1,0.4477539,1,1v4C58,36.6259766,53.9755859,38,50,38  z"/><path class="st2" d="M43,26v4c0,1.6569004,3.1339989,3,7,3s7-1.3430996,7-3v-4"/><path class="st1" d="M50,34c-3.9755859,0-8-1.3740234-8-4v-4c0-0.5522461,0.4472656-1,1-1s1,0.4477539,1,1v4  c0,0.7050781,2.2783203,2,6,2s6-1.2949219,6-2v-4c0-0.5522461,0.4472656-1,1-1s1,0.4477539,1,1v4C58,32.6259766,53.9755859,34,50,34  z"/><path class="st2" d="M15,26v4c0,1.6569004,3.1340008,3,7,3s7-1.3430996,7-3v-4"/><path class="st1" d="M22,34c-3.9755859,0-8-1.3740234-8-4v-4c0-0.5522461,0.4472656-1,1-1s1,0.4477539,1,1v4  c0,0.7050781,2.2783203,2,6,2s6-1.2949219,6-2v-4c0-0.5522461,0.4472656-1,1-1s1,0.4477539,1,1v4C30,32.6259766,25.9755859,34,22,34  z"/><ellipse class="st0" cx="22" cy="26" rx="7" ry="3"/><path class="st1" d="M22,30c-3.9755859,0-8-1.3740234-8-4s4.0244141-4,8-4s8,1.3740234,8,4S25.9755859,30,22,30z M22,24  c-3.7216797,0-6,1.2949219-6,2s2.2783203,2,6,2s6-1.2949219,6-2S25.7216797,24,22,24z"/><path class="st0" d="M43,22v4c0,1.6569004,3.1339989,3,7,3s7-1.3430996,7-3v-4"/><path class="st1" d="M50,30c-3.9755859,0-8-1.3740234-8-4v-4c0-0.5522461,0.4472656-1,1-1s1,0.4477539,1,1v4  c0,0.7050781,2.2783203,2,6,2s6-1.2949219,6-2v-4c0-0.5522461,0.4472656-1,1-1s1,0.4477539,1,1v4C58,28.6259766,53.9755859,30,50,30  z"/><path class="st2" d="M43,18v4c0,1.6569004,3.1339989,3,7,3s7-1.3430996,7-3v-4"/><path class="st1" d="M50,26c-3.9755859,0-8-1.3740234-8-4v-4c0-0.5522461,0.4472656-1,1-1s1,0.4477539,1,1v4  c0,0.7050781,2.2783203,2,6,2s6-1.2949219,6-2v-4c0-0.5522461,0.4472656-1,1-1s1,0.4477539,1,1v4C58,24.6259766,53.9755859,26,50,26  z"/><path class="st0" d="M43,14v4c0,1.6569004,3.1339989,3,7,3s7-1.3430996,7-3v-4"/><path class="st1" d="M50,22c-3.9755859,0-8-1.3740234-8-4v-4c0-0.5522461,0.4472656-1,1-1s1,0.4477539,1,1v4  c0,0.7050781,2.2783203,2,6,2s6-1.2949219,6-2v-4c0-0.5522461,0.4472656-1,1-1s1,0.4477539,1,1v4C58,20.6259766,53.9755859,22,50,22  z"/><path class="st0" d="M29,44v4c0,1.6568985,3.1339989,3,7,3s7-1.3431015,7-3v-4"/><path class="st1" d="M36,52c-3.9755859,0-8-1.3740234-8-4v-4c0-0.5522461,0.4472656-1,1-1s1,0.4477539,1,1v4  c0,0.7050781,2.2783203,2,6,2s6-1.2949219,6-2v-4c0-0.5522461,0.4472656-1,1-1s1,0.4477539,1,1v4C44,50.6259766,39.9755859,52,36,52  z"/><path class="st2" d="M43,10v4c0,1.6569004,3.1339989,3,7,3s7-1.3430996,7-3v-4"/><path class="st1" d="M50,18c-3.9755859,0-8-1.3740234-8-4v-4c0-0.5522461,0.4472656-1,1-1s1,0.4477539,1,1v4  c0,0.7050781,2.2783203,2,6,2s6-1.2949219,6-2v-4c0-0.5522461,0.4472656-1,1-1s1,0.4477539,1,1v4C58,16.6259766,53.9755859,18,50,18  z"/><path class="st2" d="M29,40v4c0,1.6568985,3.1339989,3,7,3s7-1.3431015,7-3v-4"/><path class="st1" d="M36,48c-3.9755859,0-8-1.3740234-8-4v-4c0-0.5522461,0.4472656-1,1-1s1,0.4477539,1,1v4  c0,0.7050781,2.2783203,2,6,2s6-1.2949219,6-2v-4c0-0.5522461,0.4472656-1,1-1s1,0.4477539,1,1v4C44,46.6259766,39.9755859,48,36,48  z"/><path class="st0" d="M29,36v4c0,1.6568985,3.1339989,3,7,3s7-1.3431015,7-3v-4"/><path class="st1" d="M36,44c-3.9755859,0-8-1.3740234-8-4v-4c0-0.5522461,0.4472656-1,1-1s1,0.4477539,1,1v4  c0,0.7050781,2.2783203,2,6,2s6-1.2949219,6-2v-4c0-0.5522461,0.4472656-1,1-1s1,0.4477539,1,1v4C44,42.6259766,39.9755859,44,36,44  z"/><path class="st2" d="M29,32v4c0,1.6568985,3.1339989,3,7,3s7-1.3431015,7-3v-4"/><path class="st1" d="M36,40c-3.9755859,0-8-1.3740234-8-4v-4c0-0.5522461,0.4472656-1,1-1s1,0.4477539,1,1v4  c0,0.7050781,2.2783203,2,6,2s6-1.2949219,6-2v-4c0-0.5522461,0.4472656-1,1-1s1,0.4477539,1,1v4C44,38.6259766,39.9755859,40,36,40  z"/><ellipse class="st0" cx="50" cy="10" rx="7" ry="3"/><path class="st1" d="M50,14c-3.9755859,0-8-1.3740234-8-4s4.0244141-4,8-4s8,1.3740234,8,4S53.9755859,14,50,14z M50,8  c-3.7216797,0-6,1.2949219-6,2s2.2783203,2,6,2s6-1.2949219,6-2S53.7216797,8,50,8z"/><ellipse class="st0" cx="36" cy="32" rx="7" ry="3"/><path class="st1" d="M36,36c-3.9755859,0-8-1.3740234-8-4s4.0244141-4,8-4s8,1.3740234,8,4S39.9755859,36,36,36z M36,30  c-3.7216797,0-6,1.2949219-6,2s2.2783203,2,6,2s6-1.2949219,6-2S39.7216797,30,36,30z"/></svg>