<svg height="60" id="Layer_1" width="60" xmlns="http://www.w3.org/2000/svg"><style>.st0{fill:#fff}.st1{fill:#0a94e3}.st2{fill:#c2e4f8}</style><path class="st2" d="M1 44v4c0 1.657 3.134 3 7 3s7-1.343 7-3v-4"/><path class="st1" d="M8 52c-3.976 0-8-1.374-8-4v-4a1 1 0 1 1 2 0v4c0 .705 2.278 2 6 2s6-1.295 6-2v-4a1 1 0 1 1 2 0v4c0 2.626-4.024 4-8 4z"/><path class="st0" d="M1 40v4c0 1.657 3.134 3 7 3s7-1.343 7-3v-4"/><path class="st1" d="M8 48c-3.976 0-8-1.374-8-4v-4a1 1 0 1 1 2 0v4c0 .705 2.278 2 6 2s6-1.295 6-2v-4a1 1 0 1 1 2 0v4c0 2.626-4.024 4-8 4z"/><path class="st0" d="M15 46v4c0 1.657 3.134 3 7 3s7-1.343 7-3v-4"/><path class="st1" d="M22 54c-3.976 0-8-1.374-8-4v-4a1 1 0 1 1 2 0v4c0 .705 2.278 2 6 2s6-1.295 6-2v-4a1 1 0 1 1 2 0v4c0 2.626-4.024 4-8 4z"/><ellipse class="st0" cx="8" cy="40" rx="7" ry="3"/><path class="st1" d="M8 44c-3.976 0-8-1.374-8-4s4.024-4 8-4 8 1.374 8 4-4.024 4-8 4zm0-6c-3.722 0-6 1.295-6 2s2.278 2 6 2 6-1.295 6-2-2.278-2-6-2z"/><path class="st2" d="M15 42v4c0 1.657 3.134 3 7 3s7-1.343 7-3v-4"/><path class="st1" d="M22 50c-3.976 0-8-1.374-8-4v-4a1 1 0 1 1 2 0v4c0 .705 2.278 2 6 2s6-1.295 6-2v-4a1 1 0 1 1 2 0v4c0 2.626-4.024 4-8 4z"/><path class="st0" d="M43 46v4c0 1.657 3.134 3 7 3s7-1.343 7-3v-4"/><path class="st1" d="M50 54c-3.976 0-8-1.374-8-4v-4a1 1 0 1 1 2 0v4c0 .705 2.278 2 6 2s6-1.295 6-2v-4a1 1 0 1 1 2 0v4c0 2.626-4.024 4-8 4z"/><path class="st0" d="M15 38v4c0 1.657 3.134 3 7 3s7-1.343 7-3v-4"/><path class="st1" d="M22 46c-3.976 0-8-1.374-8-4v-4a1 1 0 1 1 2 0v4c0 .705 2.278 2 6 2s6-1.295 6-2v-4a1 1 0 1 1 2 0v4c0 2.626-4.024 4-8 4z"/><path class="st2" d="M43 42v4c0 1.657 3.134 3 7 3s7-1.343 7-3v-4"/><path class="st1" d="M50 50c-3.976 0-8-1.374-8-4v-4a1 1 0 1 1 2 0v4c0 .705 2.278 2 6 2s6-1.295 6-2v-4a1 1 0 1 1 2 0v4c0 2.626-4.024 4-8 4z"/><path class="st2" d="M15 34v4c0 1.657 3.134 3 7 3s7-1.343 7-3v-4"/><path class="st1" d="M22 42c-3.976 0-8-1.374-8-4v-4a1 1 0 1 1 2 0v4c0 .705 2.278 2 6 2s6-1.295 6-2v-4a1 1 0 1 1 2 0v4c0 2.626-4.024 4-8 4z"/><path class="st0" d="M43 38v4c0 1.657 3.134 3 7 3s7-1.343 7-3v-4"/><path class="st1" d="M50 46c-3.976 0-8-1.374-8-4v-4a1 1 0 1 1 2 0v4c0 .705 2.278 2 6 2s6-1.295 6-2v-4a1 1 0 1 1 2 0v4c0 2.626-4.024 4-8 4z"/><path class="st0" d="M15 30v4c0 1.657 3.134 3 7 3s7-1.343 7-3v-4"/><path class="st1" d="M22 38c-3.976 0-8-1.374-8-4v-4a1 1 0 1 1 2 0v4c0 .705 2.278 2 6 2s6-1.295 6-2v-4a1 1 0 1 1 2 0v4c0 2.626-4.024 4-8 4z"/><path class="st2" d="M43 34v4c0 1.657 3.134 3 7 3s7-1.343 7-3v-4"/><path class="st1" d="M50 42c-3.976 0-8-1.374-8-4v-4a1 1 0 1 1 2 0v4c0 .705 2.278 2 6 2s6-1.295 6-2v-4a1 1 0 1 1 2 0v4c0 2.626-4.024 4-8 4z"/><path class="st0" d="M43 30v4c0 1.657 3.134 3 7 3s7-1.343 7-3v-4"/><path class="st1" d="M50 38c-3.976 0-8-1.374-8-4v-4a1 1 0 1 1 2 0v4c0 .705 2.278 2 6 2s6-1.295 6-2v-4a1 1 0 1 1 2 0v4c0 2.626-4.024 4-8 4z"/><path class="st2" d="M43 26v4c0 1.657 3.134 3 7 3s7-1.343 7-3v-4"/><path class="st1" d="M50 34c-3.976 0-8-1.374-8-4v-4a1 1 0 1 1 2 0v4c0 .705 2.278 2 6 2s6-1.295 6-2v-4a1 1 0 1 1 2 0v4c0 2.626-4.024 4-8 4z"/><path class="st2" d="M15 26v4c0 1.657 3.134 3 7 3s7-1.343 7-3v-4"/><path class="st1" d="M22 34c-3.976 0-8-1.374-8-4v-4a1 1 0 1 1 2 0v4c0 .705 2.278 2 6 2s6-1.295 6-2v-4a1 1 0 1 1 2 0v4c0 2.626-4.024 4-8 4z"/><ellipse class="st0" cx="22" cy="26" rx="7" ry="3"/><path class="st1" d="M22 30c-3.976 0-8-1.374-8-4s4.024-4 8-4 8 1.374 8 4-4.024 4-8 4zm0-6c-3.722 0-6 1.295-6 2s2.278 2 6 2 6-1.295 6-2-2.278-2-6-2z"/><path class="st0" d="M43 22v4c0 1.657 3.134 3 7 3s7-1.343 7-3v-4"/><path class="st1" d="M50 30c-3.976 0-8-1.374-8-4v-4a1 1 0 1 1 2 0v4c0 .705 2.278 2 6 2s6-1.295 6-2v-4a1 1 0 1 1 2 0v4c0 2.626-4.024 4-8 4z"/><path class="st2" d="M43 18v4c0 1.657 3.134 3 7 3s7-1.343 7-3v-4"/><path class="st1" d="M50 26c-3.976 0-8-1.374-8-4v-4a1 1 0 1 1 2 0v4c0 .705 2.278 2 6 2s6-1.295 6-2v-4a1 1 0 1 1 2 0v4c0 2.626-4.024 4-8 4z"/><path class="st0" d="M43 14v4c0 1.657 3.134 3 7 3s7-1.343 7-3v-4"/><path class="st1" d="M50 22c-3.976 0-8-1.374-8-4v-4a1 1 0 1 1 2 0v4c0 .705 2.278 2 6 2s6-1.295 6-2v-4a1 1 0 1 1 2 0v4c0 2.626-4.024 4-8 4z"/><path class="st0" d="M29 44v4c0 1.657 3.134 3 7 3s7-1.343 7-3v-4"/><path class="st1" d="M36 52c-3.976 0-8-1.374-8-4v-4a1 1 0 1 1 2 0v4c0 .705 2.278 2 6 2s6-1.295 6-2v-4a1 1 0 1 1 2 0v4c0 2.626-4.024 4-8 4z"/><path class="st2" d="M43 10v4c0 1.657 3.134 3 7 3s7-1.343 7-3v-4"/><path class="st1" d="M50 18c-3.976 0-8-1.374-8-4v-4a1 1 0 1 1 2 0v4c0 .705 2.278 2 6 2s6-1.295 6-2v-4a1 1 0 1 1 2 0v4c0 2.626-4.024 4-8 4z"/><path class="st2" d="M29 40v4c0 1.657 3.134 3 7 3s7-1.343 7-3v-4"/><path class="st1" d="M36 48c-3.976 0-8-1.374-8-4v-4a1 1 0 1 1 2 0v4c0 .705 2.278 2 6 2s6-1.295 6-2v-4a1 1 0 1 1 2 0v4c0 2.626-4.024 4-8 4z"/><path class="st0" d="M29 36v4c0 1.657 3.134 3 7 3s7-1.343 7-3v-4"/><path class="st1" d="M36 44c-3.976 0-8-1.374-8-4v-4a1 1 0 1 1 2 0v4c0 .705 2.278 2 6 2s6-1.295 6-2v-4a1 1 0 1 1 2 0v4c0 2.626-4.024 4-8 4z"/><path class="st2" d="M29 32v4c0 1.657 3.134 3 7 3s7-1.343 7-3v-4"/><path class="st1" d="M36 40c-3.976 0-8-1.374-8-4v-4a1 1 0 1 1 2 0v4c0 .705 2.278 2 6 2s6-1.295 6-2v-4a1 1 0 1 1 2 0v4c0 2.626-4.024 4-8 4z"/><ellipse class="st0" cx="50" cy="10" rx="7" ry="3"/><path class="st1" d="M50 14c-3.976 0-8-1.374-8-4s4.024-4 8-4 8 1.374 8 4-4.024 4-8 4zm0-6c-3.722 0-6 1.295-6 2s2.278 2 6 2 6-1.295 6-2-2.278-2-6-2z"/><ellipse class="st0" cx="36" cy="32" rx="7" ry="3"/><path class="st1" d="M36 36c-3.976 0-8-1.374-8-4s4.024-4 8-4 8 1.374 8 4-4.024 4-8 4zm0-6c-3.722 0-6 1.295-6 2s2.278 2 6 2 6-1.295 6-2-2.278-2-6-2z"/></svg>