<?xml version="1.0" ?><!DOCTYPE svg  PUBLIC '-//W3C//DTD SVG 1.1//EN'  'http://www.w3.org/Graphics/SVG/1.1/DTD/svg11.dtd'><svg height="60px" id="Layer_1" style="enable-background:new 0 0 60 60;" version="1.1" viewBox="0 0 60 60" width="60px" xml:space="preserve" xmlns="http://www.w3.org/2000/svg" xmlns:xlink="http://www.w3.org/1999/xlink"><style type="text/css">
	.st0{fill:#C2E4F8;}
	.st1{fill:#0A94E3;}
	.st2{fill:#FFFFFF;}
	.st3{fill:#A6ACB2;stroke:#0A94E3;stroke-width:2;stroke-linecap:round;stroke-linejoin:round;stroke-miterlimit:10;}
	.st4{fill:#EFEAE1;}
	.st5{fill:none;stroke:#0A94E3;stroke-width:2;stroke-linecap:round;stroke-linejoin:round;stroke-miterlimit:10;}
	.st6{fill:#AA8566;}
	.st7{fill:#A6ACB2;}
	.st8{fill:#81D4EF;}
	.st9{fill:#76D03B;stroke:#0A94E3;stroke-width:2;stroke-linecap:round;stroke-linejoin:round;stroke-miterlimit:10;}
	.st10{fill-rule:evenodd;clip-rule:evenodd;fill:#FFFFFF;}
	.st11{fill-rule:evenodd;clip-rule:evenodd;fill:#C2E4F8;}
</style><rect class="st2" height="26" width="8" x="51" y="33.0299988"/><path class="st1" d="M59,60.0297852h-8c-0.5527344,0-1-0.4477539-1-1v-26c0-0.5522461,0.4472656-1,1-1h8  c0.5527344,0,1,0.4477539,1,1v26C60,59.5820312,59.5527344,60.0297852,59,60.0297852z M52,58.0297852h6v-24h-6V58.0297852z"/><rect class="st0" height="4" width="42" x="9" y="55.0299988"/><path class="st1" d="M51,60.0297852H9c-0.5527344,0-1-0.4477539-1-1v-4c0-0.5522461,0.4472656-1,1-1h42c0.5527344,0,1,0.4477539,1,1  v4C52,59.5820312,51.5527344,60.0297852,51,60.0297852z M10,58.0297852h40v-2H10V58.0297852z"/><rect class="st0" height="4" width="42" x="9" y="23.0300007"/><path class="st1" d="M51,28.0297852H9c-0.5527344,0-1-0.4477539-1-1v-4c0-0.5522461,0.4472656-1,1-1h42c0.5527344,0,1,0.4477539,1,1  v4C52,27.5820312,51.5527344,28.0297852,51,28.0297852z M10,26.0297852h40v-2H10V26.0297852z"/><rect class="st2" height="26" width="8" x="1" y="33.0299988"/><path class="st1" d="M9,60.0297852H1c-0.5527344,0-1-0.4477539-1-1v-26c0-0.5522461,0.4472656-1,1-1h8c0.5527344,0,1,0.4477539,1,1  v26C10,59.5820312,9.5527344,60.0297852,9,60.0297852z M2,58.0297852h6v-24H2V58.0297852z"/><rect class="st0" height="28" width="42" x="9" y="27.0300007"/><path class="st1" d="M51,56.0297852H9c-0.5527344,0-1-0.4477539-1-1v-28c0-0.5522461,0.4472656-1,1-1h42  c0.5527344,0,1,0.4477539,1,1v28C52,55.5820312,51.5527344,56.0297852,51,56.0297852z M10,54.0297852h40v-26H10V54.0297852z"/><path class="st1" d="M21,55.5297852c-0.5527344,0-1-0.4477539-1-1v-27c0-0.5522461,0.4472656-1,1-1s1,0.4477539,1,1v27  C22,55.0820312,21.5527344,55.5297852,21,55.5297852z"/><path class="st1" d="M15,55.5297852c-0.5527344,0-1-0.4477539-1-1v-27.5c0-0.5522461,0.4472656-1,1-1s1,0.4477539,1,1v27.5  C16,55.0820312,15.5527344,55.5297852,15,55.5297852z"/><path class="st1" d="M27,55.5297852c-0.5527344,0-1-0.4477539-1-1v-27c0-0.5522461,0.4472656-1,1-1s1,0.4477539,1,1v27  C28,55.0820312,27.5527344,55.5297852,27,55.5297852z"/><path class="st1" d="M33,55.5297852c-0.5527344,0-1-0.4477539-1-1v-27c0-0.5522461,0.4472656-1,1-1s1,0.4477539,1,1v27  C34,55.0820312,33.5527344,55.5297852,33,55.5297852z"/><path class="st1" d="M39,55.5297852c-0.5527344,0-1-0.4477539-1-1v-27c0-0.5522461,0.4472656-1,1-1s1,0.4477539,1,1v27  C40,55.0820312,39.5527344,55.5297852,39,55.5297852z"/><path class="st1" d="M45,55.5297852c-0.5527344,0-1-0.4477539-1-1v-27c0-0.5522461,0.4472656-1,1-1s1,0.4477539,1,1v27  C46,55.0820312,45.5527344,55.5297852,45,55.5297852z"/><rect class="st0" height="4" width="8" x="1" y="55.0299988"/><path class="st1" d="M9,60.0297852H1c-0.5527344,0-1-0.4477539-1-1v-4c0-0.5522461,0.4472656-1,1-1h8c0.5527344,0,1,0.4477539,1,1v4  C10,59.5820312,9.5527344,60.0297852,9,60.0297852z M2,58.0297852h6v-2H2V58.0297852z"/><rect class="st0" height="4" width="8" x="51" y="55.0299988"/><path class="st1" d="M59,60.0297852h-8c-0.5527344,0-1-0.4477539-1-1v-4c0-0.5522461,0.4472656-1,1-1h8c0.5527344,0,1,0.4477539,1,1  v4C60,59.5820312,59.5527344,60.0297852,59,60.0297852z M52,58.0297852h6v-2h-6V58.0297852z"/><polygon class="st2" points="30,5.0300002 7,19.0300007 7,23.0300007 53,23.0300007 53,19.0300007 "/><path class="st1" d="M53,24.0297852H7c-0.5527344,0-1-0.4477539-1-1v-4c0-0.3491211,0.1816406-0.6728516,0.4804688-0.8540039l23-14  c0.3183594-0.1943359,0.7207031-0.1943359,1.0390625,0l23,14C53.8183594,18.3569336,54,18.6806641,54,19.0297852v4  C54,23.5820312,53.5527344,24.0297852,53,24.0297852z M8,22.0297852h44v-2.4379883L30,6.2006836L8,19.5917969V22.0297852z"/><polygon class="st0" points="30,9.5299997 14,19.0300007 46,19.0300007 "/><path class="st1" d="M46,20.0297852H14c-0.4501953,0-0.8447266-0.3007812-0.9638672-0.7353516  c-0.1201172-0.434082,0.0664062-0.8945312,0.453125-1.1245117l16-9.5c0.3144531-0.1865234,0.7070312-0.1865234,1.0214844,0l16,9.5  c0.3867188,0.2299805,0.5732422,0.6904297,0.453125,1.1245117C46.8447266,19.7290039,46.4501953,20.0297852,46,20.0297852z   M17.6425781,18.0297852h24.7148438L30,10.6928711L17.6425781,18.0297852z"/></svg>