<?xml version="1.0" encoding="utf-8"?>
<!-- Generator: Adobe Illustrator 24.0.3, SVG Export Plug-In . SVG Version: 6.00 Build 0)  -->
<svg version="1.1" id="_009_Culture_BLUETONE" xmlns="http://www.w3.org/2000/svg" xmlns:xlink="http://www.w3.org/1999/xlink"
	 x="0px" y="0px" viewBox="0 0 55 45.8" style="enable-background:new 0 0 55 45.8;" xml:space="preserve">
<style type="text/css">
	.st0{fill:#C2E4F8;}
	.st1{fill:#FFFFFF;}
	.st2{fill:#0A94E3;}
</style>
<title></title>
<path class="st0" d="M43.4,43.3c-1.8,1.3-4.2,1.3-6,0l2-8h2L43.4,43.3z"/>
<circle class="st0" cx="40.4" cy="33.3" r="2"/>
<path class="st1" d="M10.4,13.6v9.4c0,4,7.6,7.2,17,7.2s17-3.2,17-7.2v-9.4H10.4z"/>
<path class="st1" d="M25.9,1.8l-24,8c-0.3,0.1-0.4,0.4-0.3,0.6c0,0.1,0.2,0.3,0.3,0.3l24,8c1,0.3,2.1,0.3,3.2,0l24-8
	c0.3-0.1,0.4-0.4,0.3-0.6c0-0.1-0.2-0.3-0.3-0.3l-24-8C28,1.5,26.9,1.5,25.9,1.8z"/>
<path class="st2" d="M27.4,20c-0.6,0-1.3-0.1-1.9-0.3l-24-8c-0.8-0.3-1.2-1.1-0.9-1.9C0.7,9.4,1.1,9,1.5,8.9l24-8
	c1.2-0.4,2.6-0.4,3.8,0l24,8c0.8,0.3,1.2,1.1,0.9,1.9c-0.1,0.4-0.5,0.8-0.9,0.9l-24,8C28.7,19.9,28.1,20,27.4,20z M3.6,10.3
	l22.6,7.5c0.8,0.3,1.7,0.3,2.5,0l22.6-7.5L28.7,2.8c-0.8-0.3-1.7-0.3-2.5,0l0,0L3.6,10.3z M25.9,1.8L25.9,1.8z"/>
<path class="st2" d="M27.4,31.3c-10.1,0-18-3.6-18-8.2v-9.4c0-0.6,0.4-1,1-1s1,0.4,1,1v9.4c0,3,6.6,6.2,16,6.2s16-3.3,16-6.2v-9.4
	c0-0.6,0.4-1,1-1s1,0.4,1,1v9.4C45.4,27.7,37.5,31.3,27.4,31.3z"/>
<path class="st2" d="M40.4,36.3c-1.7,0-3-1.3-3-3s1.3-3,3-3s3,1.3,3,3C43.4,35,42.1,36.3,40.4,36.3z M40.4,32.3c-0.6,0-1,0.4-1,1
	s0.4,1,1,1s1-0.4,1-1C41.4,32.8,41,32.3,40.4,32.3z"/>
<path class="st2" d="M40.4,32.3c-0.6,0-1-0.4-1-1c0,0,0,0,0,0V15.5l-12.3-4.3c-0.5-0.2-0.8-0.7-0.6-1.3s0.7-0.8,1.3-0.6c0,0,0,0,0,0
	l13,4.5c0.4,0.1,0.7,0.5,0.7,0.9v16.5C41.4,31.9,41,32.3,40.4,32.3C40.4,32.3,40.4,32.3,40.4,32.3z"/>
<path class="st2" d="M40.4,45.3c-1.3,0-2.5-0.4-3.6-1.2c-0.4-0.2-0.5-0.7-0.4-1.1l2-8c0.1-0.4,0.5-0.8,1-0.8h2c0.5,0,0.9,0.3,1,0.8
	l2,8c0.1,0.4-0.1,0.8-0.4,1.1C43,44.9,41.7,45.3,40.4,45.3z M38.6,42.8c1.1,0.6,2.5,0.6,3.7,0l-1.6-6.5h-0.4L38.6,42.8z"/>
</svg>
