<svg id="_009_Culture_BLUETONE" xmlns="http://www.w3.org/2000/svg" viewBox="0 0 55 45.8"><style>.st0{fill:#c2e4f8}.st1{fill:#fff}.st2{fill:#0a94e3}</style><path class="st0" d="M43.4 43.3c-1.8 1.3-4.2 1.3-6 0l2-8h2l2 8z"/><circle class="st0" cx="40.4" cy="33.3" r="2"/><path class="st1" d="M10.4 13.6V23c0 4 7.6 7.2 17 7.2s17-3.2 17-7.2v-9.4h-34z"/><path class="st1" d="M25.9 1.8l-24 8c-.3.1-.4.4-.3.6 0 .1.2.3.3.3l24 8c1 .3 2.1.3 3.2 0l24-8c.3-.1.4-.4.3-.6 0-.1-.2-.3-.3-.3l-24-8c-1.1-.3-2.2-.3-3.2 0z"/><path class="st2" d="M27.4 20c-.6 0-1.3-.1-1.9-.3l-24-8C.7 11.4.3 10.6.6 9.8c.1-.4.5-.8.9-.9l24-8c1.2-.4 2.6-.4 3.8 0l24 8c.8.3 1.2 1.1.9 1.9-.1.4-.5.8-.9.9l-24 8c-.6.2-1.2.3-1.9.3zM3.6 10.3l22.6 7.5c.8.3 1.7.3 2.5 0l22.6-7.5-22.6-7.5c-.8-.3-1.7-.3-2.5 0L3.6 10.3zm22.3-8.5z"/><path class="st2" d="M27.4 31.3c-10.1 0-18-3.6-18-8.2v-9.4c0-.6.4-1 1-1s1 .4 1 1v9.4c0 3 6.6 6.2 16 6.2s16-3.3 16-6.2v-9.4c0-.6.4-1 1-1s1 .4 1 1v9.4c0 4.6-7.9 8.2-18 8.2zm13 5c-1.7 0-3-1.3-3-3s1.3-3 3-3 3 1.3 3 3-1.3 3-3 3zm0-4c-.6 0-1 .4-1 1s.4 1 1 1 1-.4 1-1c0-.5-.4-1-1-1z"/><path class="st2" d="M40.4 32.3c-.6 0-1-.4-1-1V15.5l-12.3-4.3c-.5-.2-.8-.7-.6-1.3s.7-.8 1.3-.6l13 4.5c.4.1.7.5.7.9v16.5c-.1.7-.5 1.1-1.1 1.1zm0 13c-1.3 0-2.5-.4-3.6-1.2-.4-.2-.5-.7-.4-1.1l2-8c.1-.4.5-.8 1-.8h2c.5 0 .9.3 1 .8l2 8c.1.4-.1.8-.4 1.1-1 .8-2.3 1.2-3.6 1.2zm-1.8-2.5c1.1.6 2.5.6 3.7 0l-1.6-6.5h-.4l-1.7 6.5z"/></svg>