<svg height="60" id="Layer_1" version="1.1" width="60" xml:space="preserve" xmlns="http://www.w3.org/2000/svg">
  <style>
    .st0{fill:#c2e4f8}.st1{fill:#0a94e3}.st2{fill:#fff}
  </style>
  <path class="st0" d="M17 5.03h26v4H17z"/>
  <path class="st1" d="M43 10.03H17a1 1 0 01-1-1v-4a1 1 0 011-1h26a1 1 0 011 1v4a1 1 0 01-1 1zm-25-2h24v-2H18v2z"/>
  <path class="st2" d="M1 31.03h4v28H1z"/>
  <path class="st1" d="M5 60.03H1a1 1 0 01-1-1v-28a1 1 0 011-1h4a1 1 0 011 1v28a1 1 0 01-1 1zm-3-2h2v-26H2v26z"/>
  <path class="st2" d="M5 31.03h6v28H5z"/>
  <path class="st1" d="M11 60.03H5a1 1 0 01-1-1v-28a1 1 0 011-1h6a1 1 0 011 1v28a1 1 0 01-1 1zm-5-2h4v-26H6v26z"/>
  <path class="st2" d="M55 31.03h4v28h-4z"/>
  <path class="st1" d="M59 60.03h-4a1 1 0 01-1-1v-28a1 1 0 011-1h4a1 1 0 011 1v28a1 1 0 01-1 1zm-3-2h2v-26h-2v26z"/>
  <path class="st2" d="M49 31.03h6v28h-6z"/>
  <path class="st1" d="M55 60.03h-6a1 1 0 01-1-1v-28a1 1 0 011-1h6a1 1 0 011 1v28a1 1 0 01-1 1zm-5-2h4v-26h-4v26z"/>
  <path class="st2" d="M11 9.03h38v50H11z"/>
  <path class="st1" d="M49 60.03H11a1 1 0 01-1-1v-50a1 1 0 011-1h38a1 1 0 011 1v50a1 1 0 01-1 1zm-37-2h36v-48H12v48z"/>
  <path class="st0" d="M15 13.03h30v30H15z"/>
  <path class="st1" d="M45 44.03H15a1 1 0 01-1-1v-30a1 1 0 011-1h30a1 1 0 011 1v30a1 1 0 01-1 1zm-29-2h28v-28H16v28z"/>
  <path class="st2" d="M15 43.03h30v16H15z"/>
  <path class="st1" d="M45 60.03H15a1 1 0 01-1-1v-16a1 1 0 011-1h30a1 1 0 011 1v16a1 1 0 01-1 1zm-29-2h28v-14H16v14z"/>
  <path class="st1" d="M39 44.03a1 1 0 01-1-1v-30a1 1 0 112 0v30a1 1 0 01-1 1zM33 44.03a1 1 0 01-1-1v-30a1 1 0 112 0v30a1 1 0 01-1 1zM27 44.03a1 1 0 01-1-1v-30a1 1 0 112 0v30a1 1 0 01-1 1zM30 6.03a1 1 0 01-1-1v-4a1 1 0 112 0v4a1 1 0 01-1 1z"/>
  <path class="st0" d="M1 55.03h10v4H1z"/>
  <path class="st1" d="M11 60.03H1a1 1 0 01-1-1v-4a1 1 0 011-1h10a1 1 0 011 1v4a1 1 0 01-1 1zm-9-2h8v-2H2v2zM21 44.03a1 1 0 01-1-1v-30a1 1 0 112 0v30a1 1 0 01-1 1zM23 60.03a1 1 0 01-1-1v-16a1 1 0 112 0v16a1 1 0 01-1 1zM37 60.03a1 1 0 01-1-1v-16a1 1 0 112 0v16a1 1 0 01-1 1zM30 60.03a1 1 0 01-1-1v-16a1 1 0 112 0v16a1 1 0 01-1 1z"/>
  <path class="st1" d="M45 20.03H15a1 1 0 110-2h30a1 1 0 110 2zM45 26.03H15a1 1 0 110-2h30a1 1 0 110 2zM45 32.03H15a1 1 0 110-2h30a1 1 0 110 2zM45 38.03H15a1 1 0 110-2h30a1 1 0 110 2zM45 44.03H15a1 1 0 110-2h30a1 1 0 110 2zM55 56.03a1 1 0 01-1-1v-20a1 1 0 112 0v20a1 1 0 01-1 1z"/>
  <path class="st0" d="M49 55.03h10v4H49z"/>
  <path class="st1" d="M59 60.03H49a1 1 0 01-1-1v-4a1 1 0 011-1h10a1 1 0 011 1v4a1 1 0 01-1 1zm-9-2h8v-2h-8v2z"/>
  <path class="st1" d="M61 60.03H-1a1 1 0 110-2h62a1 1 0 110 2z"/>
  <path class="st0" d="M49 31.03h10v4H49z"/>
  <path class="st1" d="M59 36.03H49a1 1 0 01-1-1v-4a1 1 0 011-1h10a1 1 0 011 1v4a1 1 0 01-1 1zm-9-2h8v-2h-8v2z"/>
  <path class="st0" d="M1 31.03h10v4H1z"/>
  <path class="st1" d="M11 36.03H1a1 1 0 01-1-1v-4a1 1 0 011-1h10a1 1 0 011 1v4a1 1 0 01-1 1zm-9-2h8v-2H2v2z"/>
</svg>
