<?xml version="1.0" ?><!DOCTYPE svg  PUBLIC '-//W3C//DTD SVG 1.1//EN'  'http://www.w3.org/Graphics/SVG/1.1/DTD/svg11.dtd'><svg height="60px" id="Layer_1" style="enable-background:new 0 0 60 60;" version="1.1" viewBox="0 0 60 60" width="60px" xml:space="preserve" xmlns="http://www.w3.org/2000/svg" xmlns:xlink="http://www.w3.org/1999/xlink"><style type="text/css">
	.st0{fill:#FFFFFF;}
	.st1{fill:#C2E4F8;}
	.st2{fill:#0A94E3;}
	.st3{fill-rule:evenodd;clip-rule:evenodd;fill:#FFFFFF;}
	.st4{fill:#E45544;}
	.st5{fill:#BDE3EF;}
	.st6{fill-rule:evenodd;clip-rule:evenodd;fill:#C2E4F8;}
	.st7{fill:#F1C40E;}
	.st8{fill:#DAE3E6;}
</style><path class="st0" d="M43,3c-7.7319336,0-14,6.2680664-14,14c0,2.3195801,0.5731812,4.5020142,1.5717773,6.4281616  l-9.2384033,9.2384033L16.666687,28L12,32.6665649l4.666687,4.666748l-3.333313,3.333252L8.666687,36L4,40.6665649  l4.666687,4.666748L6,48c-1.6569214,1.6568604-1.6569214,4.3430786,0,6c1.6568604,1.6568604,4.3430786,1.6568604,6,0  l24.5717773-24.5718384C38.4979858,30.4267578,40.6803589,31,43,31c7.7318726,0,14-6.2681274,14-14C57,9.2680664,50.7318726,3,43,3z   M43,23c-3.3137207,0-6-2.6863403-6-6c0-3.3137207,2.6862793-6,6-6c3.3136597,0,6,2.6862793,6,6C49,20.3136597,46.3136597,23,43,23z  "/><path class="st2" d="M9,56.2397461c-1.3427734,0-2.6845703-0.5107422-3.7070312-1.5327148  C4.3027344,53.7172852,3.7568359,52.4003906,3.7568359,51s0.5458984-2.7172852,1.5361328-3.7070312l1.9599609-1.9594727  l-3.9599609-3.9599609C3.1054688,41.1860352,3,40.9316406,3,40.6665039s0.1054688-0.5195312,0.2929688-0.7070312  l4.6669922-4.6665039C8.1474609,35.1054688,8.4013672,35,8.6669922,35l0,0c0.265625,0,0.5195312,0.1054688,0.7070312,0.2929688  l3.9589844,3.9594727l1.9199219-1.9189453l-3.9599609-3.9599609C11.1054688,33.1860352,11,32.9316406,11,32.6665039  s0.1054688-0.5195312,0.2929688-0.7070312l4.6669922-4.6665039C16.1474609,27.1054688,16.4013672,27,16.6669922,27l0,0  c0.265625,0,0.5195312,0.1054688,0.7070312,0.2929688l3.9589844,3.9594727l8.0273438-8.0268555  C28.4570312,21.2607422,28,19.1699219,28,17c0-8.2709961,6.7285156-15,15-15s15,6.7290039,15,15s-6.7285156,15-15,15  c-2.1699219,0-4.2607422-0.4570312-6.2255859-1.3598633L12.7070312,54.7070312  C11.6845703,55.7290039,10.3427734,56.2397461,9,56.2397461z M5.4140625,40.6665039l3.9599609,3.9599609  c0.1875,0.1875,0.2929688,0.4418945,0.2929688,0.7070312s-0.1054688,0.5195312-0.2929688,0.7070312l-2.6669922,2.6665039  C6.0947266,49.3198242,5.7568359,50.1337891,5.7568359,51s0.3378906,1.6801758,0.9501953,2.2929688  c1.2636719,1.2636719,3.3222656,1.2636719,4.5859375,0l24.5722656-24.5717773  c0.3085938-0.3085938,0.7822266-0.3808594,1.1669922-0.1806641C38.9003906,29.5087891,40.9082031,30,43,30  c7.1679688,0,13-5.831543,13-13S50.1679688,4,43,4S30,9.831543,30,17c0,2.0917969,0.4912109,4.1000977,1.4599609,5.9677734  c0.2011719,0.387207,0.1279297,0.859375-0.1806641,1.1674805l-9.2392578,9.2382812  c-0.390625,0.390625-1.0234375,0.390625-1.4140625,0l-3.9589844-3.9594727l-3.2529297,3.2524414l3.9599609,3.9599609  c0.1875,0.1875,0.2929688,0.4418945,0.2929688,0.7070312s-0.1054688,0.5195312-0.2929688,0.7070312l-3.3339844,3.3330078  c-0.390625,0.390625-1.0234375,0.390625-1.4140625,0l-3.9589844-3.9594727L5.4140625,40.6665039z M43,24  c-3.859375,0-7-3.1401367-7-7s3.140625-7,7-7s7,3.1401367,7,7S46.859375,24,43,24z M43,12c-2.7568359,0-5,2.2431641-5,5  s2.2431641,5,5,5s5-2.2431641,5-5S45.7568359,12,43,12z"/></svg>