<?xml version="1.0" encoding="UTF-8"?>
<svg width="50px" height="46px" viewBox="0 0 50 46" version="1.1" xmlns="http://www.w3.org/2000/svg" xmlns:xlink="http://www.w3.org/1999/xlink">
    <!-- Generator: Sketch 63.1 (92452) - https://sketch.com -->
    <title>Custom Icons/network</title>
    <desc>Created with Sketch.</desc>
    <g id="Batch-2-Designs" stroke="none" stroke-width="1" fill="none" fill-rule="evenodd">
        <g id="Government-Membership-(HIFI)" transform="translate(-741.000000, -832.000000)">
            <g id="Benefits" transform="translate(-18.000000, 658.000000)">
                <g id="Benefit-Card-Copy-3" transform="translate(756.000000, 169.000000)">
                    <g id="Custom-Icons/network">
                        <g id="iconfinder_019_092_share_network_net_root_parent_child_link_hierarchy_friends_social_1274993" transform="translate(3.733333, 5.376000)">
                            <line x1="12.6162374" y1="27.0400954" x2="8.31752267" y2="34.8558879" id="Path" fill="#9F85E5" fill-rule="nonzero"></line>
                            <path d="M8.31674296,35.6923312 C8.18027568,35.6923312 8.04217399,35.6588272 7.91428699,35.5885507 C7.5093795,35.3662806 7.36147182,34.857184 7.58455905,34.4518679 L11.8832794,26.6364584 C12.1055495,26.2319595 12.6146461,26.0848689 13.0195537,26.307139 C13.4244612,26.5294092 13.5723688,27.0385057 13.3492816,27.4438218 L9.05056127,35.2592314 C8.89856767,35.5354346 8.61214979,35.6923312 8.31674296,35.6923312 Z" id="Path" fill="#0A94E3" fill-rule="nonzero"></path>
                            <line x1="30.9570667" y1="27.0400954" x2="26.6584373" y2="34.8558879" id="Path" fill="#9F85E5" fill-rule="nonzero"></line>
                            <path d="M26.6577048,35.6923312 C26.5212375,35.6923312 26.3831358,35.6588272 26.2552488,35.5885507 C25.8503413,35.3662806 25.7024336,34.857184 25.9255209,34.4518679 L30.2242412,26.6364584 C30.4461027,26.2319595 30.9551994,26.0848689 31.3605155,26.307139 C31.765423,26.5294092 31.9133306,27.0385057 31.6902434,27.4438218 L27.3915231,35.2592314 C27.2395295,35.5354346 26.9531115,35.6923312 26.6577048,35.6923312 Z" id="Path" fill="#0A94E3" fill-rule="nonzero"></path>
                            <line x1="17.5724138" y1="27.0400954" x2="21.8710416" y2="34.8558879" id="Path" fill="#9F85E5" fill-rule="nonzero"></line>
                            <path d="M21.8719513,35.6923312 C21.5765446,35.6923312 21.2901266,35.5362518 21.1381331,35.2592314 L16.8394128,27.4438218 C16.6163255,27.0385057 16.7642331,26.5294092 17.1691407,26.307139 C17.5740482,26.0856861 18.083962,26.2319594 18.305415,26.6364584 L22.6041353,34.4518679 C22.8272226,34.857184 22.679315,35.3662806 22.2744074,35.5885507 C22.1465203,35.6588272 22.0084186,35.6923312 21.8719513,35.6923312 Z" id="Path" fill="#0A94E3" fill-rule="nonzero"></path>
                            <line x1="21.8430088" y1="10.2642144" x2="17.5663855" y2="18.0398396" id="Path" fill="#9F85E5" fill-rule="nonzero"></line>
                            <path d="M17.5654678,18.8766164 C17.4290006,18.8766164 17.2908989,18.8431124 17.1630119,18.7728359 C16.7581044,18.5505658 16.6101967,18.0414692 16.8332839,17.6361531 L21.1099407,9.86160214 C21.3322108,9.45628605 21.841716,9.30919557 22.246215,9.53146568 C22.6511225,9.7537358 22.7990301,10.2628324 22.5759429,10.6681485 L18.2992861,18.4435167 C18.1472925,18.7197199 17.8608747,18.8766164 17.5654678,18.8766164 Z" id="Path" fill="#0A94E3" fill-rule="nonzero"></path>
                            <line x1="36.0037813" y1="27.0400954" x2="40.3024123" y2="34.8558879" id="Path" fill="#9F85E5" fill-rule="nonzero"></line>
                            <path d="M40.3032103,35.6923312 C40.0078036,35.6923312 39.7213856,35.5362518 39.5693921,35.2592314 L35.2706718,27.4438218 C35.0475844,27.0385057 35.1954921,26.5294092 35.6003997,26.307139 C36.006533,26.0856861 36.5148124,26.2319594 36.736674,26.6364584 L41.0353943,34.4518679 C41.2584816,34.857184 41.110574,35.3662806 40.7056664,35.5885507 C40.5777793,35.6588272 40.4396776,35.6923312 40.3032103,35.6923312 Z" id="Path" fill="#0A94E3" fill-rule="nonzero"></path>
                            <line x1="26.7770115" y1="10.2642144" x2="31.0536332" y2="18.0398396" id="Path" fill="#9F85E5" fill-rule="nonzero"></line>
                            <path d="M31.0544854,18.8766164 C30.7590787,18.8766164 30.4726607,18.7205371 30.3206672,18.4435166 L26.0440105,10.6681484 C25.8209232,10.2628323 25.9688308,9.75373572 26.3737384,9.5314656 C26.7794631,9.31001269 27.2881511,9.45546884 27.5100127,9.86160205 L31.7866694,17.636153 C32.0097568,18.0414691 31.8618491,18.5505657 31.4569415,18.7728358 C31.3290544,18.8431124 31.1909527,18.8766164 31.0544854,18.8766164 Z" id="Path" fill="#0A94E3" fill-rule="nonzero"></path>
                            <circle id="Oval" fill="#C2E4F8" fill-rule="nonzero" cx="5.85747126" cy="39.3287356" r="5.02068966"></circle>
                            <path d="M5.85747126,45.1862069 C2.62760864,45.1862069 0,42.5581897 0,39.3287356 C0,36.0992816 2.62760864,33.4712644 5.85747126,33.4712644 C9.08733389,33.4712644 11.7149425,36.0992816 11.7149425,39.3287356 C11.7149425,42.5581897 9.08733389,45.1862069 5.85747126,45.1862069 Z M5.85747126,35.1448276 C3.55060168,35.1448276 1.67356322,37.0218661 1.67356322,39.3287356 C1.67356322,41.6356052 3.55060168,43.5126437 5.85747126,43.5126437 C8.16434085,43.5126437 10.0413793,41.6356052 10.0413793,39.3287356 C10.0413793,37.0218661 8.16434085,35.1448276 5.85747126,35.1448276 Z" id="Shape" fill="#0A94E3" fill-rule="nonzero"></path>
                            <circle id="Oval" fill="#C2E4F8" fill-rule="nonzero" cx="42.6758621" cy="39.3287356" r="5.02068966"></circle>
                            <path d="M42.6758621,45.1862069 C39.4459994,45.1862069 36.8183908,42.5581897 36.8183908,39.3287356 C36.8183908,36.0992816 39.4459994,33.4712644 42.6758621,33.4712644 C45.9057247,33.4712644 48.5333333,36.0992816 48.5333333,39.3287356 C48.5333333,42.5581897 45.9057247,45.1862069 42.6758621,45.1862069 Z M42.6758621,35.1448276 C40.3689925,35.1448276 38.491954,37.0218661 38.491954,39.3287356 C38.491954,41.6356052 40.3689925,43.5126437 42.6758621,43.5126437 C44.9827316,43.5126437 46.8597701,41.6356052 46.8597701,39.3287356 C46.8597701,37.0218661 44.9827316,35.1448276 42.6758621,35.1448276 Z" id="Shape" fill="#0A94E3" fill-rule="nonzero"></path>
                            <circle id="Oval" fill="#FFFFFF" fill-rule="nonzero" cx="24.2666667" cy="5.85747126" r="5.02068966"></circle>
                            <path d="M24.2666667,11.7149425 C21.036804,11.7149425 18.4091954,9.08692529 18.4091954,5.85747126 C18.4091954,2.62801724 21.036804,0 24.2666667,0 C27.4965293,0 30.1241379,2.62801724 30.1241379,5.85747126 C30.1241379,9.08692529 27.4965293,11.7149425 24.2666667,11.7149425 Z M24.2666667,1.67356322 C21.9597971,1.67356322 20.0827586,3.55060168 20.0827586,5.85747126 C20.0827586,8.16434085 21.9597971,10.0413793 24.2666667,10.0413793 C26.5735362,10.0413793 28.4505747,8.16434085 28.4505747,5.85747126 C28.4505747,3.55060168 26.5735362,1.67356322 24.2666667,1.67356322 Z" id="Shape" fill="#0A94E3" fill-rule="nonzero"></path>
                            <circle id="Oval" fill="#C2E4F8" fill-rule="nonzero" cx="15.062069" cy="22.5931034" r="5.02068966"></circle>
                            <path d="M15.062069,28.4505747 C11.8322063,28.4505747 9.2045977,25.8225575 9.2045977,22.5931034 C9.2045977,19.3636494 11.8322063,16.7356322 15.062069,16.7356322 C18.2919316,16.7356322 20.9195402,19.3636494 20.9195402,22.5931034 C20.9195402,25.8225575 18.2919316,28.4505747 15.062069,28.4505747 Z M15.062069,18.4091954 C12.7551994,18.4091954 10.8781609,20.2862339 10.8781609,22.5931034 C10.8781609,24.899973 12.7551994,26.7770115 15.062069,26.7770115 C17.3689385,26.7770115 19.245977,24.899973 19.245977,22.5931034 C19.245977,20.2862339 17.3689385,18.4091954 15.062069,18.4091954 Z" id="Shape" fill="#0A94E3" fill-rule="nonzero"></path>
                            <circle id="Oval" fill="#C2E4F8" fill-rule="nonzero" cx="33.4712644" cy="22.5931034" r="5.02068966"></circle>
                            <path d="M33.4712644,28.4505747 C30.2414017,28.4505747 27.6137931,25.8225575 27.6137931,22.5931034 C27.6137931,19.3636494 30.2414017,16.7356322 33.4712644,16.7356322 C36.701127,16.7356322 39.3287356,19.3636494 39.3287356,22.5931034 C39.3287356,25.8225575 36.701127,28.4505747 33.4712644,28.4505747 Z M33.4712644,18.4091954 C31.1643948,18.4091954 29.2873563,20.2862339 29.2873563,22.5931034 C29.2873563,24.899973 31.1643948,26.7770115 33.4712644,26.7770115 C35.7781339,26.7770115 37.6551724,24.899973 37.6551724,22.5931034 C37.6551724,20.2862339 35.7781339,18.4091954 33.4712644,18.4091954 Z" id="Shape" fill="#0A94E3" fill-rule="nonzero"></path>
                            <circle id="Oval" fill="#C2E4F8" fill-rule="nonzero" cx="24.2666667" cy="39.3287356" r="5.02068966"></circle>
                            <path d="M24.2666667,45.1862069 C21.036804,45.1862069 18.4091954,42.5581897 18.4091954,39.3287356 C18.4091954,36.0992816 21.036804,33.4712644 24.2666667,33.4712644 C27.4965293,33.4712644 30.1241379,36.0992816 30.1241379,39.3287356 C30.1241379,42.5581897 27.4965293,45.1862069 24.2666667,45.1862069 Z M24.2666667,35.1448276 C21.9597971,35.1448276 20.0827586,37.0218661 20.0827586,39.3287356 C20.0827586,41.6356052 21.9597971,43.5126437 24.2666667,43.5126437 C26.5735362,43.5126437 28.4505747,41.6356052 28.4505747,39.3287356 C28.4505747,37.0218661 26.5735362,35.1448276 24.2666667,35.1448276 Z" id="Shape" fill="#0A94E3" fill-rule="nonzero"></path>
                        </g>
                    </g>
                </g>
            </g>
        </g>
    </g>
</svg>