<?xml version="1.0" encoding="UTF-8"?>
<svg width="60px" height="73px" viewBox="0 0 60 73" version="1.1" xmlns="http://www.w3.org/2000/svg" xmlns:xlink="http://www.w3.org/1999/xlink">
    <!-- Generator: Sketch 61.2 (89653) - https://sketch.com -->
    <title>university-icon</title>
    <desc>Created with Sketch.</desc>
    <g id="Tokens" stroke="none" stroke-width="1" fill="none" fill-rule="evenodd">
        <g id="3-Column-CTA-Row" transform="translate(-999.000000, -186.000000)">
            <g id="Benefits" transform="translate(0.000000, 7.000000)">
                <g id="Benefits-Card-Copy" transform="translate(985.000000, 179.000000)">
                    <g id="university-icon" transform="translate(14.000000, 0.000000)">
                        <g id="iconfinder_008_022_school_chime_building_1276138">
                            <path d="M1.0000514,71.0300007 L1.0000514,45.0300007 C1.0000514,42.8209 2.7909487,41.0300007 5.0000514,41.0300007 L17.0000514,41.0300007 L17.0000514,71.0300007 L1.0000514,71.0300007 Z" id="Path" fill="#FFFFFF" fill-rule="nonzero"></path>
                            <path d="M17,72.0297852 L1,72.0297852 C0.4477539,72.0297852 0,71.5820313 0,71.0297852 L0,45.0297852 C0,42.2729493 2.2431641,40.0297852 5,40.0297852 L17,40.0297852 C17.5522461,40.0297852 18,40.4775391 18,41.0297852 L18,71.0297852 C18,71.5820312 17.5522461,72.0297852 17,72.0297852 Z M2,70.0297852 L16,70.0297852 L16,42.0297852 L5,42.0297852 C3.3457031,42.0297852 2,43.3754883 2,45.0297852 L2,70.0297852 Z" id="Shape" fill="#0A94E3" fill-rule="nonzero"></path>
                            <path d="M59.0000496,71.0300007 L59.0000496,45.0300007 C59.0000496,42.8209 57.2091484,41.0300007 55.0000496,41.0300007 L43.0000496,41.0300007 L43.0000496,71.0300007 L59.0000496,71.0300007 Z" id="Path" fill="#FFFFFF" fill-rule="nonzero"></path>
                            <path d="M59,72.0297852 L43,72.0297852 C42.4477539,72.0297852 42,71.5820313 42,71.0297852 L42,41.0297852 C42,40.4775391 42.4477539,40.0297852 43,40.0297852 L55,40.0297852 C57.7568359,40.0297852 60,42.2729493 60,45.0297852 L60,71.0297852 C60,71.5820312 59.5522461,72.0297852 59,72.0297852 Z M44,70.0297852 L58,70.0297852 L58,45.0297852 C58,43.3754883 56.6542969,42.0297852 55,42.0297852 L44,42.0297852 L44,70.0297852 Z" id="Shape" fill="#0A94E3" fill-rule="nonzero"></path>
                            <rect id="Rectangle" fill="#FFFFFF" fill-rule="nonzero" x="17.0000515" y="21.0299997" width="26" height="50"></rect>
                            <path d="M43,72.0297852 L17,72.0297852 C16.4477539,72.0297852 16,71.5820313 16,71.0297852 L16,21.0297852 C16,20.4775391 16.4477539,20.0297852 17,20.0297852 L43,20.0297852 C43.5522461,20.0297852 44,20.4775391 44,21.0297852 L44,71.0297852 C44,71.5820312 43.5522461,72.0297852 43,72.0297852 Z M18,70.0297852 L42,70.0297852 L42,22.0297852 L18,22.0297852 L18,70.0297852 Z" id="Shape" fill="#0A94E3" fill-rule="nonzero"></path>
                            <rect id="Rectangle" fill="#C2E4F8" fill-rule="nonzero" x="17.0000515" y="17.0300002" width="26" height="4"></rect>
                            <path d="M43,22.0297852 L17,22.0297852 C16.4477539,22.0297852 16,21.5820313 16,21.0297852 L16,17.0297852 C16,16.4775391 16.4477539,16.0297852 17,16.0297852 L43,16.0297852 C43.5522461,16.0297852 44,16.4775391 44,17.0297852 L44,21.0297852 C44,21.5820312 43.5522461,22.0297852 43,22.0297852 Z M18,20.0297852 L42,20.0297852 L42,18.0297852 L18,18.0297852 L18,20.0297852 Z" id="Shape" fill="#0A94E3" fill-rule="nonzero"></path>
                            <rect id="Rectangle" fill="#C2E4F8" fill-rule="nonzero" x="21.0000515" y="55.0299988" width="18" height="16"></rect>
                            <path d="M39,72.0297852 L21,72.0297852 C20.4477539,72.0297852 20,71.5820313 20,71.0297852 L20,55.0297852 C20,54.4775391 20.4477539,54.0297852 21,54.0297852 L39,54.0297852 C39.5522461,54.0297852 40,54.4775391 40,55.0297852 L40,71.0297852 C40,71.5820312 39.5522461,72.0297852 39,72.0297852 Z M22,70.0297852 L38,70.0297852 L38,56.0297852 L22,56.0297852 L22,70.0297852 Z" id="Shape" fill="#0A94E3" fill-rule="nonzero"></path>
                            <path d="M30,72.0297852 C29.4477539,72.0297852 29,71.5820313 29,71.0297852 L29,55.0297852 C29,54.4775391 29.4477539,54.0297852 30,54.0297852 C30.5522461,54.0297852 31,54.4775391 31,55.0297852 L31,71.0297852 C31,71.5820312 30.5522461,72.0297852 30,72.0297852 Z" id="Path" fill="#0A94E3" fill-rule="nonzero"></path>
                            <path d="M27,64.0800781 C26.4477539,64.0800781 25.9501953,63.5820312 25.9501953,63.0297851 C25.9501953,62.477539 26.4477539,61.9799805 27,61.9799805 C27.5522461,61.9799805 28.050293,62.4775391 28.050293,63.0297852 C28.050293,63.5820313 27.5522461,64.0800781 27,64.0800781 Z" id="Path" fill="#0A94E3" fill-rule="nonzero"></path>
                            <path d="M33,64.0800781 C32.4477539,64.0800781 31.9501953,63.5820312 31.9501953,63.0297851 C31.9501953,62.477539 32.4477539,61.9799805 33,61.9799805 C33.5522461,61.9799805 34.050293,62.4775391 34.050293,63.0297852 C34.050293,63.5820313 33.5522461,64.0800781 33,64.0800781 Z" id="Path" fill="#0A94E3" fill-rule="nonzero"></path>
                            <path d="M45,22.0297852 L15,22.0297852 C14.4477539,22.0297852 14,21.5820313 14,21.0297852 C14,20.4775391 14.4477539,20.0297852 15,20.0297852 L45,20.0297852 C45.5522461,20.0297852 46,20.4775391 46,21.0297852 C46,21.5820313 45.5522461,22.0297852 45,22.0297852 Z" id="Path" fill="#0A94E3" fill-rule="nonzero"></path>
                            <path d="M45,18.0297852 L15,18.0297852 C14.4477539,18.0297852 14,17.5820313 14,17.0297852 C14,16.4775391 14.4477539,16.0297852 15,16.0297852 L45,16.0297852 C45.5522461,16.0297852 46,16.4775391 46,17.0297852 C46,17.5820313 45.5522461,18.0297852 45,18.0297852 Z" id="Path" fill="#0A94E3" fill-rule="nonzero"></path>
                            <rect id="Rectangle" fill="#C2E4F8" fill-rule="nonzero" x="5.0000515" y="45.0299988" width="8" height="18"></rect>
                            <path d="M13,64.0297852 L5,64.0297852 C4.4477539,64.0297852 4,63.5820313 4,63.0297852 L4,45.0297852 C4,44.4775391 4.4477539,44.0297852 5,44.0297852 L13,44.0297852 C13.5522461,44.0297852 14,44.4775391 14,45.0297852 L14,63.0297852 C14,63.5820312 13.5522461,64.0297852 13,64.0297852 Z M6,62.0297852 L12,62.0297852 L12,46.0297852 L6,46.0297852 L6,62.0297852 Z" id="Shape" fill="#0A94E3" fill-rule="nonzero"></path>
                            <rect id="Rectangle" fill="#C2E4F8" fill-rule="nonzero" x="1.0000514" y="67.0299988" width="16" height="4"></rect>
                            <path d="M17,72.0297852 L1,72.0297852 C0.4477539,72.0297852 0,71.5820313 0,71.0297852 L0,67.0297852 C0,66.4775391 0.4477539,66.0297852 1,66.0297852 L17,66.0297852 C17.5522461,66.0297852 18,66.4775391 18,67.0297852 L18,71.0297852 C18,71.5820312 17.5522461,72.0297852 17,72.0297852 Z M2,70.0297852 L16,70.0297852 L16,68.0297852 L2,68.0297852 L2,70.0297852 Z" id="Shape" fill="#0A94E3" fill-rule="nonzero"></path>
                            <path d="M13,52.0297852 L5,52.0297852 C4.4477539,52.0297852 4,51.5820313 4,51.0297852 C4,50.4775391 4.4477539,50.0297852 5,50.0297852 L13,50.0297852 C13.5522461,50.0297852 14,50.4775391 14,51.0297852 C14,51.5820313 13.5522461,52.0297852 13,52.0297852 Z" id="Path" fill="#0A94E3" fill-rule="nonzero"></path>
                            <path d="M13,58.0297852 L5,58.0297852 C4.4477539,58.0297852 4,57.5820313 4,57.0297852 C4,56.4775391 4.4477539,56.0297852 5,56.0297852 L13,56.0297852 C13.5522461,56.0297852 14,56.4775391 14,57.0297852 C14,57.5820313 13.5522461,58.0297852 13,58.0297852 Z" id="Path" fill="#0A94E3" fill-rule="nonzero"></path>
                            <rect id="Rectangle" fill="#C2E4F8" fill-rule="nonzero" x="43.0000496" y="67.0299988" width="16" height="4"></rect>
                            <path d="M59,72.0297852 L43,72.0297852 C42.4477539,72.0297852 42,71.5820313 42,71.0297852 L42,67.0297852 C42,66.4775391 42.4477539,66.0297852 43,66.0297852 L59,66.0297852 C59.5522461,66.0297852 60,66.4775391 60,67.0297852 L60,71.0297852 C60,71.5820312 59.5522461,72.0297852 59,72.0297852 Z M44,70.0297852 L58,70.0297852 L58,68.0297852 L44,68.0297852 L44,70.0297852 Z" id="Shape" fill="#0A94E3" fill-rule="nonzero"></path>
                            <path d="M59,72.0297852 L1,72.0297852 C0.4477539,72.0297852 0,71.5820313 0,71.0297852 C0,70.4775391 0.4477539,70.0297852 1,70.0297852 L59,70.0297852 C59.5522461,70.0297852 60,70.4775391 60,71.0297852 C60,71.5820313 59.5522461,72.0297852 59,72.0297852 Z" id="Path" fill="#0A94E3" fill-rule="nonzero"></path>
                            <rect id="Rectangle" fill="#C2E4F8" fill-rule="nonzero" x="47.0000496" y="45.0299988" width="8" height="18"></rect>
                            <path d="M55,64.0297852 L47,64.0297852 C46.4477539,64.0297852 46,63.5820313 46,63.0297852 L46,45.0297852 C46,44.4775391 46.4477539,44.0297852 47,44.0297852 L55,44.0297852 C55.5522461,44.0297852 56,44.4775391 56,45.0297852 L56,63.0297852 C56,63.5820312 55.5522461,64.0297852 55,64.0297852 Z M48,62.0297852 L54,62.0297852 L54,46.0297852 L48,46.0297852 L48,62.0297852 Z" id="Shape" fill="#0A94E3" fill-rule="nonzero"></path>
                            <path d="M55,52.0297852 L47,52.0297852 C46.4477539,52.0297852 46,51.5820313 46,51.0297852 C46,50.4775391 46.4477539,50.0297852 47,50.0297852 L55,50.0297852 C55.5522461,50.0297852 56,50.4775391 56,51.0297852 C56,51.5820313 55.5522461,52.0297852 55,52.0297852 Z" id="Path" fill="#0A94E3" fill-rule="nonzero"></path>
                            <path d="M55,58.0297852 L47,58.0297852 C46.4477539,58.0297852 46,57.5820313 46,57.0297852 C46,56.4775391 46.4477539,56.0297852 47,56.0297852 L55,56.0297852 C55.5522461,56.0297852 56,56.4775391 56,57.0297852 C56,57.5820313 55.5522461,58.0297852 55,58.0297852 Z" id="Path" fill="#0A94E3" fill-rule="nonzero"></path>
                            <path d="M30,18.0297852 C29.4477539,18.0297852 29,17.5820313 29,17.0297852 L29,13.0297852 C29,12.4775391 29.4477539,12.0297852 30,12.0297852 C30.5522461,12.0297852 31,12.4775391 31,13.0297852 L31,17.0297852 C31,17.5820312 30.5522461,18.0297852 30,18.0297852 Z" id="Path" fill="#0A94E3" fill-rule="nonzero"></path>
                            <path d="M30,16 C29.4477539,16 29,15.5522461 29,15 L29,1 C29,0.4477539 29.4477539,0 30,0 C30.5522461,0 31,0.4477539 31,1 L31,15 C31,15.552246 30.5522461,16 30,16 Z" id="Path" fill="#0A94E3" fill-rule="nonzero"></path>
                            <rect id="Rectangle" fill="#C2E4F8" fill-rule="nonzero" x="30" y="3.0002148" width="6" height="6"></rect>
                            <path d="M36,10 L30,10 C29.4477539,10 29,9.5522461 29,9 L29,3 C29,2.4477539 29.4477539,2 30,2 L36,2 C36.5522461,2 37,2.4477539 37,3 L37,9 C37,9.552246 36.5522461,10 36,10 Z M31,8 L35,8 L35,4 L31,4 L31,8 Z" id="Shape" fill="#0A94E3" fill-rule="nonzero"></path>
                            <rect id="Rectangle" fill="#C2E4F8" fill-rule="nonzero" x="36" y="5.000215" width="6" height="6"></rect>
                            <path d="M42,12 L36,12 C35.4477539,12 35,11.5522461 35,11 L35,5 C35,4.4477539 35.4477539,4 36,4 L42,4 C42.5522461,4 43,4.4477539 43,5 L43,11 C43,11.552246 42.5522461,12 42,12 Z M37,10 L41,10 L41,6 L37,6 L37,10 Z" id="Shape" fill="#0A94E3" fill-rule="nonzero"></path>
                            <circle id="Oval" fill="#C2E4F8" fill-rule="nonzero" cx="30.0000515" cy="34.0300007" r="7"></circle>
                            <path d="M30,42.0297852 C25.5888672,42.0297852 22,38.440918 22,34.0297852 C22,29.6186524 25.5888672,26.0297852 30,26.0297852 C34.4111328,26.0297852 38,29.6186524 38,34.0297852 C38,38.440918 34.4111328,42.0297852 30,42.0297852 Z M30,28.0297852 C26.6914062,28.0297852 24,30.7211914 24,34.0297852 C24,37.338379 26.6914062,40.0297852 30,40.0297852 C33.3085938,40.0297852 36,37.338379 36,34.0297852 C36,30.7211914 33.3085938,28.0297852 30,28.0297852 Z" id="Shape" fill="#0A94E3" fill-rule="nonzero"></path>
                            <path d="M33,35.0297852 L30,35.0297852 C29.4477539,35.0297852 29,34.5820313 29,34.0297852 L29,31.0297852 C29,30.4775391 29.4477539,30.0297852 30,30.0297852 C30.5522461,30.0297852 31,30.4775391 31,31.0297852 L31,33.0297852 L33,33.0297852 C33.5522461,33.0297852 34,33.4775391 34,34.0297852 C34,34.5820313 33.5522461,35.0297852 33,35.0297852 Z" id="Path" fill="#0A94E3" fill-rule="nonzero"></path>
                        </g>
                    </g>
                </g>
            </g>
        </g>
    </g>
</svg>