<svg height="60" id="Layer_1" width="60" xmlns="http://www.w3.org/2000/svg"><style>.st0{fill:#c2e4f8}.st1{fill:#0a94e3}.st2{fill:#fff}</style><path class="st2" d="M51 33.03h8v26h-8z"/><path class="st1" d="M59 60.03h-8a1 1 0 0 1-1-1v-26a1 1 0 0 1 1-1h8a1 1 0 0 1 1 1v26a1 1 0 0 1-1 1zm-7-2h6v-24h-6v24z"/><path class="st0" d="M9 55.03h42v4H9z"/><path class="st1" d="M51 60.03H9a1 1 0 0 1-1-1v-4a1 1 0 0 1 1-1h42a1 1 0 0 1 1 1v4a1 1 0 0 1-1 1zm-41-2h40v-2H10v2z"/><path class="st0" d="M9 23.03h42v4H9z"/><path class="st1" d="M51 28.03H9a1 1 0 0 1-1-1v-4a1 1 0 0 1 1-1h42a1 1 0 0 1 1 1v4a1 1 0 0 1-1 1zm-41-2h40v-2H10v2z"/><path class="st2" d="M1 33.03h8v26H1z"/><path class="st1" d="M9 60.03H1a1 1 0 0 1-1-1v-26a1 1 0 0 1 1-1h8a1 1 0 0 1 1 1v26a1 1 0 0 1-1 1zm-7-2h6v-24H2v24z"/><path class="st0" d="M9 27.03h42v28H9z"/><path class="st1" d="M51 56.03H9a1 1 0 0 1-1-1v-28a1 1 0 0 1 1-1h42a1 1 0 0 1 1 1v28a1 1 0 0 1-1 1zm-41-2h40v-26H10v26z"/><path class="st1" d="M21 55.53a1 1 0 0 1-1-1v-27a1 1 0 1 1 2 0v27a1 1 0 0 1-1 1zm-6 0a1 1 0 0 1-1-1v-27.5a1 1 0 1 1 2 0v27.5a1 1 0 0 1-1 1zm12 0a1 1 0 0 1-1-1v-27a1 1 0 1 1 2 0v27a1 1 0 0 1-1 1zm6 0a1 1 0 0 1-1-1v-27a1 1 0 1 1 2 0v27a1 1 0 0 1-1 1zm6 0a1 1 0 0 1-1-1v-27a1 1 0 1 1 2 0v27a1 1 0 0 1-1 1zm6 0a1 1 0 0 1-1-1v-27a1 1 0 1 1 2 0v27a1 1 0 0 1-1 1z"/><path class="st0" d="M1 55.03h8v4H1z"/><path class="st1" d="M9 60.03H1a1 1 0 0 1-1-1v-4a1 1 0 0 1 1-1h8a1 1 0 0 1 1 1v4a1 1 0 0 1-1 1zm-7-2h6v-2H2v2z"/><path class="st0" d="M51 55.03h8v4h-8z"/><path class="st1" d="M59 60.03h-8a1 1 0 0 1-1-1v-4a1 1 0 0 1 1-1h8a1 1 0 0 1 1 1v4a1 1 0 0 1-1 1zm-7-2h6v-2h-6v2z"/><path class="st2" d="M30 5.03l-23 14v4h46v-4z"/><path class="st1" d="M53 24.03H7a1 1 0 0 1-1-1v-4c0-.35.182-.673.48-.854l23-14a.999.999 0 0 1 1.04 0l23 14c.298.18.48.505.48.854v4a1 1 0 0 1-1 1zm-45-2h44v-2.438L30 6.2 8 19.59v2.439z"/><path class="st0" d="M30 9.53l-16 9.5h32z"/><path class="st1" d="M46 20.03H14a1 1 0 0 1-.51-1.86l16-9.5a1.002 1.002 0 0 1 1.02 0l16 9.5a1 1 0 0 1-.51 1.86zm-28.357-2h24.714L30 10.693 17.643 18.03z"/></svg>