<svg id="Layer_1" xmlns="http://www.w3.org/2000/svg" viewBox="0 0 213 77"><style>.st2{fill:none}.st57{fill:#e1c982}.st144{fill:#99add2;stroke:#dbe0ee;stroke-width:.0221}</style><g id="Tokens"><g id="header-_x28_desktop_x29_" transform="translate(-272 -87)"><g id="header"><g id="main-nav" transform="translate(268 83)"><g id="logo-lockup-2"><path id="IUCRC" d="M116.96 56.4V30.32h-5.88V56.4h5.88zm16.44.48c3.36 0 5.91-1 7.66-3s2.62-5.19 2.62-9.56v-14H138v14.6c0 2.56-.4 4.35-1.2 5.36-.8 1.01-1.93 1.52-3.4 1.52s-2.59-.51-3.36-1.52-1.16-2.8-1.16-5.36v-14.6h-5.92v14c0 4.37.89 7.56 2.68 9.56s4.37 3 7.76 3zm27.2 0c3.44 0 6.25-1.28 8.44-3.84l-3.12-3.68c-.64.69-1.38 1.27-2.22 1.74-.84.47-1.79.7-2.86.7-1.92 0-3.45-.74-4.6-2.22-1.15-1.48-1.72-3.57-1.72-6.26 0-1.31.17-2.48.5-3.52.33-1.04.79-1.92 1.36-2.64s1.25-1.27 2.04-1.66 1.62-.58 2.5-.58c.93 0 1.77.19 2.5.58s1.43.89 2.1 1.5l3.12-3.76c-.88-.91-1.99-1.7-3.32-2.38-1.33-.68-2.84-1.02-4.52-1.02-1.65 0-3.23.31-4.72.92s-2.8 1.51-3.92 2.68c-1.12 1.17-2.01 2.61-2.68 4.3-.67 1.69-1 3.62-1 5.78 0 2.19.32 4.11.96 5.78.64 1.67 1.51 3.06 2.62 4.18a10.95 10.95 0 0 0 3.86 2.54c1.47.57 3.03.86 4.68.86zm18.28-.48V47h3.24l5 9.4h6.6l-5.92-10.44c1.41-.61 2.54-1.54 3.38-2.78.84-1.24 1.26-2.82 1.26-4.74 0-1.55-.27-2.84-.8-3.88s-1.25-1.87-2.16-2.5c-.91-.63-1.97-1.07-3.18-1.34-1.21-.27-2.51-.4-3.9-.4H173V56.4h5.88zm3.04-14.08h-3.04V35h3.04c1.55 0 2.73.25 3.54.76s1.22 1.4 1.22 2.68c0 1.28-.41 2.25-1.22 2.9-.81.65-1.99.98-3.54.98zm26.48 14.56c3.44 0 6.25-1.28 8.44-3.84l-3.12-3.68c-.64.69-1.38 1.27-2.22 1.74-.84.47-1.79.7-2.86.7-1.92 0-3.45-.74-4.6-2.22-1.15-1.48-1.72-3.57-1.72-6.26 0-1.31.17-2.48.5-3.52.33-1.04.79-1.92 1.36-2.64.57-.72 1.25-1.27 2.04-1.66s1.62-.58 2.5-.58c.93 0 1.77.19 2.5.58s1.43.89 2.1 1.5l3.12-3.76c-.88-.91-1.99-1.7-3.32-2.38-1.33-.68-2.84-1.02-4.52-1.02-1.65 0-3.23.31-4.72.92s-2.8 1.51-3.92 2.68c-1.12 1.17-2.01 2.61-2.68 4.3-.67 1.69-1 3.62-1 5.78 0 2.19.32 4.11.96 5.78.64 1.67 1.51 3.06 2.62 4.18a10.95 10.95 0 0 0 3.86 2.54c1.47.57 3.03.86 4.68.86z" fill="#171717"/><path id="Line" fill="none" stroke="#a8a8a8" stroke-linecap="square" d="M96.5 21.5v45"/></g></g></g></g></g><path class="st2" d="M51.29 63.46c.26.81.46 1.84 1.3 2.19l.52.13c1.03-.26 1.94-.85 2.8-1.4.87-.69 1.97-1.6 2.22-2.63.03-.77-.57-1.25-1.12-1.71-1.96-1.37-4.05-2.5-6.25-3.36-.03.03-.07.04-.1.07-.16 2.28.3 4.47.63 6.71zm13.88-16.48c.75.38 1.62.97 2.46.65l.46-.26c.46-.78.69-1.65.88-2.5.01-.07.01-.15.03-.21.12-1.13.32-2.72-.26-3.69-.52-.56-1.3-.49-2-.41-.26.04-.54.1-.81.15a40.9 40.9 0 0 1-4.53 3.44c1.18 1 2.49 1.89 3.77 2.83zm-5.34 9.7c.54.65 1.13 1.53 2.03 1.53l.53-.07c.79-.6 1.38-1.41 1.93-2.19.01-.03.03-.06.06-.09.54-1 1.34-2.38 1.18-3.52-.26-.71-1-.94-1.69-1.15-2.31-.52-4.67-.75-7.01-.71-.06.09-.12.18-.18.28.71 2.12 1.97 3.97 3.15 5.92zM16.58 44.89c-.65.62-1.24 1.34-1.87 2.05-.21.69-1.4 1.34-.62 2.06 1.71.29 3.4.38 5.12.26-.68-1.21-1.25-2.49-1.69-3.83-.33-.17-.63-.35-.94-.54zm35.41 10.9c1 .59 2.19.93 3.37 1.34.72-.07 1.77.78 2.15-.22-.4-1.72-.96-3.34-1.75-4.9a22.852 22.852 0 0 1-3.77 3.78zm-16.15 4.55c.29 1.12.9 2.18 1.43 3.31.56.46.69 1.81 1.68 1.35.94-1.49 1.68-3.03 2.24-4.69-.91.12-1.84.18-2.78.18-.88 0-1.73-.05-2.57-.15zm-14.73-8.21c-.57.99-.9 2.15-1.31 3.31.07.71-.78 1.77.22 2.15 1.69-.38 3.3-.94 4.84-1.72a24.115 24.115 0 0 1-3.75-3.74zm8.68 13.1c-.38.75-.97 1.62-.65 2.46l.26.46c.99.57 2.12.81 3.16 1.03 1.09.12 2.49.24 3.37-.29.56-.52.49-1.3.41-2a29.64 29.64 0 0 0-2.03-6.76c-.1-.01-.21-.04-.31-.06-1.65 1.48-2.87 3.35-4.21 5.16zM10.42 40.66c-.84-.07-1.87-.28-2.52.35l-.32.41c-.16 1.24.12 2.46.31 3.59.31.99.72 2.13 1.47 2.69.69.32 1.38-.04 2-.38a31.58 31.58 0 0 0 4.11-3.13 40.213 40.213 0 0 1-4.5-3.4c-.18-.04-.35-.08-.55-.13zm2.99 10.59c-.81.25-1.84.46-2.19 1.28l-.13.52c.29 1.15.97 2.13 1.57 3.06.68.84 1.55 1.84 2.52 2.09.77.03 1.25-.56 1.71-1.12 1.35-1.93 2.47-4 3.33-6.18-.07-.1-.15-.21-.21-.31-2.23-.12-4.39.32-6.6.66z"/><path class="st2" d="M18.64 46.06C21.68 54 29.38 59.63 38.39 59.63S55.09 54 58.14 46.06C52.25 49.21 45.53 51 38.39 51s-13.87-1.79-19.75-4.94zm22.12 20.43c-.07.84-.28 1.87.35 2.52l.41.32c1.07.15 2.13-.04 3.15-.24 1.07-.31 2.46-.74 3.09-1.59.32-.69-.04-1.38-.38-2-1.28-2-2.78-3.86-4.47-5.47-.07.01-.13.03-.21.04-.99 2.02-1.4 4.23-1.94 6.42z"/><path class="st2" d="M20.27 59.91c-.65.54-1.52 1.13-1.53 2.03l.06.52c.72.96 1.75 1.62 2.66 2.25.93.49 2.03 1.02 2.96.88.71-.26.94-1 1.15-1.69.52-2.33.77-4.68.71-7.03-.06-.03-.1-.07-.16-.1-2.1.73-3.94 1.98-5.85 3.14zm37.35-10.74c1.13.16 2.34.01 3.58-.06.63-.34 1.94.04 1.9-1.03a21.37 21.37 0 0 0-2.81-3.25c-.34.21-.68.41-1.02.6-.43 1.31-.99 2.56-1.65 3.74zm-29.96 12.1c.34.63-.04 1.94 1.03 1.9 1.43-1.02 2.69-2.15 3.84-3.46-1.74-.49-3.38-1.16-4.93-2.03-.16 1.13-.02 2.35.06 3.59zm19.32.91c.69.21 1.34 1.4 2.06.62.29-1.74.4-3.46.26-5.2a22.46 22.46 0 0 1-4.93 2.08c.73.91 1.68 1.66 2.61 2.5z"/><radialGradient id="SVGID_1_" cx="15.745" cy="71.137" r="77.047" gradientTransform="matrix(1 0 0 -1 0 78)" gradientUnits="userSpaceOnUse"><stop offset="0" stop-color="#e7d298"/><stop offset="1" stop-color="#c4a006"/></radialGradient><path d="M7.51 43.62c.06.25.12.52.19.77.06.19.12.41.19.63-.21-1.13-.49-2.37-.31-3.59l.32-.41c.65-.63 1.68-.41 2.52-.35.18.04.37.09.54.13a41.903 41.903 0 0 1-5.52-5.78c-.01.04-.04.09-.06.15-1.3 1.96-3.3 2.44-5.42 2.37-.01.62-.01 1.38-.01 1.9 2.38-.13 4.86.68 5.95 3.12.22.57.43 1.16.62 1.75-.01-.19-.04-.38-.07-.56l1.06-.13z" fill="url(#SVGID_1_)"/><radialGradient id="SVGID_2_" cx="15.745" cy="71.135" r="77.041" gradientTransform="matrix(1 0 0 -1 0 78)" gradientUnits="userSpaceOnUse"><stop offset="0" stop-color="#e7d298"/><stop offset="1" stop-color="#c4a006"/></radialGradient><path d="M11.9 55.13c.15.22.31.43.47.63.09.12.19.22.28.35-.6-.93-1.28-1.93-1.57-3.06l.13-.52c.35-.82 1.38-1.03 2.19-1.28 2.21-.34 4.37-.79 6.59-.66-.28-.43-.54-.87-.79-1.31-1.72.12-3.41.03-5.12-.26-.79-.74.41-1.38.62-2.06.63-.71 1.22-1.44 1.87-2.05-.37-.22-.74-.46-1.09-.69a29.126 29.126 0 0 1-4.11 3.13c-.63.34-1.32.69-2 .38-.75-.56-1.16-1.69-1.47-2.69.03.13.04.26.07.4l-1.03.31c-.12-.49-.26-.96-.41-1.41.15 1.32.15 2.63.13 3.78-.44 2.3-2.1 3.52-4.11 4.27l.72 1.77c2.15-1.04 4.74-1.22 6.7.6.46.49.9.99 1.32 1.49-.1-.19-.21-.38-.32-.57l.93-.55z" fill="url(#SVGID_2_)"/><radialGradient id="SVGID_3_" cx="15.745" cy="71.137" r="77.047" gradientTransform="matrix(1 0 0 -1 0 78)" gradientUnits="userSpaceOnUse"><stop offset="0" stop-color="#e7d298"/><stop offset="1" stop-color="#c4a006"/></radialGradient><path d="M7.97 45.42c-.01-.13-.04-.26-.07-.4-.07-.22-.13-.43-.19-.63-.07-.25-.13-.52-.19-.77l-1.06.12c.03.19.04.38.07.56.15.47.29.94.41 1.41l1.03-.29z" fill="url(#SVGID_3_)"/><radialGradient id="SVGID_4_" cx="15.745" cy="71.135" r="77.041" gradientTransform="matrix(1 0 0 -1 0 78)" gradientUnits="userSpaceOnUse"><stop offset="0" stop-color="#e7d298"/><stop offset="1" stop-color="#c4a006"/></radialGradient><path d="M7.97 45.42c-.01-.13-.04-.26-.07-.4-.07-.22-.13-.43-.19-.63-.07-.25-.13-.52-.19-.77l-1.06.12c.03.19.04.38.07.56.15.47.29.94.41 1.41l1.03-.29z" fill="url(#SVGID_4_)"/><radialGradient id="SVGID_5_" cx="15.745" cy="71.133" r="77.038" gradientTransform="matrix(1 0 0 -1 0 78)" gradientUnits="userSpaceOnUse"><stop offset="0" stop-color="#e7d298"/><stop offset="1" stop-color="#c4a006"/></radialGradient><path d="M20.23 64c.22.15.44.28.68.41.18.09.35.19.56.29-.93-.63-1.94-1.3-2.66-2.25l-.06-.52c.01-.9.88-1.49 1.53-2.03 1.93-1.16 3.75-2.41 5.86-3.15-.43-.28-.84-.59-1.25-.9-1.55.77-3.15 1.34-4.84 1.72-1.02-.37-.15-1.43-.22-2.15.41-1.16.74-2.33 1.31-3.31-.31-.4-.62-.81-.9-1.22a29.05 29.05 0 0 1-3.33 6.18c-.46.56-.96 1.15-1.71 1.12-.97-.25-1.84-1.25-2.52-2.09.1.16.21.32.29.47l-.84.68c-.26-.35-.54-.71-.84-1.04.62 1.15 1.12 2.33 1.52 3.36.47 2.3-.6 4.05-2.16 5.5.44.44.97.99 1.34 1.35 1.59-1.78 3.91-2.94 6.42-2 .56.25 1.1.52 1.65.79-.16-.13-.32-.26-.5-.38l.67-.83z" fill="url(#SVGID_5_)"/><radialGradient id="SVGID_6_" cx="15.745" cy="71.135" r="77.041" gradientTransform="matrix(1 0 0 -1 0 78)" gradientUnits="userSpaceOnUse"><stop offset="0" stop-color="#e7d298"/><stop offset="1" stop-color="#c4a006"/></radialGradient><path d="M12.96 56.59c-.1-.16-.19-.31-.29-.47-.1-.12-.19-.24-.28-.35-.18-.21-.32-.43-.47-.63l-.94.52c.12.19.22.38.32.57.28.34.56.69.84 1.04-.01-.01.82-.68.82-.68z" fill="url(#SVGID_6_)"/><radialGradient id="SVGID_7_" cx="15.745" cy="71.133" r="77.038" gradientTransform="matrix(1 0 0 -1 0 78)" gradientUnits="userSpaceOnUse"><stop offset="0" stop-color="#e7d298"/><stop offset="1" stop-color="#c4a006"/></radialGradient><path d="M12.96 56.59c-.1-.16-.19-.31-.29-.47-.1-.12-.19-.24-.28-.35-.18-.21-.32-.43-.47-.63l-.94.52c.12.19.22.38.32.57.28.34.56.69.84 1.04-.01-.01.82-.68.82-.68z" fill="url(#SVGID_7_)"/><radialGradient id="SVGID_8_" cx="15.745" cy="71.135" r="77.041" gradientTransform="matrix(1 0 0 -1 0 78)" gradientUnits="userSpaceOnUse"><stop offset="0" stop-color="#e7d298"/><stop offset="1" stop-color="#c4a006"/></radialGradient><path d="M31.46 69.02c.26.04.52.09.78.12.1.01.22.03.32.03-1.04-.22-2.18-.46-3.16-1.03l-.26-.46c-.34-.84.25-1.71.65-2.46 1.34-1.82 2.56-3.68 4.24-5.17-.52-.1-1.02-.22-1.5-.35a21.398 21.398 0 0 1-3.84 3.46c-1.07.04-.69-1.27-1.03-1.9-.07-1.25-.22-2.46-.06-3.61-.44-.25-.88-.52-1.31-.79.04 2.35-.19 4.72-.71 7.03-.21.69-.44 1.43-1.15 1.69-.93.13-2.05-.38-2.96-.88.15.1.28.21.43.29l-.52.94c-.43-.26-.87-.5-1.32-.72 1.02.82 1.93 1.72 2.71 2.55 1.31 1.94 1 3.97.12 5.92.57.25 1.27.53 1.75.74.78-2.27 2.49-4.22 5.17-4.3.68.01 1.37.06 2.05.12-.24-.07-.46-.13-.69-.19l.29-1.03z" fill="url(#SVGID_8_)"/><radialGradient id="SVGID_9_" cx="15.745" cy="71.133" r="77.039" gradientTransform="matrix(1 0 0 -1 0 78)" gradientUnits="userSpaceOnUse"><stop offset="0" stop-color="#e7d298"/><stop offset="1" stop-color="#c4a006"/></radialGradient><path d="M21.89 65.02c-.13-.1-.28-.21-.43-.29-.19-.1-.38-.21-.56-.29a7.66 7.66 0 0 1-.68-.41l-.68.84c.16.13.34.25.5.38.44.24.88.47 1.32.72l.53-.95z" fill="url(#SVGID_9_)"/><radialGradient id="SVGID_10_" cx="15.745" cy="71.135" r="77.041" gradientTransform="matrix(1 0 0 -1 0 78)" gradientUnits="userSpaceOnUse"><stop offset="0" stop-color="#e7d298"/><stop offset="1" stop-color="#c4a006"/></radialGradient><path d="M21.89 65.02c-.13-.1-.28-.21-.43-.29-.19-.1-.38-.21-.56-.29a7.66 7.66 0 0 1-.68-.41l-.68.84c.16.13.34.25.5.38.44.24.88.47 1.32.72l.53-.95z" fill="url(#SVGID_10_)"/><radialGradient id="SVGID_11_" cx="15.747" cy="71.137" r="77.043" gradientTransform="matrix(1 0 0 -1 0 78)" gradientUnits="userSpaceOnUse"><stop offset="0" stop-color="#e7d298"/><stop offset="1" stop-color="#c4a006"/></radialGradient><path d="M43.67 69.36c.25-.06.52-.12.78-.19.07-.01.15-.04.22-.06-1 .19-2.08.38-3.15.24l-.41-.32c-.63-.65-.41-1.68-.35-2.52.54-2.21.96-4.4 1.94-6.42-.5.1-1.02.19-1.53.25-.54 1.66-1.3 3.21-2.24 4.69-.97.46-1.12-.91-1.68-1.35-.54-1.12-1.15-2.18-1.43-3.31-.52-.06-1.02-.13-1.5-.22.94 2.15 1.62 4.43 2.03 6.76.07.71.15 1.49-.41 2-.88.53-2.28.41-3.37.29.22.04.46.1.66.15l-.12 1.07c-.43-.06-.85-.12-1.28-.15 1.22.37 2.38.84 3.4 1.28 1.96 1.3 2.44 3.3 2.37 5.43.64.02 1.39.02 1.91.02-.13-2.38.68-4.86 3.12-5.95.65-.25 1.3-.47 1.96-.68-.26.03-.54.06-.81.09l-.11-1.1z" fill="url(#SVGID_11_)"/><radialGradient id="SVGID_12_" cx="15.745" cy="71.135" r="77.042" gradientTransform="matrix(1 0 0 -1 0 78)" gradientUnits="userSpaceOnUse"><stop offset="0" stop-color="#e7d298"/><stop offset="1" stop-color="#c4a006"/></radialGradient><path d="M33.24 69.33c-.22-.06-.44-.1-.66-.15-.12-.01-.22-.03-.32-.03-.26-.03-.53-.07-.78-.12l-.29 1.03c.24.06.46.12.69.19.43.04.85.09 1.28.15l.08-1.07z" fill="url(#SVGID_12_)"/><radialGradient id="SVGID_13_" cx="15.747" cy="71.137" r="77.043" gradientTransform="matrix(1 0 0 -1 0 78)" gradientUnits="userSpaceOnUse"><stop offset="0" stop-color="#e7d298"/><stop offset="1" stop-color="#c4a006"/></radialGradient><path d="M33.24 69.33c-.22-.06-.44-.1-.66-.15-.12-.01-.22-.03-.32-.03-.26-.03-.53-.07-.78-.12l-.29 1.03c.24.06.46.12.69.19.43.04.85.09 1.28.15l.08-1.07z" fill="url(#SVGID_13_)"/><radialGradient id="SVGID_14_" cx="15.745" cy="71.137" r="77.044" gradientTransform="matrix(1 0 0 -1 0 78)" gradientUnits="userSpaceOnUse"><stop offset="0" stop-color="#e7d298"/><stop offset="1" stop-color="#c4a006"/></radialGradient><path d="M55.05 65.03c.22-.15.43-.31.63-.47.06-.06.13-.1.21-.16-.85.54-1.75 1.13-2.8 1.4l-.52-.13c-.82-.35-1.03-1.38-1.3-2.19-.34-2.25-.79-4.44-.66-6.7-.43.29-.87.56-1.32.82.13 1.75.03 3.46-.26 5.2-.72.79-1.37-.41-2.06-.62-.93-.84-1.9-1.59-2.59-2.52-.49.13-.99.26-1.49.37 1.71 1.63 3.21 3.47 4.47 5.47.34.63.69 1.32.38 2-.63.85-2.03 1.27-3.09 1.59.29-.06.57-.1.85-.15l.29 1.03c-.41.1-.81.22-1.21.34 1.24-.12 2.46-.13 3.53-.1 2.3.44 3.52 2.1 4.27 4.11l1.77-.72c-1.04-2.15-1.22-4.74.62-6.7.49-.47 1-.91 1.52-1.35-.25.13-.49.26-.74.41l-.5-.93z" fill="url(#SVGID_14_)"/><radialGradient id="SVGID_15_" cx="15.747" cy="71.137" r="77.042" gradientTransform="matrix(1 0 0 -1 0 78)" gradientUnits="userSpaceOnUse"><stop offset="0" stop-color="#e7d298"/><stop offset="1" stop-color="#c4a006"/></radialGradient><path d="M45.52 68.95c-.28.04-.56.1-.85.15-.07.03-.15.04-.22.06-.26.07-.52.13-.78.19l.12 1.06c.26-.04.54-.07.81-.09.4-.12.81-.24 1.21-.34l-.29-1.03z" fill="url(#SVGID_15_)"/><radialGradient id="SVGID_16_" cx="15.745" cy="71.137" r="77.043" gradientTransform="matrix(1 0 0 -1 0 78)" gradientUnits="userSpaceOnUse"><stop offset="0" stop-color="#e7d298"/><stop offset="1" stop-color="#c4a006"/></radialGradient><path d="M45.52 68.95c-.28.04-.56.1-.85.15-.07.03-.15.04-.22.06-.26.07-.52.13-.78.19l.12 1.06c.26-.04.54-.07.81-.09.4-.12.81-.24 1.21-.34l-.29-1.03z" fill="url(#SVGID_16_)"/><radialGradient id="SVGID_17_" cx="15.745" cy="71.138" r="77.045" gradientTransform="matrix(1 0 0 -1 0 78)" gradientUnits="userSpaceOnUse"><stop offset="0" stop-color="#e7d298"/><stop offset="1" stop-color="#c4a006"/></radialGradient><path d="M63.95 56.54c.12-.19.24-.38.35-.59-.54.78-1.13 1.59-1.93 2.19l-.53.07c-.9-.01-1.49-.9-2.03-1.53-1.18-1.94-2.44-3.8-3.16-5.92-.29.43-.59.85-.91 1.25.78 1.56 1.35 3.18 1.75 4.9-.37 1.02-1.43.15-2.15.22-1.18-.41-2.37-.75-3.37-1.34-.4.31-.81.62-1.24.9 2.21.85 4.3 1.99 6.25 3.36.56.46 1.15.96 1.12 1.71-.26 1.03-1.37 1.94-2.22 2.63l.75-.49.68.84c-.35.26-.69.53-1.02.81 1.09-.57 2.21-1.04 3.21-1.44 2.3-.47 4.05.6 5.5 2.16.46-.44.99-.97 1.35-1.34-1.78-1.59-2.94-3.91-2-6.42.31-.69.65-1.38 1-2.06-.19.24-.4.49-.57.74l-.83-.65z" fill="url(#SVGID_17_)"/><radialGradient id="SVGID_18_" cx="15.745" cy="71.137" r="77.044" gradientTransform="matrix(1 0 0 -1 0 78)" gradientUnits="userSpaceOnUse"><stop offset="0" stop-color="#e7d298"/><stop offset="1" stop-color="#c4a006"/></radialGradient><path d="M56.64 63.92c-.25.15-.5.31-.75.49-.07.06-.13.12-.21.16-.21.18-.43.32-.63.47l.52.94c.24-.15.49-.28.74-.41.34-.28.68-.54 1.02-.81l-.69-.84z" fill="url(#SVGID_18_)"/><radialGradient id="SVGID_19_" cx="15.745" cy="71.138" r="77.044" gradientTransform="matrix(1 0 0 -1 0 78)" gradientUnits="userSpaceOnUse"><stop offset="0" stop-color="#e7d298"/><stop offset="1" stop-color="#c4a006"/></radialGradient><path d="M56.64 63.92c-.25.15-.5.31-.75.49-.07.06-.13.12-.21.16-.21.18-.43.32-.63.47l.52.94c.24-.15.49-.28.74-.41.34-.28.68-.54 1.02-.81l-.69-.84z" fill="url(#SVGID_19_)"/><radialGradient id="SVGID_20_" cx="15.747" cy="71.133" r="77.039" gradientTransform="matrix(1 0 0 -1 0 78)" gradientUnits="userSpaceOnUse"><stop offset="0" stop-color="#e7d298"/><stop offset="1" stop-color="#c4a006"/></radialGradient><path d="M68.88 45.43l.09-.57c-.19.85-.43 1.72-.88 2.5l-.46.26c-.84.34-1.71-.25-2.46-.65-1.28-.94-2.59-1.82-3.77-2.86-.37.24-.74.47-1.12.71 1.04.99 1.97 2.06 2.81 3.25.04 1.07-1.27.69-1.9 1.03-1.24.07-2.44.22-3.58.06-.25.44-.52.88-.78 1.31 2.34-.04 4.69.19 7.01.71.68.21 1.43.44 1.69 1.15.16 1.13-.63 2.52-1.18 3.52-.01.03-.03.06-.06.09.21-.31.41-.62.63-.9l.94.52c-.18.29-.35.6-.52.91.77-.93 1.6-1.77 2.35-2.47 1.94-1.31 3.97-1 5.92-.12.25-.57.53-1.27.74-1.75-2.25-.78-4.22-2.49-4.3-5.17.01-.75.06-1.5.13-2.25-.1.34-.21.68-.29 1.02l-1.01-.3z" fill="url(#SVGID_20_)"/><radialGradient id="SVGID_21_" cx="15.745" cy="71.138" r="77.044" gradientTransform="matrix(1 0 0 -1 0 78)" gradientUnits="userSpaceOnUse"><stop offset="0" stop-color="#e7d298"/><stop offset="1" stop-color="#c4a006"/></radialGradient><path d="M64.94 55.06c-.21.28-.41.59-.63.9-.12.21-.24.4-.35.59l.82.66c.19-.25.38-.49.57-.74.16-.31.34-.62.52-.91l-.93-.5z" fill="url(#SVGID_21_)"/><radialGradient id="SVGID_22_" cx="15.747" cy="71.133" r="77.038" gradientTransform="matrix(1 0 0 -1 0 78)" gradientUnits="userSpaceOnUse"><stop offset="0" stop-color="#e7d298"/><stop offset="1" stop-color="#c4a006"/></radialGradient><path d="M64.94 55.06c-.21.28-.41.59-.63.9-.12.21-.24.4-.35.59l.82.66c.19-.25.38-.49.57-.74.16-.31.34-.62.52-.91l-.93-.5z" fill="url(#SVGID_22_)"/><radialGradient id="SVGID_23_" cx="15.742" cy="71.135" r="77.044" gradientTransform="matrix(1 0 0 -1 0 78)" gradientUnits="userSpaceOnUse"><stop offset="0" stop-color="#e7d298"/><stop offset="1" stop-color="#c4a006"/></radialGradient><path d="M71.31 35.04a42.225 42.225 0 0 1-5.37 5.65c.26-.06.54-.1.81-.15.71-.07 1.49-.13 2 .41.59.99.38 2.58.26 3.69 0 .07-.01.15-.03.21.1-.46.19-.91.29-1.34l1.07.12c-.06.35-.09.72-.13 1.07.35-1.1.78-2.15 1.19-3.06 1.3-1.96 3.3-2.44 5.42-2.37.01-.63.01-1.38.01-1.9-2.12.13-4.28-.49-5.52-2.33z" fill="url(#SVGID_23_)"/><radialGradient id="SVGID_24_" cx="15.747" cy="71.135" r="77.039" gradientTransform="matrix(1 0 0 -1 0 78)" gradientUnits="userSpaceOnUse"><stop offset="0" stop-color="#e7d298"/><stop offset="1" stop-color="#c4a006"/></radialGradient><path d="M69.26 43.53c-.1.43-.19.88-.29 1.34l-.09.57 1.03.31c.09-.34.19-.69.29-1.02.03-.35.07-.72.13-1.07l-1.07-.13z" fill="url(#SVGID_24_)"/><radialGradient id="SVGID_25_" cx="15.742" cy="71.135" r="77.044" gradientTransform="matrix(1 0 0 -1 0 78)" gradientUnits="userSpaceOnUse"><stop offset="0" stop-color="#e7d298"/><stop offset="1" stop-color="#c4a006"/></radialGradient><path d="M69.26 43.53c-.1.43-.19.88-.29 1.34l-.09.57 1.03.31c.09-.34.19-.69.29-1.02.03-.35.07-.72.13-1.07l-1.07-.13z" fill="url(#SVGID_25_)"/><radialGradient id="SVGID_26_" cx="15.745" cy="71.134" r="77.041" gradientTransform="matrix(1 0 0 -1 0 78)" gradientUnits="userSpaceOnUse"><stop offset="0" stop-color="#efe0ba"/><stop offset="1" stop-color="#c4a006"/></radialGradient><path d="M58.14 46.06C55.09 54 47.39 59.63 38.39 59.63S21.68 54 18.64 46.06c-.38-.21-.77-.41-1.13-.63.44 1.34 1.02 2.62 1.69 3.83.1 0 .21-.01.29-.01l-.09-.18c.01.01.04.01.06.03.04.18.09.34.16.52.16.37.35.69.57.97-.07 0-.13-.01-.21-.01.07.1.13.21.21.31.03-.06.04-.12.07-.19-.01-.06-.04-.1-.06-.13l.07-.04c.16.5.46 1 .93 1.46 0 0 .01 0 .01.01l-.03-.03c-.03.04-.06.09-.07.13 1.1 1.4 2.37 2.65 3.77 3.74.09-.04.16-.07.25-.12l-.15-.13h.07c.1.15.22.28.35.41.26.26.54.47.82.63a.311.311 0 0 0-.06-.04l.04-.06c.35.4.81.75 1.41 1h.01c-.01 0-.03-.01-.04-.01 0 .04-.01.07-.01.12 1.53.87 3.19 1.56 4.93 2.03.06-.06.12-.13.16-.19l-.16-.08c.03 0 .04-.01.07-.01a3.812 3.812 0 0 0 1.58.53c-.04.03-.07.07-.12.1.1.01.21.04.31.06-.01-.04-.04-.1-.06-.15-.04-.03 1.56.25 1.55.25.01.04.01.07.03.12a21.553 21.553 0 0 0 5.33-.03c.03-.07.04-.15.07-.22 0 0 1.18-.04 1.52-.15-.01.03-.03.07-.06.1.07-.01.13-.03.21-.04l-.1-.1c-.06 0-.1 0-.15.01l-.01-.07c.53.04 1.1-.04 1.71-.29h.01c-.01 0-.03.01-.04.01.01.03.04.06.07.09 1.74-.49 3.38-1.19 4.93-2.08 0-.07-.01-.15-.01-.21l-.18.09c.01-.01.01-.04.03-.06.18-.04.34-.09.52-.16.38-.16.69-.35.97-.57v.1c.03-.03.07-.04.1-.07-.04-.01-.07-.03-.12-.04-.06.01-.1.04-.13.06l-.04-.07c.5-.16 1-.46 1.46-.93 0 0 0-.01.01-.01-.01.01-.01.03-.03.03l.07.03c1.4-1.1 2.68-2.38 3.77-3.78-.03-.06-.06-.13-.1-.19l-.13.15v-.07c.15-.1.28-.22.41-.35.29-.28.5-.59.68-.9.01.04.03.07.04.12.06-.09.12-.18.18-.28h-.18a.4.4 0 0 0-.1.12l-.06-.04c.4-.35.75-.81 1-1.41v-.01c0 .01-.01.03-.01.04.04 0 .09.01.13.01.66-1.18 1.21-2.43 1.65-3.74-.38.26-.76.48-1.14.67z" fill="url(#SVGID_26_)"/><radialGradient id="SVGID_27_" cx="15.745" cy="71.136" r="77.044" gradientTransform="matrix(1 0 0 -1 0 78)" gradientUnits="userSpaceOnUse"><stop offset="0" stop-color="#efe0ba"/><stop offset="1" stop-color="#c4a006"/></radialGradient><path d="M26.27 56.71c-.04.01-.1.03-.15.06.06.03.1.07.16.1.01-.05.01-.11-.01-.16.02.01 0 .01 0 0z" fill="url(#SVGID_27_)"/><radialGradient id="SVGID_28_" cx="15.745" cy="71.135" r="77.041" gradientTransform="matrix(1 0 0 -1 0 78)" gradientUnits="userSpaceOnUse"><stop offset="0" stop-color="#e7d298"/><stop offset="1" stop-color="#c4a006"/></radialGradient><path d="M19.64 49.63c-.07-.18-.12-.35-.16-.52-.01-.01-.04-.01-.06-.03l.09.18c-.1.01-.21.01-.29.01.25.44.52.88.79 1.31.07 0 .13 0 .21.01-.23-.27-.42-.58-.58-.96z" fill="url(#SVGID_28_)"/><radialGradient id="SVGID_29_" cx="15.745" cy="71.134" r="77.041" gradientTransform="matrix(1 0 0 -1 0 78)" gradientUnits="userSpaceOnUse"><stop offset="0" stop-color="#efe0ba"/><stop offset="1" stop-color="#c4a006"/></radialGradient><path d="M19.64 49.63c-.07-.18-.12-.35-.16-.52-.01-.01-.04-.01-.06-.03l.09.18c-.1.01-.21.01-.29.01.25.44.52.88.79 1.31.07 0 .13 0 .21.01-.23-.27-.42-.58-.58-.96z" fill="url(#SVGID_29_)"/><radialGradient id="SVGID_30_" cx="15.745" cy="71.133" r="77.038" gradientTransform="matrix(1 0 0 -1 0 78)" gradientUnits="userSpaceOnUse"><stop offset="0" stop-color="#e7d298"/><stop offset="1" stop-color="#c4a006"/></radialGradient><path d="M26.23 56.66a3.91 3.91 0 0 1-.82-.63c-.13-.13-.25-.28-.35-.41h-.07l.15.13c-.09.04-.16.09-.25.12.41.31.82.62 1.25.9.04-.01.1-.03.15-.06l-.06-.05z" fill="url(#SVGID_30_)"/><radialGradient id="SVGID_31_" cx="15.745" cy="71.134" r="77.041" gradientTransform="matrix(1 0 0 -1 0 78)" gradientUnits="userSpaceOnUse"><stop offset="0" stop-color="#efe0ba"/><stop offset="1" stop-color="#c4a006"/></radialGradient><path d="M26.23 56.66a3.91 3.91 0 0 1-.82-.63c-.13-.13-.25-.28-.35-.41h-.07l.15.13c-.09.04-.16.09-.25.12.41.31.82.62 1.25.9.04-.01.1-.03.15-.06l-.06-.05z" fill="url(#SVGID_31_)"/><radialGradient id="SVGID_32_" cx="15.745" cy="71.133" r="77.038" gradientTransform="matrix(1 0 0 -1 0 78)" gradientUnits="userSpaceOnUse"><stop offset="0" stop-color="#e7d298"/><stop offset="1" stop-color="#c4a006"/></radialGradient><path d="M21.23 52.01c0-.01-.01-.01-.01-.01-.46-.46-.75-.96-.93-1.46l-.07.04c.03.04.04.09.06.13-.03.06-.04.12-.07.19.28.41.59.82.9 1.22.03-.04.04-.09.07-.13.03.01.03.01.05.02z" fill="url(#SVGID_32_)"/><radialGradient id="SVGID_33_" cx="15.745" cy="71.135" r="77.041" gradientTransform="matrix(1 0 0 -1 0 78)" gradientUnits="userSpaceOnUse"><stop offset="0" stop-color="#efe0ba"/><stop offset="1" stop-color="#c4a006"/></radialGradient><path d="M21.23 52.01c0-.01-.01-.01-.01-.01-.46-.46-.75-.96-.93-1.46l-.07.04c.03.04.04.09.06.13-.03.06-.04.12-.07.19.28.41.59.82.9 1.22.03-.04.04-.09.07-.13.03.01.03.01.05.02z" fill="url(#SVGID_33_)"/><radialGradient id="SVGID_34_" cx="15.745" cy="71.135" r="77.042" gradientTransform="matrix(1 0 0 -1 0 78)" gradientUnits="userSpaceOnUse"><stop offset="0" stop-color="#e7d298"/><stop offset="1" stop-color="#c4a006"/></radialGradient><path d="M33.04 59.68c-.18-.07-.34-.16-.49-.25-.03 0-.04.01-.07.01l.19.06c-.06.06-.12.13-.16.19.5.13 1 .25 1.5.35.04-.03.07-.07.12-.1-.35-.03-.7-.11-1.09-.26z" fill="url(#SVGID_34_)"/><radialGradient id="SVGID_35_" cx="15.745" cy="71.135" r="77.042" gradientTransform="matrix(1 0 0 -1 0 78)" gradientUnits="userSpaceOnUse"><stop offset="0" stop-color="#efe0ba"/><stop offset="1" stop-color="#c4a006"/></radialGradient><path d="M33.04 59.68c-.18-.07-.34-.16-.49-.25-.03 0-.04.01-.07.01l.19.06c-.06.06-.12.13-.16.19.5.13 1 .25 1.5.35.04-.03.07-.07.12-.1-.35-.03-.7-.11-1.09-.26z" fill="url(#SVGID_35_)"/><radialGradient id="SVGID_36_" cx="15.745" cy="71.135" r="77.041" gradientTransform="matrix(1 0 0 -1 0 78)" gradientUnits="userSpaceOnUse"><stop offset="0" stop-color="#e7d298"/><stop offset="1" stop-color="#c4a006"/></radialGradient><path d="M27.66 57.56c-.01 0-.01 0-.01-.01-.6-.25-1.06-.59-1.41-1l-.04.06c.01.01.04.03.06.04.03.01.04.03.07.04 0 0-.01 0-.01.01l.01.01v.15c.43.28.87.54 1.31.79 0-.04.01-.07.01-.12-.02.03-.01.03.01.03z" fill="url(#SVGID_36_)"/><radialGradient id="SVGID_37_" cx="15.745" cy="71.135" r="77.042" gradientTransform="matrix(1 0 0 -1 0 78)" gradientUnits="userSpaceOnUse"><stop offset="0" stop-color="#efe0ba"/><stop offset="1" stop-color="#c4a006"/></radialGradient><path d="M27.66 57.56c-.01 0-.01 0-.01-.01-.6-.25-1.06-.59-1.41-1l-.04.06c.01.01.04.03.06.04.03.01.04.03.07.04 0 0-.01 0-.01.01l.01.01v.15c.43.28.87.54 1.31.79 0-.04.01-.07.01-.12-.02.03-.01.03.01.03z" fill="url(#SVGID_37_)"/><radialGradient id="SVGID_38_" cx="15.747" cy="71.125" r="77.026" gradientTransform="matrix(1 0 0 -1 0 78)" gradientUnits="userSpaceOnUse"><stop offset="0" stop-color="#e7d298"/><stop offset="1" stop-color="#c4a006"/></radialGradient><path d="M26.27 56.71s.01 0 .01-.01c-.03-.01-.04-.03-.07-.04l.06.05z" fill="url(#SVGID_38_)"/><radialGradient id="SVGID_39_" cx="15.747" cy="71.126" r="77.029" gradientTransform="matrix(1 0 0 -1 0 78)" gradientUnits="userSpaceOnUse"><stop offset="0" stop-color="#e7d298"/><stop offset="1" stop-color="#c4a006"/></radialGradient><path d="M26.27 56.71s.01 0 .01-.01c-.03-.01-.04-.03-.07-.04l.06.05z" fill="url(#SVGID_39_)"/><radialGradient id="SVGID_40_" cx="15.747" cy="71.126" r="77.028" gradientTransform="matrix(1 0 0 -1 0 78)" gradientUnits="userSpaceOnUse"><stop offset="0" stop-color="#efe0ba"/><stop offset="1" stop-color="#c4a006"/></radialGradient><path d="M26.27 56.71s.01 0 .01-.01c-.03-.01-.04-.03-.07-.04l.06.05z" fill="url(#SVGID_40_)"/><radialGradient id="SVGID_41_" cx="15.747" cy="71.137" r="77.043" gradientTransform="matrix(1 0 0 -1 0 78)" gradientUnits="userSpaceOnUse"><stop offset="0" stop-color="#e7d298"/><stop offset="1" stop-color="#c4a006"/></radialGradient><path d="M41.24 60.1c-.03.07-.04.15-.07.22.52-.06 1.03-.15 1.53-.25.01-.03.03-.07.06-.1-.34.09-1.52.13-1.52.13z" fill="url(#SVGID_41_)"/><radialGradient id="SVGID_42_" cx="15.745" cy="71.135" r="77.042" gradientTransform="matrix(1 0 0 -1 0 78)" gradientUnits="userSpaceOnUse"><stop offset="0" stop-color="#efe0ba"/><stop offset="1" stop-color="#c4a006"/></radialGradient><path d="M41.24 60.1c-.03.07-.04.15-.07.22.52-.06 1.03-.15 1.53-.25.01-.03.03-.07.06-.1-.34.09-1.52.13-1.52.13z" fill="url(#SVGID_42_)"/><radialGradient id="SVGID_43_" cx="15.747" cy="71.146" r="77.053" gradientTransform="matrix(1 0 0 -1 0 78)" gradientUnits="userSpaceOnUse"><stop offset="0" stop-color="#e7d298"/><stop offset="1" stop-color="#c4a006"/></radialGradient><path d="M34.27 59.97c.01.04.04.1.06.15.5.09 1 .16 1.5.22-.01-.04-.03-.07-.03-.12.03 0-1.58-.28-1.53-.25z" fill="url(#SVGID_43_)"/><radialGradient id="SVGID_44_" cx="15.745" cy="71.143" r="77.052" gradientTransform="matrix(1 0 0 -1 0 78)" gradientUnits="userSpaceOnUse"><stop offset="0" stop-color="#efe0ba"/><stop offset="1" stop-color="#c4a006"/></radialGradient><path d="M34.27 59.97c.01.04.04.1.06.15.5.09 1 .16 1.5.22-.01-.04-.03-.07-.03-.12.03 0-1.58-.28-1.53-.25z" fill="url(#SVGID_44_)"/><radialGradient id="SVGID_45_" cx="15.745" cy="71.137" r="77.044" gradientTransform="matrix(1 0 0 -1 0 78)" gradientUnits="userSpaceOnUse"><stop offset="0" stop-color="#e7d298"/><stop offset="1" stop-color="#c4a006"/></radialGradient><path d="M49.68 57.23c-.18.07-.35.12-.52.16-.01.01-.03.04-.03.06l.18-.09c0 .07.01.15.01.21.46-.26.9-.53 1.32-.82v-.1c-.27.23-.58.44-.96.58z" fill="url(#SVGID_45_)"/><radialGradient id="SVGID_46_" cx="15.745" cy="71.135" r="77.041" gradientTransform="matrix(1 0 0 -1 0 78)" gradientUnits="userSpaceOnUse"><stop offset="0" stop-color="#efe0ba"/><stop offset="1" stop-color="#c4a006"/></radialGradient><path d="M49.68 57.23c-.18.07-.35.12-.52.16-.01.01-.03.04-.03.06l.18-.09c0 .07.01.15.01.21.46-.26.9-.53 1.32-.82v-.1c-.27.23-.58.44-.96.58z" fill="url(#SVGID_46_)"/><radialGradient id="SVGID_47_" cx="15.745" cy="71.138" r="77.044" gradientTransform="matrix(1 0 0 -1 0 78)" gradientUnits="userSpaceOnUse"><stop offset="0" stop-color="#e7d298"/><stop offset="1" stop-color="#c4a006"/></radialGradient><path d="M44.36 59.56h-.01c-.6.25-1.18.34-1.71.29l.01.07c.04-.01.09-.01.15-.01l.1.1c.5-.1 1-.22 1.49-.37a.276.276 0 0 0-.07-.09c.01.02.04.01.04.01z" fill="url(#SVGID_47_)"/><radialGradient id="SVGID_48_" cx="15.745" cy="71.135" r="77.041" gradientTransform="matrix(1 0 0 -1 0 78)" gradientUnits="userSpaceOnUse"><stop offset="0" stop-color="#efe0ba"/><stop offset="1" stop-color="#c4a006"/></radialGradient><path d="M44.36 59.56h-.01c-.6.25-1.18.34-1.71.29l.01.07c.04-.01.09-.01.15-.01l.1.1c.5-.1 1-.22 1.49-.37a.276.276 0 0 0-.07-.09c.01.02.04.01.04.01z" fill="url(#SVGID_48_)"/><radialGradient id="SVGID_49_" cx="15.744" cy="71.138" r="77.045" gradientTransform="matrix(1 0 0 -1 0 78)" gradientUnits="userSpaceOnUse"><stop offset="0" stop-color="#e7d298"/><stop offset="1" stop-color="#c4a006"/></radialGradient><path d="M55.94 51.54c-.13.13-.28.25-.41.35v.07l.13-.15c.03.06.06.13.1.19.32-.41.62-.82.91-1.25-.01-.04-.03-.07-.04-.12-.17.32-.39.62-.69.91z" fill="url(#SVGID_49_)"/><radialGradient id="SVGID_50_" cx="15.745" cy="71.134" r="77.041" gradientTransform="matrix(1 0 0 -1 0 78)" gradientUnits="userSpaceOnUse"><stop offset="0" stop-color="#efe0ba"/><stop offset="1" stop-color="#c4a006"/></radialGradient><path d="M55.94 51.54c-.13.13-.28.25-.41.35v.07l.13-.15c.03.06.06.13.1.19.32-.41.62-.82.91-1.25-.01-.04-.03-.07-.04-.12-.17.32-.39.62-.69.91z" fill="url(#SVGID_50_)"/><radialGradient id="SVGID_51_" cx="15.745" cy="71.138" r="77.044" gradientTransform="matrix(1 0 0 -1 0 78)" gradientUnits="userSpaceOnUse"><stop offset="0" stop-color="#e7d298"/><stop offset="1" stop-color="#c4a006"/></radialGradient><path d="M51.93 55.72c-.01 0-.01 0-.01.01-.46.46-.96.75-1.46.93l.04.07c.04-.03.09-.04.13-.06.04.01.07.03.12.04.43-.29.84-.59 1.24-.9l-.09-.04c.01-.04.01-.04.03-.05z" fill="url(#SVGID_51_)"/><radialGradient id="SVGID_52_" cx="15.745" cy="71.134" r="77.041" gradientTransform="matrix(1 0 0 -1 0 78)" gradientUnits="userSpaceOnUse"><stop offset="0" stop-color="#efe0ba"/><stop offset="1" stop-color="#c4a006"/></radialGradient><path d="M51.93 55.72c-.01 0-.01 0-.01.01-.46.46-.96.75-1.46.93l.04.07c.04-.03.09-.04.13-.06.04.01.07.03.12.04.43-.29.84-.59 1.24-.9l-.09-.04c.01-.04.01-.04.03-.05z" fill="url(#SVGID_52_)"/><radialGradient id="SVGID_53_" cx="15.748" cy="71.133" r="77.038" gradientTransform="matrix(1 0 0 -1 0 78)" gradientUnits="userSpaceOnUse"><stop offset="0" stop-color="#e7d298"/><stop offset="1" stop-color="#c4a006"/></radialGradient><path d="M57.5 49.11c0 .01 0 .01-.01.01-.25.6-.59 1.06-1 1.41l.06.04c.03-.04.06-.07.1-.12h.18c.28-.43.54-.85.78-1.31-.04 0-.09-.01-.13-.01.01.01.02 0 .02-.02z" fill="url(#SVGID_53_)"/><radialGradient id="SVGID_54_" cx="15.745" cy="71.134" r="77.041" gradientTransform="matrix(1 0 0 -1 0 78)" gradientUnits="userSpaceOnUse"><stop offset="0" stop-color="#efe0ba"/><stop offset="1" stop-color="#c4a006"/></radialGradient><path d="M57.5 49.11c0 .01 0 .01-.01.01-.25.6-.59 1.06-1 1.41l.06.04c.03-.04.06-.07.1-.12h.18c.28-.43.54-.85.78-1.31-.04 0-.09-.01-.13-.01.01.01.02 0 .02-.02z" fill="url(#SVGID_54_)"/><path class="st2" d="M15.6 27.64c-.63.34-1.94-.04-1.9 1.03 1.02 1.44 2.16 2.72 3.49 3.86.49-1.74 1.19-3.4 2.06-4.94-1.14-.17-2.38-.02-3.65.05zm41.17-8.33c-1.72.4-3.36.97-4.93 1.77a23.03 23.03 0 0 1 3.81 3.77c.6-1 .93-2.19 1.34-3.38-.07-.73.79-1.79-.22-2.16zm1.29-4.36l-.07-.53c-.81-1.06-1.97-1.75-2.96-2.46-.85-.43-1.81-.82-2.62-.71-.71.26-.94 1-1.15 1.69-.53 2.37-.77 4.78-.71 7.18 0 .01.01.01.03.03 2.15-.72 4-2 5.96-3.18.64-.53 1.52-1.12 1.52-2.02zM17.18 44.37c-.21.16-.41.34-.6.52.31.19.62.37.93.56-.12-.36-.23-.72-.33-1.08zm32.01-25.08c.01 0 .03.01.04.01.19-1.18.03-2.43-.04-3.72-.34-.63.04-1.94-1.03-1.9a21.265 21.265 0 0 0-3.94 3.58c2.19.6 4.24 1.53 6.09 2.74-.31-.28-.68-.52-1.12-.69.01-.02.01-.02 0-.02zm12.85 10.63c.21-.69 1.4-1.34.62-2.06a21.67 21.67 0 0 0-5.15-.26c.87 1.53 1.57 3.16 2.06 4.9.91-.71 1.64-1.67 2.47-2.58zm5.34-.78c-.69-.32-1.38.04-2 .38a29.555 29.555 0 0 0-5.45 4.44c.01.09.03.18.06.26 2 .97 4.19 1.38 6.37 1.93.84.07 1.87.28 2.52-.35l.32-.41c.15-1.07-.04-2.16-.24-3.18-.31-1.07-.74-2.44-1.58-3.07zm-4.05-3.53c.81-.26 1.84-.46 2.19-1.28l.13-.52c-.32-1.22-1.06-2.25-1.69-3.24-.65-.79-1.46-1.65-2.34-1.87-.75-.03-1.25.57-1.71 1.12-1.37 1.96-2.5 4.05-3.36 6.25l.13.19c2.24.14 4.43-.31 6.65-.65zM19.25 20.1c.38 1.71.96 3.33 1.74 4.9 1.09-1.41 2.35-2.68 3.75-3.8-1-.59-2.18-.91-3.36-1.32-.68.08-1.74-.78-2.13.22zm10.69-5.35c-.69-.21-1.34-1.4-2.06-.62-.29 1.72-.38 3.43-.26 5.17a21.51 21.51 0 0 1 4.93-2.03c-.7-.93-1.67-1.68-2.61-2.52zm-13.01 5.59c-.54-.65-1.13-1.52-2.03-1.53l-.53.07c-.97.74-1.63 1.78-2.28 2.71-.47.9-.94 1.94-.81 2.84.26.71 1 .94 1.69 1.15 2.34.53 4.72.77 7.11.71l.01-.01c-.73-2.16-1.98-4-3.16-5.94zm8.7-6.89c-.25-.81-.46-1.84-1.28-2.19l-.52-.13c-1.16.29-2.15.99-3.09 1.59-.84.69-1.85 1.56-2.1 2.53-.03.75.57 1.25 1.12 1.71 1.94 1.37 4.03 2.49 6.23 3.36.1-.07.21-.13.31-.21.12-2.24-.33-4.42-.67-6.66zm33.64 32c.34-.19.68-.4 1.02-.6-.22-.21-.43-.4-.66-.59-.11.39-.23.79-.36 1.19zM36.19 10.48c.07-.84.28-1.87-.35-2.52l-.41-.32c-1.24-.18-2.49.12-3.62.32-.97.31-2.09.72-2.63 1.44-.31.69.04 1.38.38 2 1.28 2.02 2.78 3.87 4.49 5.5l.22-.04c.97-2 1.38-4.19 1.92-6.38zM38 11.97c-.93 1.49-1.68 3.02-2.22 4.67.85-.1 1.72-.15 2.6-.15.93 0 1.84.06 2.72.16-.29-1.13-.9-2.19-1.44-3.33-.54-.46-.68-1.81-1.66-1.35zm9.06-.34c.38-.75.97-1.62.65-2.46l-.26-.46c-.63-.37-1.32-.6-2.02-.77-.24-.04-.47-.07-.72-.1-1.13-.12-2.72-.32-3.69.26-.56.52-.49 1.3-.41 2 .41 2.35 1.09 4.64 2.05 6.8.32.06.63.13.94.21-.29-.1-.59-.16-.87-.21 1.72-1.51 2.96-3.42 4.33-5.27zm12.93 31.09c.44.5.91.96 1.41 1.4 1.59-1.04 3.11-2.19 4.53-3.44-2.03.41-4.02 1.03-5.9 1.85-.02.08-.04.13-.04.19z"/><path class="st2" d="M38.39 17.34c-11.69 0-21.15 9.46-21.15 21.15 0 2.68.5 5.22 1.4 7.58 5.89 3.15 12.61 4.94 19.75 4.94s13.86-1.8 19.75-4.94c.9-2.35 1.4-4.92 1.4-7.58 0-11.69-9.47-21.15-21.15-21.15zM11.65 29.77c-.75-.38-1.62-.97-2.46-.65l-.46.26c-.52.88-.75 1.88-.96 2.84-.12 1.12-.29 2.65.26 3.61.52.56 1.3.49 2 .41a29.64 29.64 0 0 0 6.76-2.03c.01-.07.03-.15.04-.21-1.49-1.65-3.36-2.89-5.18-4.23zm48.59 11.28c1.1-.29 2.15-.88 3.27-1.41.46-.56 1.81-.69 1.35-1.68-1.47-.93-3-1.66-4.65-2.21.12.9.18 1.81.18 2.75 0 .85-.05 1.71-.15 2.55zm-43.69-5.3c-1.12.29-2.16.88-3.28 1.43-.46.56-1.81.69-1.35 1.68 1.47.93 2.99 1.66 4.62 2.21-.1-.84-.15-1.71-.15-2.58-.01-.93.05-1.84.16-2.74zm.28 7.14c-.01-.1-.04-.21-.06-.32-1.82-.88-3.8-1.3-5.78-1.78 1.43 1.24 2.93 2.37 4.5 3.4.45-.42.89-.85 1.34-1.3z"/><path class="st57" d="M21.71 11.98c-.22.15-.43.31-.65.47-.1.09-.22.18-.32.26.94-.6 1.93-1.3 3.09-1.59l.52.13c.82.35 1.03 1.38 1.28 2.19.34 2.24.79 4.42.66 6.65.43-.28.87-.54 1.31-.81-.12-1.74-.03-3.44.26-5.17.74-.79 1.38.41 2.06.62.94.84 1.9 1.59 2.6 2.52.49-.13.99-.25 1.5-.35a30.499 30.499 0 0 1-4.49-5.49c-.34-.63-.69-1.32-.38-2 .54-.74 1.65-1.15 2.63-1.44-.12.01-.25.04-.37.06L31.12 7c.5-.12.99-.26 1.47-.43-1.32.15-2.65.16-3.8.13-2.3-.44-3.52-2.1-4.27-4.11-.59.24-1.28.52-1.75.72 1.04 2.15 1.22 4.74-.6 6.7-.5.47-1 .91-1.52 1.35.19-.1.38-.21.56-.32l.5.94z"/><path class="st57" d="M12.87 20.22c-.15.22-.28.44-.41.68-.12.21-.24.44-.37.68.65-.93 1.31-1.97 2.28-2.71l.53-.07c.9.01 1.49.9 2.03 1.53 1.18 1.94 2.43 3.78 3.16 5.92.29-.43.59-.85.91-1.25-.78-1.56-1.35-3.18-1.74-4.9.37-1.02 1.43-.15 2.15-.22 1.18.41 2.35.74 3.36 1.32.4-.31.81-.62 1.24-.9-2.19-.85-4.28-1.99-6.23-3.36-.56-.46-1.15-.96-1.12-1.71.25-.97 1.27-1.85 2.1-2.53-.15.1-.31.19-.46.28l-.68-.84c.35-.26.69-.53 1.02-.81-1.15.62-2.33 1.12-3.37 1.53-2.31.49-4.08-.59-5.53-2.13-.46.44-.99.97-1.35 1.34 1.78 1.59 2.94 3.91 2 6.42-.24.52-.47 1.04-.74 1.55.13-.16.25-.32.37-.49l.85.67z"/><radialGradient id="SVGID_55_" cx="15.745" cy="71.135" r="77.042" gradientTransform="matrix(1 0 0 -1 0 78)" gradientUnits="userSpaceOnUse"><stop offset="0" stop-color="#e7d298"/><stop offset="1" stop-color="#c4a006"/></radialGradient><path d="M20.3 13c.15-.09.29-.19.46-.28.12-.09.22-.18.32-.26.21-.18.43-.32.65-.47l-.52-.94c-.19.1-.37.22-.56.32-.34.28-.68.54-1.02.81.01-.01.67.82.67.82z" fill="url(#SVGID_55_)"/><path class="st57" d="M20.3 13c.15-.09.29-.19.46-.28.12-.09.22-.18.32-.26.21-.18.43-.32.65-.47l-.52-.94c-.19.1-.37.22-.56.32-.34.28-.68.54-1.02.81.01-.01.67.82.67.82zM9.19 29.14c.84-.34 1.71.25 2.46.65 1.82 1.34 3.69 2.58 5.18 4.25.1-.5.22-1 .37-1.5a22.076 22.076 0 0 1-3.49-3.86c-.04-1.07 1.27-.69 1.9-1.03 1.27-.07 2.5-.22 3.66-.06.25-.44.53-.88.81-1.31-2.38.06-4.77-.19-7.11-.71-.68-.21-1.43-.44-1.69-1.15-.13-.88.34-1.94.81-2.84-.09.13-.18.26-.26.38l-.94-.52c.28-.47.53-.94.78-1.43-.82 1.03-1.74 1.94-2.56 2.72-1.94 1.31-3.97 1-5.92.12-.25.57-.53 1.27-.74 1.75 2.25.78 4.22 2.49 4.3 5.17-.01.71-.06 1.43-.12 2.13.09-.28.16-.56.24-.85l1.03.29c-.04.26-.09.52-.12.78 0 .03 0 .06-.01.09.21-.96.44-1.96.96-2.84-.01.02.46-.23.46-.23z"/><radialGradient id="SVGID_56_" cx="15.745" cy="71.135" r="77.042" gradientTransform="matrix(1 0 0 -1 0 78)" gradientUnits="userSpaceOnUse"><stop offset="0" stop-color="#e7d298"/><stop offset="1" stop-color="#c4a006"/></radialGradient><path d="M11.82 21.96c.09-.12.18-.25.26-.38.13-.24.25-.47.37-.68.13-.24.26-.46.41-.68l-.84-.68c-.12.16-.25.32-.37.49-.25.49-.5.96-.78 1.43l.95.5z" fill="url(#SVGID_56_)"/><path class="st57" d="M11.82 21.96c.09-.12.18-.25.26-.38.13-.24.25-.47.37-.68.13-.24.26-.46.41-.68l-.84-.68c-.12.16-.25.32-.37.49-.25.49-.5.96-.78 1.43l.95.5zm-.85 18.84c1.99.47 3.96.9 5.78 1.78-.09-.5-.18-1-.24-1.52-1.63-.54-3.15-1.28-4.62-2.21-.46-.97.9-1.12 1.35-1.68 1.12-.54 2.18-1.13 3.28-1.43.06-.52.15-1.02.24-1.52A29.64 29.64 0 0 1 10 36.25c-.71.07-1.49.15-2-.41-.57-.96-.38-2.49-.26-3.61-.07.34-.15.66-.22.99l-1.07-.12c.06-.4.1-.79.15-1.19-.34 1.1-.77 2.16-1.18 3.09 1.68 2.12 3.53 4.04 5.55 5.8z"/><radialGradient id="SVGID_57_" cx="15.745" cy="71.136" r="77.044" gradientTransform="matrix(1 0 0 -1 0 78)" gradientUnits="userSpaceOnUse"><stop offset="0" stop-color="#e7d298"/><stop offset="1" stop-color="#c4a006"/></radialGradient><path d="M7.89 31.36l-1.03-.29c-.07.28-.16.57-.24.85-.04.4-.09.79-.15 1.19l1.07.12c.07-.32.15-.65.22-.99 0-.03 0-.06.01-.09.03-.26.08-.52.12-.79z" fill="url(#SVGID_57_)"/><path class="st57" d="M7.89 31.36l-1.03-.29c-.07.28-.16.57-.24.85-.04.4-.09.79-.15 1.19l1.07.12c.07-.32.15-.65.22-.99 0-.03 0-.06.01-.09.03-.26.08-.52.12-.79z"/><radialGradient id="SVGID_58_" cx="15.745" cy="71.135" r="77.041" gradientTransform="matrix(1 0 0 -1 0 78)" gradientUnits="userSpaceOnUse"><stop offset="0" stop-color="#e7d298"/><stop offset="1" stop-color="#c4a006"/></radialGradient><path d="M16.83 42.89c-.43.46-.88.88-1.34 1.31.37.24.72.47 1.09.69.19-.19.4-.35.6-.52-.13-.48-.25-.98-.35-1.48z" fill="url(#SVGID_58_)"/><radialGradient id="SVGID_59_" cx="15.747" cy="71.133" r="77.038" gradientTransform="matrix(1 0 0 -1 0 78)" gradientUnits="userSpaceOnUse"><stop offset="0" stop-color="#e7d298"/><stop offset="1" stop-color="#c4a006"/></radialGradient><path d="M59.99 42.72c-.1.52-.22 1.02-.35 1.52.22.19.44.4.66.59.37-.24.75-.47 1.12-.71a10.5 10.5 0 0 1-1.43-1.4z" fill="url(#SVGID_59_)"/><path class="st57" d="M70.19 32.3c.03.26.06.53.09.81l-1.06.12c-.06-.25-.12-.52-.19-.77-.03-.09-.04-.18-.07-.26.19 1.02.38 2.09.24 3.18l-.32.41c-.65.63-1.68.41-2.52.35-2.18-.54-4.36-.96-6.37-1.93.1.5.18 1.02.25 1.52 1.65.54 3.16 1.28 4.65 2.21.46.97-.91 1.12-1.35 1.68-1.1.53-2.16 1.12-3.27 1.41-.06.5-.13 1-.22 1.5 1.88-.82 3.87-1.44 5.9-1.85a41.57 41.57 0 0 0 5.37-5.65c-.16-.24-.31-.5-.44-.78-.25-.64-.48-1.28-.69-1.95z"/><path class="st57" d="M64.91 21.77c-.15-.22-.31-.43-.47-.63-.15-.18-.29-.37-.46-.56.62.99 1.37 2.02 1.69 3.24l-.13.52c-.35.82-1.4 1.03-2.19 1.28-2.22.34-4.4.79-6.64.66.28.43.56.87.81 1.31 1.74-.12 3.43-.03 5.15.26.79.74-.41 1.38-.62 2.06-.82.91-1.56 1.87-2.47 2.56.13.49.26.99.37 1.49 1.62-1.69 3.44-3.18 5.45-4.44.63-.34 1.32-.69 2-.38.84.63 1.27 2 1.57 3.06-.04-.28-.1-.54-.15-.81l1.03-.29c.1.41.22.82.35 1.24-.12-1.24-.13-2.46-.1-3.53.44-2.3 2.1-3.52 4.11-4.27l-.72-1.77c-2.15 1.04-4.74 1.24-6.68-.6-.41-.44-.82-.88-1.21-1.35.09.16.18.31.26.47l-.95.48z"/><radialGradient id="SVGID_60_" cx="15.742" cy="71.135" r="77.045" gradientTransform="matrix(1 0 0 -1 0 78)" gradientUnits="userSpaceOnUse"><stop offset="0" stop-color="#e7d298"/><stop offset="1" stop-color="#c4a006"/></radialGradient><path d="M68.81 31.38c.04.26.09.54.15.81.03.09.06.18.07.26.07.25.13.52.19.77l1.06-.12c-.04-.26-.07-.53-.09-.81-.13-.41-.25-.81-.35-1.24l-1.03.33z" fill="url(#SVGID_60_)"/><path class="st57" d="M68.81 31.38c.04.26.09.54.15.81.03.09.06.18.07.26.07.25.13.52.19.77l1.06-.12c-.04-.26-.07-.53-.09-.81-.13-.41-.25-.81-.35-1.24l-1.03.33zm-12.2-18.53a7.66 7.66 0 0 0-.68-.41c-.28-.15-.57-.31-.9-.47.99.71 2.16 1.4 2.96 2.46l.07.53c-.01.9-.88 1.49-1.53 2.03-1.96 1.18-3.81 2.46-5.96 3.18l.01.01c.43.28.84.59 1.24.9 1.57-.79 3.21-1.37 4.93-1.77 1.02.37.15 1.43.22 2.15-.41 1.19-.75 2.38-1.34 3.38.32.4.62.81.91 1.24.85-2.21 1.99-4.31 3.36-6.25.46-.56.96-1.15 1.71-1.12.88.22 1.69 1.09 2.34 1.87-.06-.1-.13-.21-.19-.29l.84-.68c.31.41.62.81.96 1.19-.65-1.18-1.16-2.4-1.57-3.47-.47-2.3.6-4.06 2.16-5.52-.44-.46-.97-.99-1.34-1.35-1.59 1.78-3.91 2.94-6.42 2-.49-.22-.96-.44-1.43-.68.1.07.21.16.31.24l-.66.83z"/><radialGradient id="SVGID_61_" cx="15.746" cy="71.136" r="77.039" gradientTransform="matrix(1 0 0 -1 0 78)" gradientUnits="userSpaceOnUse"><stop offset="0" stop-color="#e7d298"/><stop offset="1" stop-color="#c4a006"/></radialGradient><path d="M63.79 20.27c.06.1.12.21.19.29.16.19.31.38.46.56.18.21.32.43.47.63l.94-.52c-.09-.15-.18-.31-.26-.47-.32-.38-.65-.78-.96-1.19l-.84.7z" fill="url(#SVGID_61_)"/><path class="st57" d="M63.79 20.27c.06.1.12.21.19.29.16.19.31.38.46.56.18.21.32.43.47.63l.94-.52c-.09-.15-.18-.31-.26-.47-.32-.38-.65-.78-.96-1.19l-.84.7zM45.5 7.95c-.03 0-.04-.01-.07-.01.69.18 1.38.4 2.02.77l.26.46c.34.84-.25 1.71-.65 2.46-1.37 1.85-2.6 3.77-4.34 5.27.28.03.57.1.87.21.22.06.43.1.65.16 1.16-1.37 2.47-2.53 3.94-3.58 1.07-.04.68 1.27 1.03 1.9.07 1.3.24 2.55.04 3.72-.01 0-.03-.01-.04-.01h.01c.44.18.81.43 1.12.69.09.06.16.1.25.16 0-.01-.01-.01-.03-.03-.06-2.4.18-4.81.71-7.18.21-.68.44-1.43 1.15-1.69.82-.12 1.78.26 2.62.71l-.13-.09.52-.94c.5.31 1.03.59 1.55.84-1.09-.85-2.08-1.82-2.9-2.69-1.31-1.94-1-3.97-.12-5.92-.57-.25-1.27-.53-1.75-.74-.78 2.25-2.49 4.22-5.17 4.3a33.3 33.3 0 0 1-2.44-.16c.4.13.79.25 1.19.35l-.29 1.04z"/><radialGradient id="SVGID_62_" cx="15.745" cy="71.135" r="77.042" gradientTransform="matrix(1 0 0 -1 0 78)" gradientUnits="userSpaceOnUse"><stop offset="0" stop-color="#e7d298"/><stop offset="1" stop-color="#c4a006"/></radialGradient><path d="M54.91 11.88l.13.09c.32.16.62.32.9.47.24.13.46.26.68.41l.68-.84c-.1-.07-.21-.16-.31-.24-.53-.26-1.04-.54-1.55-.84l-.53.95z" fill="url(#SVGID_62_)"/><path class="st57" d="M54.91 11.88l.13.09c.32.16.62.32.9.47.24.13.46.26.68.41l.68-.84c-.1-.07-.21-.16-.31-.24-.53-.26-1.04-.54-1.55-.84l-.53.95z"/><radialGradient id="SVGID_63_" cx="15.74" cy="71.14" r="77.055" gradientTransform="matrix(1 0 0 -1 0 78)" gradientUnits="userSpaceOnUse"><stop offset="0" stop-color="#e7d298"/><stop offset="1" stop-color="#c4a006"/></radialGradient><path d="M50.57 20.16c0 .01.01.01.01.01s.01-.01-.01-.01z" fill="url(#SVGID_63_)"/><radialGradient id="SVGID_64_" cx="15.739" cy="71.139" r="77.058" gradientTransform="matrix(1 0 0 -1 0 78)" gradientUnits="userSpaceOnUse"><stop offset="0" stop-color="#e7d298"/><stop offset="1" stop-color="#c4a006"/></radialGradient><path d="M50.57 20.16c0 .01.01.01.01.01s.01-.01-.01-.01z" fill="url(#SVGID_64_)"/><path class="st57" d="M33.25 7.56c-.25.06-.51.12-.78.2-.22.06-.44.13-.68.21 1.15-.21 2.38-.49 3.62-.32l.41.32c.63.65.41 1.68.35 2.52-.54 2.19-.96 4.37-1.93 6.39.5-.09 1.02-.18 1.52-.24.54-1.65 1.3-3.19 2.22-4.67.97-.46 1.12.9 1.68 1.35.54 1.13 1.15 2.19 1.44 3.33.52.06 1.02.15 1.52.24-.96-2.16-1.63-4.44-2.05-6.8-.07-.71-.15-1.49.41-2 .99-.59 2.58-.37 3.69-.26.24.03.49.06.72.1-.62-.16-1.24-.26-1.81-.41l.12-1.07c.29.04.59.07.88.12-1.04-.34-2.03-.75-2.88-1.13-1.96-1.3-2.44-3.3-2.37-5.42-.65.01-1.4.01-1.91.01.13 2.38-.68 4.86-3.12 5.95-.56.22-1.13.41-1.71.6.18-.01.37-.04.54-.07l.12 1.05z"/><radialGradient id="SVGID_65_" cx="15.745" cy="71.135" r="77.042" gradientTransform="matrix(1 0 0 -1 0 78)" gradientUnits="userSpaceOnUse"><stop offset="0" stop-color="#e7d298"/><stop offset="1" stop-color="#c4a006"/></radialGradient><path d="M31.43 8.02c.12-.01.24-.04.37-.06.24-.07.47-.15.68-.21.26-.07.52-.13.78-.19l-.13-1.06c-.18.03-.37.04-.54.07-.49.16-.97.29-1.47.43l.31 1.02z" fill="url(#SVGID_65_)"/><path class="st57" d="M31.43 8.02c.12-.01.24-.04.37-.06.24-.07.47-.15.68-.21.26-.07.52-.13.78-.19l-.13-1.06c-.18.03-.37.04-.54.07-.49.16-.97.29-1.47.43l.31 1.02z"/><radialGradient id="SVGID_66_" cx="15.744" cy="71.135" r="77.045" gradientTransform="matrix(1 0 0 -1 0 78)" gradientUnits="userSpaceOnUse"><stop offset="0" stop-color="#e7d298"/><stop offset="1" stop-color="#c4a006"/></radialGradient><path d="M43.6 7.54c.57.13 1.19.25 1.81.41.03 0 .04.01.07.01l.29-1.03c-.4-.1-.81-.22-1.19-.35-.29-.03-.59-.07-.88-.12l-.1 1.08z" fill="url(#SVGID_66_)"/><path class="st57" d="M43.6 7.54c.57.13 1.19.25 1.81.41.03 0 .04.01.07.01l.29-1.03c-.4-.1-.81-.22-1.19-.35-.29-.03-.59-.07-.88-.12l-.1 1.08z"/><radialGradient id="SVGID_67_" cx="15.745" cy="71.134" r="77.04" gradientTransform="matrix(1 0 0 -1 0 78)" gradientUnits="userSpaceOnUse"><stop offset="0" stop-color="#efe0ba"/><stop offset="1" stop-color="#c4a006"/></radialGradient><path d="M16.96 42.75v-.09c-.06-.03-.13-.06-.19-.09.01.1.04.21.06.32.04-.05.08-.09.13-.14z" fill="url(#SVGID_67_)"/><radialGradient id="SVGID_68_" cx="15.745" cy="71.132" r="77.031" gradientTransform="matrix(1 0 0 -1 0 78)" gradientUnits="userSpaceOnUse"><stop offset="0" stop-color="#efe0ba"/><stop offset="1" stop-color="#c4a006"/></radialGradient><path d="M20.09 26.26l-.01.01h.01v-.01z" fill="url(#SVGID_68_)"/><radialGradient id="SVGID_69_" cx="15.745" cy="71.133" r="77.04" gradientTransform="matrix(1 0 0 -1 0 78)" gradientUnits="userSpaceOnUse"><stop offset="0" stop-color="#efe0ba"/><stop offset="1" stop-color="#c4a006"/></radialGradient><path d="M56.55 26.26c.04 0 .1 0 .15.01l-.13-.19c-.01.03-.03.07-.04.1-.01.03 0 .06.02.08z" fill="url(#SVGID_69_)"/><radialGradient id="SVGID_70_" cx="15.744" cy="71.132" r="77.04" gradientTransform="matrix(1 0 0 -1 0 78)" gradientUnits="userSpaceOnUse"><stop offset="0" stop-color="#efe0ba"/><stop offset="1" stop-color="#c4a006"/></radialGradient><path d="M34.19 17c.01-.04.04-.09.06-.13l-.22.04.09.09h.07z" fill="url(#SVGID_70_)"/><radialGradient id="SVGID_71_" cx="15.745" cy="71.135" r="77.041" gradientTransform="matrix(1 0 0 -1 0 78)" gradientUnits="userSpaceOnUse"><stop offset="0" stop-color="#efe0ba"/><stop offset="1" stop-color="#c4a006"/></radialGradient><path d="M16.8 40.96c.01.01.03.03.04.06-.03.18-.04.35-.04.54 0 .38.06.74.15 1.06l.07-.01c-.04.53.04 1.1.29 1.71v.01c0-.01-.01-.03-.01-.04-.04.03-.09.06-.12.09.1.37.21.72.32 1.07.37.22.75.43 1.13.63-.9-2.35-1.4-4.92-1.4-7.58 0-11.69 9.46-21.15 21.15-21.15s21.15 9.46 21.15 21.15c0 2.68-.5 5.22-1.4 7.58.38-.21.77-.41 1.13-.63.13-.4.25-.79.37-1.21-.06-.06-.12-.1-.18-.16l-.06.19c0-.03-.01-.04-.01-.07.09-.15.18-.31.25-.49.16-.38.25-.74.28-1.09l.09.09c.01-.06.03-.12.03-.18-.06.03-.13.06-.19.07a.26.26 0 0 0-.04.15l-.07-.03c.24-.47.38-1.03.38-1.69v-.01.04c.06-.01.1-.03.16-.04a21.597 21.597 0 0 0-.03-5.31l-.26-.09.01.21c-.01-.01-.03-.03-.04-.06.03-.18.04-.35.04-.54 0-.41-.06-.78-.16-1.1.06.03.1.06.16.07-.01-.09-.03-.18-.06-.26l-.13.13v.15l-.07.01c.04-.53-.04-1.1-.29-1.71 0 0 0-.01-.01-.01.01.01.01.03.01.04.04-.03.09-.06.13-.1-.49-1.72-1.19-3.37-2.06-4.9-.09 0-.18.01-.26.01l.09.18c-.01-.01-.04-.01-.06-.03-.04-.18-.09-.34-.16-.52a3.82 3.82 0 0 0-.53-.91l-.06.03c-.16-.5-.47-1-.93-1.46l-.01-.01.03.03c.01-.03.03-.04.04-.07-1.12-1.4-2.4-2.66-3.81-3.77-.06.03-.1.06-.16.09l.15.13c-.03 0-.04 0-.07-.01-.1-.15-.22-.28-.35-.41-.25-.25-.5-.44-.75-.59l-.03.03c-.03-.03-.06-.07-.09-.1l-.01-.01a3.32 3.32 0 0 0-.19-.18 21.906 21.906 0 0 0-6.09-2.74l-.07.07.19.06c-.03 0-.04.01-.07.01-.15-.09-.31-.18-.49-.25a.935.935 0 0 0-.22-.07c-.31-.07-.62-.15-.94-.21.01.03.03.07.04.1.04.03.1.04.15.04l-.03.07c-.47-.24-1.03-.38-1.69-.38h-.01.04c-.01-.03-.01-.06-.03-.09-.9-.12-1.81-.16-2.72-.16-.88 0-1.75.06-2.6.15-.03.07-.06.16-.07.24l.21-.01c-.01.01-.04.03-.06.04-.18-.03-.35-.04-.54-.04-.37 0-.71.06-1.03.13l-.04.06c-.53-.04-1.1.04-1.71.29h-.01c.01 0 .03-.01.04-.01-.01-.03-.04-.04-.06-.07-1.74.47-3.4 1.16-4.93 2.03 0 .09.01.16.01.25l.18-.09c-.01.01-.01.04-.03.06-.18.04-.34.09-.52.16-.37.16-.69.35-.97.57 0-.04 0-.1.01-.15-.1.07-.21.13-.31.21.04.01.09.04.13.06.06-.01.1-.04.13-.06l.04.07c-.5.16-1 .46-1.46.93l-.01.01.03-.03c-.03-.01-.06-.04-.1-.06-1.4 1.1-2.66 2.38-3.75 3.8.03.07.06.13.1.21l.13-.15v.07c-.15.1-.28.22-.41.35-.22.22-.4.46-.54.69l.06.04c-.4.35-.75.81-1 1.41v.01c0-.01.01-.03.01-.04-.01 0-.04 0-.06-.01-.88 1.55-1.57 3.19-2.06 4.94.06.04.1.1.16.15l.06-.19c0 .03.01.04.01.07-.09.16-.18.31-.25.49-.16.37-.24.74-.28 1.09l-.09-.09c-.01.07-.03.13-.04.21.04-.03.1-.04.15-.06.03-.04.04-.1.04-.15l.07.03c-.24.47-.38 1.03-.38 1.69v-.03l-.13.04c-.12.9-.16 1.81-.16 2.74 0 .87.06 1.72.15 2.58.09.03.19.06.28.1l-.01-.2z" fill="url(#SVGID_71_)"/><radialGradient id="SVGID_72_" cx="15.745" cy="71.135" r="77.042" gradientTransform="matrix(1 0 0 -1 0 78)" gradientUnits="userSpaceOnUse"><stop offset="0" stop-color="#e7d298"/><stop offset="1" stop-color="#c4a006"/></radialGradient><path d="M26.29 20.25c.28-.22.59-.41.97-.57.18-.07.35-.12.52-.16.01-.01.01-.04.03-.06l-.18.09c0-.09-.01-.16-.01-.25-.46.25-.88.52-1.31.81-.02.04-.02.1-.02.14z" fill="url(#SVGID_72_)"/><radialGradient id="SVGID_73_" cx="15.745" cy="71.134" r="77.041" gradientTransform="matrix(1 0 0 -1 0 78)" gradientUnits="userSpaceOnUse"><stop offset="0" stop-color="#efe0ba"/><stop offset="1" stop-color="#c4a006"/></radialGradient><path d="M26.29 20.25c.28-.22.59-.41.97-.57.18-.07.35-.12.52-.16.01-.01.01-.04.03-.06l-.18.09c0-.09-.01-.16-.01-.25-.46.25-.88.52-1.31.81-.02.04-.02.1-.02.14z" fill="url(#SVGID_73_)"/><radialGradient id="SVGID_74_" cx="15.745" cy="71.135" r="77.043" gradientTransform="matrix(1 0 0 -1 0 78)" gradientUnits="userSpaceOnUse"><stop offset="0" stop-color="#e7d298"/><stop offset="1" stop-color="#c4a006"/></radialGradient><path d="M34.19 17h-.07l-.09-.09c-.5.1-1 .22-1.5.35.01.03.04.04.06.07-.01 0-.03.01-.04.01h.01c.6-.25 1.18-.34 1.71-.29l-.01-.07c-.03 0-.06.01-.09.01.02.02.02.01.02.01z" fill="url(#SVGID_74_)"/><radialGradient id="SVGID_75_" cx="15.745" cy="71.135" r="77.042" gradientTransform="matrix(1 0 0 -1 0 78)" gradientUnits="userSpaceOnUse"><stop offset="0" stop-color="#efe0ba"/><stop offset="1" stop-color="#c4a006"/></radialGradient><path d="M34.19 17h-.07l-.09-.09c-.5.1-1 .22-1.5.35.01.03.04.04.06.07-.01 0-.03.01-.04.01h.01c.6-.25 1.18-.34 1.71-.29l-.01-.07c-.03 0-.06.01-.09.01.02.02.02.01.02.01z" fill="url(#SVGID_75_)"/><radialGradient id="SVGID_76_" cx="15.745" cy="71.136" r="77.043" gradientTransform="matrix(1 0 0 -1 0 78)" gradientUnits="userSpaceOnUse"><stop offset="0" stop-color="#e7d298"/><stop offset="1" stop-color="#c4a006"/></radialGradient><path d="M20.11 26.27h.06a.4.4 0 0 0 .1-.12c.15-.24.32-.47.54-.69.13-.13.28-.25.41-.35v-.07l-.13.15c-.03-.07-.07-.13-.1-.21-.32.41-.62.82-.91 1.25.01.03.01.04.03.04z" fill="url(#SVGID_76_)"/><radialGradient id="SVGID_77_" cx="15.745" cy="71.135" r="77.041" gradientTransform="matrix(1 0 0 -1 0 78)" gradientUnits="userSpaceOnUse"><stop offset="0" stop-color="#efe0ba"/><stop offset="1" stop-color="#c4a006"/></radialGradient><path d="M20.11 26.27h.06a.4.4 0 0 0 .1-.12c.15-.24.32-.47.54-.69.13-.13.28-.25.41-.35v-.07l-.13.15c-.03-.07-.07-.13-.1-.21-.32.41-.62.82-.91 1.25.01.03.01.04.03.04z" fill="url(#SVGID_77_)"/><radialGradient id="SVGID_78_" cx="15.745" cy="71.135" r="77.042" gradientTransform="matrix(1 0 0 -1 0 78)" gradientUnits="userSpaceOnUse"><stop offset="0" stop-color="#e7d298"/><stop offset="1" stop-color="#c4a006"/></radialGradient><path d="M24.86 21.27c-.01.01-.01.03-.03.03 0 0 0-.01.01-.01.46-.46.96-.77 1.46-.93l-.04-.07c-.04.03-.09.04-.13.06-.04-.01-.09-.04-.13-.06-.43.29-.84.59-1.24.9a.7.7 0 0 0 .1.08z" fill="url(#SVGID_78_)"/><radialGradient id="SVGID_79_" cx="15.745" cy="71.134" r="77.041" gradientTransform="matrix(1 0 0 -1 0 78)" gradientUnits="userSpaceOnUse"><stop offset="0" stop-color="#efe0ba"/><stop offset="1" stop-color="#c4a006"/></radialGradient><path d="M24.86 21.27c-.01.01-.01.03-.03.03 0 0 0-.01.01-.01.46-.46.96-.77 1.46-.93l-.04-.07c-.04.03-.09.04-.13.06-.04-.01-.09-.04-.13-.06-.43.29-.84.59-1.24.9a.7.7 0 0 0 .1.08z" fill="url(#SVGID_79_)"/><radialGradient id="SVGID_80_" cx="15.745" cy="71.135" r="77.044" gradientTransform="matrix(1 0 0 -1 0 78)" gradientUnits="userSpaceOnUse"><stop offset="0" stop-color="#e7d298"/><stop offset="1" stop-color="#c4a006"/></radialGradient><path d="M16.91 34.13c.04-.35.13-.71.28-1.09.07-.18.16-.34.25-.49 0-.01-.01-.04-.01-.07l-.06.19c-.06-.04-.1-.1-.16-.15-.13.5-.26 1-.37 1.5.02.04.05.06.07.11z" fill="url(#SVGID_80_)"/><radialGradient id="SVGID_81_" cx="15.745" cy="71.135" r="77.042" gradientTransform="matrix(1 0 0 -1 0 78)" gradientUnits="userSpaceOnUse"><stop offset="0" stop-color="#efe0ba"/><stop offset="1" stop-color="#c4a006"/></radialGradient><path d="M16.91 34.13c.04-.35.13-.71.28-1.09.07-.18.16-.34.25-.49 0-.01-.01-.04-.01-.07l-.06.19c-.06-.04-.1-.1-.16-.15-.13.5-.26 1-.37 1.5.02.04.05.06.07.11z" fill="url(#SVGID_81_)"/><radialGradient id="SVGID_82_" cx="15.745" cy="71.135" r="77.043" gradientTransform="matrix(1 0 0 -1 0 78)" gradientUnits="userSpaceOnUse"><stop offset="0" stop-color="#e7d298"/><stop offset="1" stop-color="#c4a006"/></radialGradient><path d="M20.11 26.27h-.01c-.28.43-.56.87-.81 1.31.01 0 .04 0 .06.01 0 .01-.01.03-.01.04v-.01c.25-.6.59-1.06 1-1.41l-.06-.04c-.04.07-.09.13-.12.21-.04-.04-.05-.07-.05-.11z" fill="url(#SVGID_82_)"/><radialGradient id="SVGID_83_" cx="15.745" cy="71.134" r="77.041" gradientTransform="matrix(1 0 0 -1 0 78)" gradientUnits="userSpaceOnUse"><stop offset="0" stop-color="#efe0ba"/><stop offset="1" stop-color="#c4a006"/></radialGradient><path d="M20.11 26.27h-.01c-.28.43-.56.87-.81 1.31.01 0 .04 0 .06.01 0 .01-.01.03-.01.04v-.01c.25-.6.59-1.06 1-1.41l-.06-.04c-.04.07-.09.13-.12.21-.04-.04-.05-.07-.05-.11z" fill="url(#SVGID_83_)"/><radialGradient id="SVGID_84_" cx="15.745" cy="71.135" r="77.043" gradientTransform="matrix(1 0 0 -1 0 78)" gradientUnits="userSpaceOnUse"><stop offset="0" stop-color="#e7d298"/><stop offset="1" stop-color="#c4a006"/></radialGradient><path d="M20.15 26.27h-.06c.01.03.03.06.03.1.04-.07.07-.13.12-.21-.01.04-.04.08-.09.11z" fill="url(#SVGID_84_)"/><radialGradient id="SVGID_85_" cx="15.745" cy="71.135" r="77.044" gradientTransform="matrix(1 0 0 -1 0 78)" gradientUnits="userSpaceOnUse"><stop offset="0" stop-color="#e7d298"/><stop offset="1" stop-color="#c4a006"/></radialGradient><path d="M20.15 26.27h-.06c.01.03.03.06.03.1.04-.07.07-.13.12-.21-.01.04-.04.08-.09.11z" fill="url(#SVGID_85_)"/><radialGradient id="SVGID_86_" cx="15.745" cy="71.134" r="77.041" gradientTransform="matrix(1 0 0 -1 0 78)" gradientUnits="userSpaceOnUse"><stop offset="0" stop-color="#efe0ba"/><stop offset="1" stop-color="#c4a006"/></radialGradient><path d="M20.15 26.27h-.06c.01.03.03.06.03.1.04-.07.07-.13.12-.21-.01.04-.04.08-.09.11z" fill="url(#SVGID_86_)"/><radialGradient id="SVGID_87_" cx="15.745" cy="71.137" r="77.047" gradientTransform="matrix(1 0 0 -1 0 78)" gradientUnits="userSpaceOnUse"><stop offset="0" stop-color="#e7d298"/><stop offset="1" stop-color="#c4a006"/></radialGradient><path d="M16.69 35.76v-.01c0-.65.15-1.21.38-1.69l-.07-.03c-.01.04-.03.09-.04.15-.04.03-.1.04-.15.06-.1.5-.18 1-.24 1.52l.13-.04c-.01.01-.01.03-.01.04z" fill="url(#SVGID_87_)"/><radialGradient id="SVGID_88_" cx="15.745" cy="71.135" r="77.041" gradientTransform="matrix(1 0 0 -1 0 78)" gradientUnits="userSpaceOnUse"><stop offset="0" stop-color="#efe0ba"/><stop offset="1" stop-color="#c4a006"/></radialGradient><path d="M16.69 35.76v-.01c0-.65.15-1.21.38-1.69l-.07-.03c-.01.04-.03.09-.04.15-.04.03-.1.04-.15.06-.1.5-.18 1-.24 1.52l.13-.04c-.01.01-.01.03-.01.04z" fill="url(#SVGID_88_)"/><radialGradient id="SVGID_89_" cx="15.745" cy="71.138" r="77.048" gradientTransform="matrix(1 0 0 -1 0 78)" gradientUnits="userSpaceOnUse"><stop offset="0" stop-color="#e7d298"/><stop offset="1" stop-color="#c4a006"/></radialGradient><path d="M16.94 42.61c-.09-.32-.15-.68-.15-1.06 0-.19.01-.37.04-.54-.01-.01-.03-.03-.04-.06l.01.19c-.09-.03-.19-.06-.28-.1.06.52.13 1.02.24 1.52.06.03.13.06.19.09-.01 0-.01-.03-.01-.04z" fill="url(#SVGID_89_)"/><radialGradient id="SVGID_90_" cx="15.745" cy="71.135" r="77.042" gradientTransform="matrix(1 0 0 -1 0 78)" gradientUnits="userSpaceOnUse"><stop offset="0" stop-color="#efe0ba"/><stop offset="1" stop-color="#c4a006"/></radialGradient><path d="M16.94 42.61c-.09-.32-.15-.68-.15-1.06 0-.19.01-.37.04-.54-.01-.01-.03-.03-.04-.06l.01.19c-.09-.03-.19-.06-.28-.1.06.52.13 1.02.24 1.52.06.03.13.06.19.09-.01 0-.01-.03-.01-.04z" fill="url(#SVGID_90_)"/><radialGradient id="SVGID_91_" cx="15.745" cy="71.134" r="77.041" gradientTransform="matrix(1 0 0 -1 0 78)" gradientUnits="userSpaceOnUse"><stop offset="0" stop-color="#e7d298"/><stop offset="1" stop-color="#c4a006"/></radialGradient><path d="M17.33 44.31v-.01c-.25-.6-.34-1.18-.29-1.71l-.07.01c0 .01.01.04.01.06v.09l-.13.13c.1.5.22 1 .35 1.49.04-.03.07-.06.12-.09-.01 0-.01.02.01.03z" fill="url(#SVGID_91_)"/><radialGradient id="SVGID_92_" cx="15.745" cy="71.134" r="77.041" gradientTransform="matrix(1 0 0 -1 0 78)" gradientUnits="userSpaceOnUse"><stop offset="0" stop-color="#efe0ba"/><stop offset="1" stop-color="#c4a006"/></radialGradient><path d="M17.33 44.31v-.01c-.25-.6-.34-1.18-.29-1.71l-.07.01c0 .01.01.04.01.06v.09l-.13.13c.1.5.22 1 .35 1.49.04-.03.07-.06.12-.09-.01 0-.01.02.01.03z" fill="url(#SVGID_92_)"/><radialGradient id="SVGID_93_" cx="15.746" cy="71.14" r="77.053" gradientTransform="matrix(1 0 0 -1 0 78)" gradientUnits="userSpaceOnUse"><stop offset="0" stop-color="#e7d298"/><stop offset="1" stop-color="#c4a006"/></radialGradient><path d="M16.94 42.61v.06c.02-.02 0-.05 0-.06z" fill="url(#SVGID_93_)"/><radialGradient id="SVGID_94_" cx="15.746" cy="71.137" r="77.047" gradientTransform="matrix(1 0 0 -1 0 78)" gradientUnits="userSpaceOnUse"><stop offset="0" stop-color="#e7d298"/><stop offset="1" stop-color="#c4a006"/></radialGradient><path d="M16.94 42.61v.06c.02-.02 0-.05 0-.06z" fill="url(#SVGID_94_)"/><radialGradient id="SVGID_95_" cx="15.746" cy="71.137" r="77.047" gradientTransform="matrix(1 0 0 -1 0 78)" gradientUnits="userSpaceOnUse"><stop offset="0" stop-color="#efe0ba"/><stop offset="1" stop-color="#c4a006"/></radialGradient><path d="M16.94 42.61v.06c.02-.02 0-.05 0-.06z" fill="url(#SVGID_95_)"/><radialGradient id="SVGID_96_" cx="15.748" cy="71.134" r="77.038" gradientTransform="matrix(1 0 0 -1 0 78)" gradientUnits="userSpaceOnUse"><stop offset="0" stop-color="#e7d298"/><stop offset="1" stop-color="#c4a006"/></radialGradient><path d="M59.62 43.72c-.07.18-.16.34-.25.49 0 .03.01.04.01.07l.06-.19c.06.06.12.1.18.16.13-.5.25-1 .35-1.52l-.09-.09c-.02.35-.11.7-.26 1.08z" fill="url(#SVGID_96_)"/><radialGradient id="SVGID_97_" cx="15.745" cy="71.135" r="77.041" gradientTransform="matrix(1 0 0 -1 0 78)" gradientUnits="userSpaceOnUse"><stop offset="0" stop-color="#efe0ba"/><stop offset="1" stop-color="#c4a006"/></radialGradient><path d="M59.62 43.72c-.07.18-.16.34-.25.49 0 .03.01.04.01.07l.06-.19c.06.06.12.1.18.16.13-.5.25-1 .35-1.52l-.09-.09c-.02.35-.11.7-.26 1.08z" fill="url(#SVGID_97_)"/><radialGradient id="SVGID_98_" cx="15.741" cy="71.135" r="77.045" gradientTransform="matrix(1 0 0 -1 0 78)" gradientUnits="userSpaceOnUse"><stop offset="0" stop-color="#e7d298"/><stop offset="1" stop-color="#c4a006"/></radialGradient><path d="M60.08 41.05v.01c0 .65-.15 1.21-.38 1.69l.07.03c.01-.04.03-.09.04-.15.06-.03.13-.06.19-.07.09-.5.16-1 .22-1.5-.06.01-.1.03-.16.04.03-.02.03-.04.02-.05z" fill="url(#SVGID_98_)"/><radialGradient id="SVGID_99_" cx="15.745" cy="71.134" r="77.042" gradientTransform="matrix(1 0 0 -1 0 78)" gradientUnits="userSpaceOnUse"><stop offset="0" stop-color="#efe0ba"/><stop offset="1" stop-color="#c4a006"/></radialGradient><path d="M60.08 41.05v.01c0 .65-.15 1.21-.38 1.69l.07.03c.01-.04.03-.09.04-.15.06-.03.13-.06.19-.07.09-.5.16-1 .22-1.5-.06.01-.1.03-.16.04.03-.02.03-.04.02-.05z" fill="url(#SVGID_99_)"/><radialGradient id="SVGID_100_" cx="15.742" cy="71.135" r="77.046" gradientTransform="matrix(1 0 0 -1 0 78)" gradientUnits="userSpaceOnUse"><stop offset="0" stop-color="#e7d298"/><stop offset="1" stop-color="#c4a006"/></radialGradient><path d="M59.98 35.25c0 .19-.01.37-.04.54.01.01.03.03.04.06l-.01-.21.26.09c-.06-.52-.15-1.02-.25-1.52-.06-.03-.1-.04-.16-.07.1.34.16.71.16 1.11z" fill="url(#SVGID_100_)"/><radialGradient id="SVGID_101_" cx="15.745" cy="71.135" r="77.042" gradientTransform="matrix(1 0 0 -1 0 78)" gradientUnits="userSpaceOnUse"><stop offset="0" stop-color="#efe0ba"/><stop offset="1" stop-color="#c4a006"/></radialGradient><path d="M59.98 35.25c0 .19-.01.37-.04.54.01.01.03.03.04.06l-.01-.21.26.09c-.06-.52-.15-1.02-.25-1.52-.06-.03-.1-.04-.16-.07.1.34.16.71.16 1.11z" fill="url(#SVGID_101_)"/><radialGradient id="SVGID_102_" cx="15.747" cy="71.136" r="77.039" gradientTransform="matrix(1 0 0 -1 0 78)" gradientUnits="userSpaceOnUse"><stop offset="0" stop-color="#e7d298"/><stop offset="1" stop-color="#c4a006"/></radialGradient><path d="M56.55 26.26c.01.01.01.04.03.06.21.26.38.56.53.91.07.18.12.35.16.52.01.01.04.01.06.03l-.09-.18c.09 0 .18-.01.26-.01a25.7 25.7 0 0 0-.81-1.31c-.04-.01-.1-.01-.14-.02z" fill="url(#SVGID_102_)"/><radialGradient id="SVGID_103_" cx="15.745" cy="71.135" r="77.041" gradientTransform="matrix(1 0 0 -1 0 78)" gradientUnits="userSpaceOnUse"><stop offset="0" stop-color="#efe0ba"/><stop offset="1" stop-color="#c4a006"/></radialGradient><path d="M56.55 26.26c.01.01.01.04.03.06.21.26.38.56.53.91.07.18.12.35.16.52.01.01.04.01.06.03l-.09-.18c.09 0 .18-.01.26-.01a25.7 25.7 0 0 0-.81-1.31c-.04-.01-.1-.01-.14-.02z" fill="url(#SVGID_103_)"/><radialGradient id="SVGID_104_" cx="15.748" cy="71.136" r="77.038" gradientTransform="matrix(1 0 0 -1 0 78)" gradientUnits="userSpaceOnUse"><stop offset="0" stop-color="#e7d298"/><stop offset="1" stop-color="#c4a006"/></radialGradient><path d="M59.43 32.58c0-.01-.01-.03-.01-.04 0 0 0 .01.01.01.25.6.34 1.18.29 1.71l.07-.01a.375.375 0 0 1 0-.15l.13-.13c-.1-.5-.22-1-.37-1.49-.03.03-.07.06-.12.1z" fill="url(#SVGID_104_)"/><radialGradient id="SVGID_105_" cx="15.746" cy="71.135" r="77.04" gradientTransform="matrix(1 0 0 -1 0 78)" gradientUnits="userSpaceOnUse"><stop offset="0" stop-color="#efe0ba"/><stop offset="1" stop-color="#c4a006"/></radialGradient><path d="M59.43 32.58c0-.01-.01-.03-.01-.04 0 0 0 .01.01.01.25.6.34 1.18.29 1.71l.07-.01a.375.375 0 0 1 0-.15l.13-.13c-.1-.5-.22-1-.37-1.49-.03.03-.07.06-.12.1z" fill="url(#SVGID_105_)"/><radialGradient id="SVGID_106_" cx="15.735" cy="71.132" r="77.061" gradientTransform="matrix(1 0 0 -1 0 78)" gradientUnits="userSpaceOnUse"><stop offset="0" stop-color="#e7d298"/><stop offset="1" stop-color="#c4a006"/></radialGradient><path d="M50.5 20.18l.01.01c.02 0 0 0-.01-.01.01 0 .01 0 0 0z" fill="url(#SVGID_106_)"/><radialGradient id="SVGID_107_" cx="15.734" cy="71.131" r="77.06" gradientTransform="matrix(1 0 0 -1 0 78)" gradientUnits="userSpaceOnUse"><stop offset="0" stop-color="#efe0ba"/><stop offset="1" stop-color="#c4a006"/></radialGradient><path d="M50.5 20.18l.01.01c.02 0 0 0-.01-.01.01 0 .01 0 0 0z" fill="url(#SVGID_107_)"/><radialGradient id="SVGID_108_" cx="15.745" cy="71.135" r="77.042" gradientTransform="matrix(1 0 0 -1 0 78)" gradientUnits="userSpaceOnUse"><stop offset="0" stop-color="#e7d298"/><stop offset="1" stop-color="#c4a006"/></radialGradient><path d="M56.55 26.26c-.01-.03-.03-.06-.03-.09.01-.03.03-.07.04-.1-.29-.43-.59-.84-.91-1.24-.01.03-.03.04-.04.07-.01-.01-.03-.01-.03-.03 0 0 .01 0 .01.01.46.46.75.96.93 1.46l.06-.03a.311.311 0 0 1-.04-.06l.01.01z" fill="url(#SVGID_108_)"/><radialGradient id="SVGID_109_" cx="15.745" cy="71.134" r="77.041" gradientTransform="matrix(1 0 0 -1 0 78)" gradientUnits="userSpaceOnUse"><stop offset="0" stop-color="#efe0ba"/><stop offset="1" stop-color="#c4a006"/></radialGradient><path d="M56.55 26.26c-.01-.03-.03-.06-.03-.09.01-.03.03-.07.04-.1-.29-.43-.59-.84-.91-1.24-.01.03-.03.04-.04.07-.01-.01-.03-.01-.03-.03 0 0 .01 0 .01.01.46.46.75.96.93 1.46l.06-.03a.311.311 0 0 1-.04-.06l.01.01z" fill="url(#SVGID_109_)"/><radialGradient id="SVGID_110_" cx="15.746" cy="71.135" r="77.041" gradientTransform="matrix(1 0 0 -1 0 78)" gradientUnits="userSpaceOnUse"><stop offset="0" stop-color="#e7d298"/><stop offset="1" stop-color="#c4a006"/></radialGradient><path d="M50.66 20.24l-.03.03a3.742 3.742 0 0 1 1.1 1c.03 0 .04 0 .07.01l-.15-.13c.06-.03.1-.06.16-.09-.4-.31-.81-.6-1.24-.9.05.05.08.06.09.08z" fill="url(#SVGID_110_)"/><radialGradient id="SVGID_111_" cx="15.745" cy="71.134" r="77.041" gradientTransform="matrix(1 0 0 -1 0 78)" gradientUnits="userSpaceOnUse"><stop offset="0" stop-color="#efe0ba"/><stop offset="1" stop-color="#c4a006"/></radialGradient><path d="M50.66 20.24l-.03.03a3.742 3.742 0 0 1 1.1 1c.03 0 .04 0 .07.01l-.15-.13c.06-.03.1-.06.16-.09-.4-.31-.81-.6-1.24-.9.05.05.08.06.09.08z" fill="url(#SVGID_111_)"/><radialGradient id="SVGID_112_" cx="15.745" cy="71.138" r="77.043" gradientTransform="matrix(1 0 0 -1 0 78)" gradientUnits="userSpaceOnUse"><stop offset="0" stop-color="#e7d298"/><stop offset="1" stop-color="#c4a006"/></radialGradient><path d="M56.55 26.26h-.01c.01.01.03.04.04.06-.02-.02-.02-.04-.03-.06z" fill="url(#SVGID_112_)"/><radialGradient id="SVGID_113_" cx="15.744" cy="71.137" r="77.046" gradientTransform="matrix(1 0 0 -1 0 78)" gradientUnits="userSpaceOnUse"><stop offset="0" stop-color="#e7d298"/><stop offset="1" stop-color="#c4a006"/></radialGradient><path d="M56.55 26.26h-.01c.01.01.03.04.04.06-.02-.02-.02-.04-.03-.06z" fill="url(#SVGID_113_)"/><radialGradient id="SVGID_114_" cx="15.743" cy="71.136" r="77.046" gradientTransform="matrix(1 0 0 -1 0 78)" gradientUnits="userSpaceOnUse"><stop offset="0" stop-color="#efe0ba"/><stop offset="1" stop-color="#c4a006"/></radialGradient><path d="M56.55 26.26h-.01c.01.01.03.04.04.06-.02-.02-.02-.04-.03-.06z" fill="url(#SVGID_114_)"/><radialGradient id="SVGID_115_" cx="15.744" cy="71.135" r="77.044" gradientTransform="matrix(1 0 0 -1 0 78)" gradientUnits="userSpaceOnUse"><stop offset="0" stop-color="#e7d298"/><stop offset="1" stop-color="#c4a006"/></radialGradient><path d="M43.79 17.17c.18.07.34.16.49.25.03 0 .04-.01.07-.01l-.19-.06.07-.07c-.22-.06-.43-.12-.65-.16.08.01.13.03.21.05z" fill="url(#SVGID_115_)"/><radialGradient id="SVGID_116_" cx="15.745" cy="71.134" r="77.041" gradientTransform="matrix(1 0 0 -1 0 78)" gradientUnits="userSpaceOnUse"><stop offset="0" stop-color="#efe0ba"/><stop offset="1" stop-color="#c4a006"/></radialGradient><path d="M43.79 17.17c.18.07.34.16.49.25.03 0 .04-.01.07-.01l-.19-.06.07-.07c-.22-.06-.43-.12-.65-.16.08.01.13.03.21.05z" fill="url(#SVGID_116_)"/><radialGradient id="SVGID_117_" cx="15.745" cy="71.135" r="77.043" gradientTransform="matrix(1 0 0 -1 0 78)" gradientUnits="userSpaceOnUse"><stop offset="0" stop-color="#e7d298"/><stop offset="1" stop-color="#c4a006"/></radialGradient><path d="M50.62 20.29l.03-.03c-.04-.03-.07-.04-.12-.07a.3.3 0 0 0 .09.1z" fill="url(#SVGID_117_)"/><radialGradient id="SVGID_118_" cx="15.746" cy="71.135" r="77.04" gradientTransform="matrix(1 0 0 -1 0 78)" gradientUnits="userSpaceOnUse"><stop offset="0" stop-color="#efe0ba"/><stop offset="1" stop-color="#c4a006"/></radialGradient><path d="M50.62 20.29l.03-.03c-.04-.03-.07-.04-.12-.07a.3.3 0 0 0 .09.1z" fill="url(#SVGID_118_)"/><radialGradient id="SVGID_119_" cx="15.745" cy="71.135" r="77.045" gradientTransform="matrix(1 0 0 -1 0 78)" gradientUnits="userSpaceOnUse"><stop offset="0" stop-color="#e7d298"/><stop offset="1" stop-color="#c4a006"/></radialGradient><path d="M50.32 20c.06.06.13.12.19.18.01 0 .04-.01.06-.01-.09-.07-.16-.13-.25-.17z" fill="url(#SVGID_119_)"/><radialGradient id="SVGID_120_" cx="15.745" cy="71.135" r="77.041" gradientTransform="matrix(1 0 0 -1 0 78)" gradientUnits="userSpaceOnUse"><stop offset="0" stop-color="#efe0ba"/><stop offset="1" stop-color="#c4a006"/></radialGradient><path d="M50.32 20c.06.06.13.12.19.18.01 0 .04-.01.06-.01-.09-.07-.16-.13-.25-.17z" fill="url(#SVGID_120_)"/><radialGradient id="SVGID_121_" cx="15.744" cy="71.136" r="77.046" gradientTransform="matrix(1 0 0 -1 0 78)" gradientUnits="userSpaceOnUse"><stop offset="0" stop-color="#e7d298"/><stop offset="1" stop-color="#c4a006"/></radialGradient><path d="M50.6 20.18c-.01 0-.01-.01-.03-.01-.01 0-.04.01-.06.01l.01.01c.04.03.07.04.12.07l.03-.03c-.02-.01-.05-.02-.07-.05z" fill="url(#SVGID_121_)"/><radialGradient id="SVGID_122_" cx="15.742" cy="71.136" r="77.049" gradientTransform="matrix(1 0 0 -1 0 78)" gradientUnits="userSpaceOnUse"><stop offset="0" stop-color="#e7d298"/><stop offset="1" stop-color="#c4a006"/></radialGradient><path d="M50.6 20.18c-.01 0-.01-.01-.03-.01-.01 0-.04.01-.06.01l.01.01c.04.03.07.04.12.07l.03-.03c-.02-.01-.05-.02-.07-.05z" fill="url(#SVGID_122_)"/><radialGradient id="SVGID_123_" cx="15.743" cy="71.135" r="77.045" gradientTransform="matrix(1 0 0 -1 0 78)" gradientUnits="userSpaceOnUse"><stop offset="0" stop-color="#efe0ba"/><stop offset="1" stop-color="#c4a006"/></radialGradient><path d="M50.6 20.18c-.01 0-.01-.01-.03-.01-.01 0-.04.01-.06.01l.01.01c.04.03.07.04.12.07l.03-.03c-.02-.01-.05-.02-.07-.05z" fill="url(#SVGID_123_)"/><radialGradient id="SVGID_124_" cx="15.744" cy="71.135" r="77.046" gradientTransform="matrix(1 0 0 -1 0 78)" gradientUnits="userSpaceOnUse"><stop offset="0" stop-color="#e7d298"/><stop offset="1" stop-color="#c4a006"/></radialGradient><path d="M41.14 16.75h-.04.01c.65 0 1.21.15 1.69.38l.03-.07c-.04-.01-.09-.03-.15-.04-.01-.03-.03-.07-.04-.1-.5-.1-1-.18-1.52-.24 0-.01.02.04.02.07z" fill="url(#SVGID_124_)"/><radialGradient id="SVGID_125_" cx="15.745" cy="71.135" r="77.041" gradientTransform="matrix(1 0 0 -1 0 78)" gradientUnits="userSpaceOnUse"><stop offset="0" stop-color="#efe0ba"/><stop offset="1" stop-color="#c4a006"/></radialGradient><path d="M41.14 16.75h-.04.01c.65 0 1.21.15 1.69.38l.03-.07c-.04-.01-.09-.03-.15-.04-.01-.03-.03-.07-.04-.1-.5-.1-1-.18-1.52-.24 0-.01.02.04.02.07z" fill="url(#SVGID_125_)"/><radialGradient id="SVGID_126_" cx="15.744" cy="71.135" r="77.045" gradientTransform="matrix(1 0 0 -1 0 78)" gradientUnits="userSpaceOnUse"><stop offset="0" stop-color="#e7d298"/><stop offset="1" stop-color="#c4a006"/></radialGradient><path d="M34.19 17c.03 0 .06 0 .07-.01.31-.09.65-.13 1.03-.13.19 0 .37.01.54.04.01-.01.03-.03.06-.04l-.21.01c.03-.07.06-.16.07-.24-.52.06-1.02.13-1.52.24.01.04-.01.08-.04.13z" fill="url(#SVGID_126_)"/><radialGradient id="SVGID_127_" cx="15.745" cy="71.134" r="77.041" gradientTransform="matrix(1 0 0 -1 0 78)" gradientUnits="userSpaceOnUse"><stop offset="0" stop-color="#efe0ba"/><stop offset="1" stop-color="#c4a006"/></radialGradient><path d="M34.19 17c.03 0 .06 0 .07-.01.31-.09.65-.13 1.03-.13.19 0 .37.01.54.04.01-.01.03-.03.06-.04l-.21.01c.03-.07.06-.16.07-.24-.52.06-1.02.13-1.52.24.01.04-.01.08-.04.13z" fill="url(#SVGID_127_)"/><radialGradient id="SVGID_128_" cx="15.748" cy="71.134" r="77.031" gradientTransform="matrix(1 0 0 -1 0 78)" gradientUnits="userSpaceOnUse"><stop offset="0" stop-color="#e7d298"/><stop offset="1" stop-color="#c4a006"/></radialGradient><path d="M34.19 17s0 .01-.01.01c.03-.01.06-.01.09-.01h-.08z" fill="url(#SVGID_128_)"/><radialGradient id="SVGID_129_" cx="15.747" cy="71.135" r="77.034" gradientTransform="matrix(1 0 0 -1 0 78)" gradientUnits="userSpaceOnUse"><stop offset="0" stop-color="#e7d298"/><stop offset="1" stop-color="#c4a006"/></radialGradient><path d="M34.19 17s0 .01-.01.01c.03-.01.06-.01.09-.01h-.08z" fill="url(#SVGID_129_)"/><radialGradient id="SVGID_130_" cx="15.748" cy="71.134" r="77.031" gradientTransform="matrix(1 0 0 -1 0 78)" gradientUnits="userSpaceOnUse"><stop offset="0" stop-color="#efe0ba"/><stop offset="1" stop-color="#c4a006"/></radialGradient><path d="M34.19 17s0 .01-.01.01c.03-.01.06-.01.09-.01h-.08z" fill="url(#SVGID_130_)"/><path d="M64.61 38.49c0 14.48-11.74 26.23-26.23 26.23S12.16 52.97 12.16 38.49 23.9 12.26 38.39 12.26 64.61 24 64.61 38.49z" fill="#fff" stroke="#c4a006" stroke-width=".14"/><path class="st2" d="M48.11 26.31c.59-.07 1.18-.96 1.18-.96s.88-1.27 2.87-1.15c1.99.12 2.46.77 2.58 1.19.12.43.77.54 1.57.5s1.25.62 1.25.62.69.12 1.21.24 0-.46-.07-.69c-.07-.24-.18-.62-.1-.96.07-.35 1.4.31 1.94.43s.37-.46.37-.46l.36-.07-1.1-1.71c-.03-.03-.04-.07-.07-.1l-.18.19-.52-.93-.44-.04-.32.43-.32-.38-.52-.15-.69-.54-.54-.65-.25-.15.25.69.66.62s.25.54.25.69c0 .15-.62-.07-.77-.12s-.84-.65-.84-.65l-.62-.65-.88-.65s-1.77-1.12-1.99-1.12c-.22 0-1.8-.54-1.8-.54l.54.54 1.21.69s1.13.38 1.57.57c.44.19.74.54.74.54l-.22.12.32.85-.69-.77s-1.03-.65-1.65-.65-1.47-.54-1.69-.62c-.22-.07-.91-.62-.91-.38s-.66.24-1.28.5-.07.96-.07.96l-.44.5-.18.69.25.85.15.77-.12.81s-.03.26-.54.31c-.52.04-.88.5-.91.69 0 .01 0 .01-.01.01.06.03.24.04.19.09s-.07.1-.12.16c.22-.11.81-.08 1.39-.16zm-2.47-.7c-.03-.01-.21-.19-.25-.25-.09-.16-.18-.32-.22-.56.06-.88-.28-1.52-.66-2.03-.06-.09-.19-.18-.31-.15l-.62-.71c-.19.04-.34.09-.41.15-.22.22-.62.37-.62.37s.47.52.77.87c.29.37.37 1.68.37 1.68l.72.37s.25.62.4.65c.15.03.79-.1.99-.1.13 0 .49.22.68.35.07 0 .12-.01.15-.04h-.03l-.96-.6zm14.45-2.46c.01.04.04.07.07.1l-.07-.1z"/><path class="st2" d="M46.6 26.18c-.01.03-.07.04-.15.04.07.04.12.09.12.09l-.53.12.26.65s.1-.57.37-.65c.03-.06.07-.1.12-.16.04-.04-.12-.06-.19-.09z"/><path class="st2" d="M46.47 26.23c-.21 0-.54-.15-.54-.15l.15.35.53-.12c-.03 0-.07-.04-.14-.08z"/><radialGradient id="SVGID_131_" cx="27.791" cy="49.069" r="37.158" gradientTransform="matrix(1 0 0 -1 0 78)" gradientUnits="userSpaceOnUse"><stop offset="0" stop-color="#0fb3e8"/><stop offset=".651" stop-color="#006faf"/><stop offset="1" stop-color="#005699"/></radialGradient><path d="M64.83 38.49c0 14.6-11.85 26.45-26.45 26.45S11.94 53.08 11.94 38.49s11.85-26.45 26.45-26.45c14.61 0 26.44 11.85 26.44 26.45z" fill="url(#SVGID_131_)"/><radialGradient id="SVGID_132_" cx="28.683" cy="49.225" r="41.223" gradientTransform="matrix(1 0 0 -1 0 78)" gradientUnits="userSpaceOnUse"><stop offset="0" stop-color="#cdd5e9"/><stop offset=".105" stop-color="#c0cbe3"/><stop offset=".502" stop-color="#96abd1"/><stop offset=".814" stop-color="#7e99c6"/><stop offset="1" stop-color="#7693c2"/></radialGradient><path d="M25.66 37.57c.59.09.97-.21 1.38-.38l.78-.41c.21-.12.5-.03.62.13.26.12.5-.04.62-.21.13-.18.32-.29.52-.46.18-.01.4-.01.57-.07.68.15 1.18.46 1.62.88.79.28 1.41.78 2.12 1.19.69.21 1.37.46 1.78.93.13.46.57.59 1.1.59.43 0 .85-.01 1.22.06.34.15.59.41 1 .56.24.01.53.04.88.12.43.28.91.62 1.22 1.12.04.07.03.37-.01.43-.52.69-.75 1.66-1 2.63-.12.47-.26.91-.5 1.28-.18.28-.5.43-.77.62-.41.29-.91.5-1.19.85-.41.97-.69 1.97-.96 3.05-.06.26-.37.38-.69.37-.68.1-1.07.53-1.21 1.16-.09.37-.35.56-.69.68-.25.07-.38.29-.4.57-.01.31-.07.54-.22.71-.09.09-.16.21-.1.46.22.34.47.78.56 1.35-.16.41.19.66.38.88.13.15.24.43.13.66-.12.09-.28.12-.43.15-.38.06-.78.03-1.1-.06-.37-.1-.54-.46-.68-.79-.22-.52-.5-1-.63-1.6 0-.65-.37-.94-.53-1.41-.24-.69-.34-1.47-.35-2.34-.07-.47-.31-.79-.54-1.1-.16-.21-.31-.38-.41-.65.1-.68-.09-1.25-.35-1.74l-.15-1.34c-.24-.41-.69-.59-1.06-.84-.29-.21-.65-.32-1-.49-.47-.34-.65-.94-.87-1.52-.15-.4-.38-.69-.57-1.04-.06-.5.06-.85.09-1.3.01-.22.03-.5.04-.72.19-.25.38-.47.44-.79.09-.47-.06-.84-.31-1.04-.1-.09-.24-.12-.38-.13-.72-.06-1.21-.35-1.68-.65-.15-.09-.32-.15-.44-.28-.52-.62-1.21-1.03-2.06-1.24-.69-.44-1.57-.59-2.31-.94-.53-.25-.77-.81-.96-1.43-.1-.34-.28-.63-.65-.72-.46-.32-.77-.84-.82-1.57-.12-.4-.37-.63-.52-.99a.64.64 0 0 1 0-.49c.22-.68.15-1.6-.13-2.19-.01-.19-.03-.38-.01-.57.1-.68.22-1.24.54-1.68.12-.15.13-.47.07-.69-.16-.57.09-1.09.46-1.34.19-.13.31-.4.25-.63.18-.37.29-.69.56-.9.06-.28.22-.47.34-.69.52-1.02 1.32-1.82 2.13-2.53.62-.54 1.21-1.04 1.88-1.55l1.25-.96 1.82-1.12c.63-.35 1.28-.69 1.99-.97.1-.04.22-.04.37-.04.13.35.38.62.56.99.15 0 .37-.03.53.01.18.06.32.19.46.25.09.04.21-.03.25.06.07.19.24.32.38.47.28.25.56.53.9.77.35 0 .69.12.78.34.04.12.06.18.06.21.07.78-.13 1.34-.4 1.78-.06.09-.15.1-.25.09-.31-.06-.49-.31-.6-.57-.1-.22-.18-.5-.37-.62-.1-.07-.24-.09-.34-.1-.19-.03-.34.15-.38.31-.03.1-.03.19-.12.28-.18.16-.47.16-.66.31-.13.1-.21.29-.18.49-.15.6-.74.94-1.43.79-.41-.09-.93.04-1.19.28-.06.19.03.38-.03.57-.01.07-.16.28-.18.35-.03.12.09.18.18.21.16.06.32.16.52.21l.43.52c.06.06.18.12.24.09.43-.22.94-.35 1.3-.69.32-.31.49-.78.65-1.25.03-.07.1-.15.16-.15.4.04.85.03 1.18-.03.49.1.77.38.88.79.07.31.01.72.12 1.02.16.24.38.43.6.63.13.04.32.07.43.21.26.38.24 1.15-.18 1.37-.16.09-.37.16-.63.21-.25-.07-.52-.19-.84-.31-.44.12-.88.32-1.21.63-.04.04-.1.18.01.21.22.06.38-.06.56-.13.16-.06.34-.07.52-.01.07.01.13.1.13.19.01.29-.15.52-.28.72-.32.49-.88.78-1.47 1.04-.49.49-.71 1.27-.99 1.96-.47.62-1.19 1-1.96 1.34-.19.09-.35.38-.22.63s.28.5.37.82c0 .16.03.32-.01.46-.03.09-.12.16-.19.18-.41.01-.57-.29-.78-.53-.22-.26-.41-.54-.74-.69-.63-.15-1.16.1-1.6.35-.28.07-.62.09-.82.28-.09.07-.09.21-.1.32-.03.44-.12.82-.31 1.15-.09.15-.06.34-.07.53v.57c.06.15.07.29.18.38.09.07.28.13.4.04.26-.22.46-.56.87-.66.15.04.28.06.41.04.25.04.32.22.4.38.13.28.01.6-.07.84-.03.07-.04.19.01.22.13.07.28.01.41-.01.28-.03.35.19.52.28" fill="url(#SVGID_132_)" stroke="#dbe0ee" stroke-width=".022"/><radialGradient id="SVGID_133_" cx="28.683" cy="49.226" r="41.224" gradientTransform="matrix(1 0 0 -1 0 78)" gradientUnits="userSpaceOnUse"><stop offset="0" stop-color="#cdd5e9"/><stop offset=".105" stop-color="#c0cbe3"/><stop offset=".502" stop-color="#96abd1"/><stop offset=".814" stop-color="#7e99c6"/><stop offset="1" stop-color="#7693c2"/></radialGradient><path d="M41.58 61.83c.65-.1 1.16.07 1.66.16.35-.12.6-.25.93-.32 1.12.01 1.93.35 2.75.66.43.16.79.38 1.22.62-.41.19-.82.37-1.21.53-1.93.81-4.22 1.27-6.76 1.46-4.36.32-8.26-.44-11.39-1.68-.26-.1-.56-.18-.81-.34.34-.49.82-.81 1.56-.88l1.16-.18c.77-.03 1.32.19 1.93.34.34 0 .68.01.94.09.75-.07 1.13-.54 1.53-.97.15-.16.26-.34.31-.62.1-.54.47-.88.91-1.1.04-.01.16.01.1.15-.06.18-.22.43-.29.69-.04.16.03.29.1.4.19.26.25.71.32.99.35.41.77.66 1.35.69.38.01.69.15 1.06.19.1.01.22.03.28-.03l2.35-.85z" fill="url(#SVGID_133_)" stroke="#dbe0ee" stroke-width=".022"/><radialGradient id="SVGID_134_" cx="28.684" cy="49.225" r="41.222" gradientTransform="matrix(1 0 0 -1 0 78)" gradientUnits="userSpaceOnUse"><stop offset="0" stop-color="#cdd5e9"/><stop offset=".105" stop-color="#c0cbe3"/><stop offset=".502" stop-color="#96abd1"/><stop offset=".814" stop-color="#7e99c6"/><stop offset="1" stop-color="#7693c2"/></radialGradient><path d="M36.21 16.42c.06-.16.06-.31.13-.43.1-.16.21-.41.1-.66a.644.644 0 0 0-.18-.26c-.21-.15-.47-.25-.6-.47.01-.25.18-.43.26-.63-.37-.24-.75-.47-.88-.9-.01-.06-.07-.1-.16-.07-.1-.09.01-.21.03-.32-.1.06-.21.03-.29.04a.34.34 0 0 0-.06.06c-.41.06-.82.1-1.18.15-.19.12-.37.1-.56.07-.06-.01-.13 0-.18.06-.28.32-.41.77-.54 1.24-.01.03-.04.16.06.1.09.06.1.18.19.21.06.01.26 0 .34.01.06.01.18 0 .16.09-.03.15-.09.28-.16.37-.19.22-.24.62-.13.96.06.18.12.4.04.6a.56.56 0 0 0 0 .44c.07.19.24.32.32.5.16.26.31.56.59.68l1.46.46c.06.01.16-.03.19-.09.12-.21.25-.44.4-.65-.01-.05.38-.73.65-1.56z" fill="url(#SVGID_134_)" stroke="#dbe0ee" stroke-width=".022"/><radialGradient id="SVGID_135_" cx="28.683" cy="49.225" r="41.224" gradientTransform="matrix(1 0 0 -1 0 78)" gradientUnits="userSpaceOnUse"><stop offset="0" stop-color="#cdd5e9"/><stop offset=".105" stop-color="#c0cbe3"/><stop offset=".502" stop-color="#96abd1"/><stop offset=".814" stop-color="#7e99c6"/><stop offset="1" stop-color="#7693c2"/></radialGradient><path d="M26.2 32.73c-.25-.04-.53-.13-.79-.04-.01 0-.07.03-.09.03-.26.15-.49.35-.6.65.07.25.32.35.59.35l1.9-.28c.47.07.85.22 1.3.34.09.01.18-.01.28-.03.09-.01.19-.09.18-.18a.727.727 0 0 0-.34-.53c-.38-.12-.84-.16-1.22-.31H26.2z" fill="url(#SVGID_135_)" stroke="#dbe0ee" stroke-width=".022"/><radialGradient id="SVGID_136_" cx="28.685" cy="49.224" r="41.222" gradientTransform="matrix(1 0 0 -1 0 78)" gradientUnits="userSpaceOnUse"><stop offset="0" stop-color="#cdd5e9"/><stop offset=".105" stop-color="#c0cbe3"/><stop offset=".502" stop-color="#96abd1"/><stop offset=".814" stop-color="#7e99c6"/><stop offset="1" stop-color="#7693c2"/></radialGradient><path d="M37.02 17.37c.03-.01.15-.04.18-.04.31.07.57.21.81.34.09.06.18.21.07.31-.12.09-.25.16-.43.25h-.5c-.25-.09-.44-.19-.56-.34-.01-.01.15-.36.43-.52z" fill="url(#SVGID_136_)" stroke="#dbe0ee" stroke-width=".022"/><radialGradient id="SVGID_137_" cx="28.683" cy="48.492" r="40.865" gradientTransform="matrix(1 0 0 -1 0 78)" gradientUnits="userSpaceOnUse"><stop offset="0" stop-color="#cdd5e9"/><stop offset=".105" stop-color="#c0cbe3"/><stop offset=".502" stop-color="#96abd1"/><stop offset=".814" stop-color="#7e99c6"/><stop offset="1" stop-color="#7693c2"/></radialGradient><path d="M64.79 36.07c-.09-1.27-.32-2.49-.56-3.66a51.77 51.77 0 0 0-1.62-4.93c-.56-1.19-1.34-2.52-1.34-2.52l-.37.07s.18.57-.37.46-1.87-.77-1.94-.43c-.07.35.03.74.1.96.07.24.59.81.07.69-.52-.12-1.21-.24-1.21-.24s-.44-.65-1.25-.62c-.81.04-1.47-.07-1.57-.5-.1-.43-.59-1.07-2.58-1.19-1.99-.12-2.87 1.15-2.87 1.15s-.59.88-1.18.96-1.18.04-1.43.12c-.24.4-.28.97-.35 1.55-.22.49-.52.91-.49 1.63-.09.63-.18 1.28-.28 1.88-.09.49-.04 1.09-.03 1.62.01.72.4 1.09.9 1.34l.35.37c.19.26.31.62.5.88.37.52.72 1.04 1.52 1.1.57.06 1.06-.06 1.59-.21.53 0 1-.15 1.43-.35.57-.18 1-.49 1.72-.5.1 0 .21.06.29.1.5.24.63.84.79 1.41.06.56.26.96.57 1.27.26.62.35 1.41.53 2.13.1.43.28 1.09-.03 1.44a.96.96 0 0 0-.21.71l.72 1.75c.01.5-.16.88-.25 1.22.04.87.15 1.62.28 2.3-.03.54-.24.9-.32 1.37-.03.18.01.32.16.4.94-.06 1.84-.19 2.83-.26.21-.01.4-.07.54-.18.24-.5.5-1.02.97-1.3.12-.41.26-.77.53-1.04.24-.25.56-.41.79-.68.16-.57.22-1.24.43-1.74.24-.54 2.3-2.49 2.3-2.49.43-1.77.5-3.96.34-6.04z" fill="url(#SVGID_137_)" stroke="#dbe0ee" stroke-width=".022"/><radialGradient id="SVGID_138_" cx="28.683" cy="49.225" r="41.224" gradientTransform="matrix(1 0 0 -1 0 78)" gradientUnits="userSpaceOnUse"><stop offset="0" stop-color="#cdd5e9"/><stop offset=".105" stop-color="#c0cbe3"/><stop offset=".502" stop-color="#96abd1"/><stop offset=".814" stop-color="#7e99c6"/><stop offset="1" stop-color="#7693c2"/></radialGradient><path d="M43.57 14.53l.94.37.47.18.69.29.25-.18-.47-.4-1.09-.91-.72-.1-.69-.47-.54-.29.4-.03.94.47 1.46.52.72.07.44.37.52.03-.22.29.84.72-.47.22s-.65-.22-.62 0c.03.22-1.09.18-1.09.18l-.32-.25-.1-.25-.54-.15-.37.15 1.02 1.02-.4.52.1.59-.18.54-.29.44-.32.44s-.4-.07-.77.29.18.37 1.09.62c.91.25 1.88 1.82 1.88 1.82s-.77.18-1.06.18c-.21 0-.99.04-1.49.15l-.74.54c-.15.03.47.71.66.96.16.21.18.44.22.74.04.4.04.66.07.69.24.32.75.1.72.44.06.24.31.46.4.62.04.07.66-.06.69-.03l1 .34h.01l.01-.01c.03-.19.4-.65.91-.69.52-.04.54-.31.54-.31l.12-.81-.15-.77-.25-.85.18-.69.44-.5s-.54-.69.07-.96c.62-.26 1.28-.26 1.28-.5s.69.31.91.38 1.06.62 1.69.62c.62 0 1.65.65 1.65.65l.69.77-.32-.85.22-.12s-.29-.35-.74-.54c-.44-.19-1.57-.57-1.57-.57l-1.21-.69-.54-.54s1.57.54 1.8.54 1.99 1.12 1.99 1.12l.88.65.62.65s.69.62.84.65c.15.04.77.26.77.12s-.25-.69-.25-.69l-.66-.62-.25-.69.25.15.54.65.69.54.52.15.32.38.32-.43.44.04.52.93.18-.19c-.97-1.35-2.05-2.6-3.3-3.68-.15-.13-.25-.32-.46-.38l-1.97-1.71a9.2 9.2 0 0 0-.81-.65c-3.28-2.22-7.08-3.94-11.97-4.52a.173.173 0 0 0-.18.1c-.03.09.04.15.04.18.03.52-.04.9-.21 1.24a.3.3 0 0 0 .03.18c.1.18.22.35.34.52.35.21.72.38.93.49.52.13 1.07-.48 1.07-.48z" fill="url(#SVGID_138_)" stroke="#dbe0ee" stroke-width=".022"/><path d="M54.41 22.49l-.78.09.07.41 1.04.28.07-.31-.4-.47zm-3.37-.24l.66.85.53.15-.03-.46-.69-.74-.35-.04-.12.24zm-.7-1.15l.46.57h.26l-.41-.65-.31.08z" fill="#90a6ce" stroke="#dbe0ee" stroke-width=".022"/><path class="st144" d="M42.79 18.79l.78-.5.6-.24-.21-.28-.13-.21-.49-.07-.6-.26-.44-.22-.28-.03-.12-.41h-.44l-.37-.21-.19.26.43.31.13.32.19.18.34-.07.43.06.18.28-.34-.06.29.28v.26l.35.12-.11.49z"/><path class="st144" d="M41.48 17.53l.34.22.32.25.12.26-.52.32-.47-.03v-.4l-.25-.12-.07-.19.15-.06v-.18l.38-.07z"/><path d="M30 33.44v.4l-.88.19.69.21h1.09l.78.29-.49-.79-.4-.49-.79.19z" fill="#bcc8e1" stroke="#dbe0ee" stroke-width=".022"/><path d="M38.39 11.76c14.76 0 26.73 11.97 26.73 26.73S53.15 65.21 38.39 65.21 11.66 53.25 11.66 38.49s11.97-26.73 26.73-26.73m0 .32c-3.56 0-7.02.69-10.27 2.08-3.15 1.32-5.96 3.24-8.39 5.65a26.137 26.137 0 0 0-5.65 8.39C12.69 31.45 12 34.91 12 38.47s.69 7.02 2.08 10.27c1.32 3.15 3.24 5.96 5.65 8.39 2.43 2.43 5.25 4.33 8.39 5.65 3.25 1.38 6.71 2.08 10.27 2.08s7.02-.69 10.27-2.08c3.15-1.32 5.96-3.24 8.39-5.65 2.43-2.43 4.33-5.25 5.65-8.39 1.38-3.25 2.08-6.71 2.08-10.27s-.69-7.02-2.08-10.27c-1.32-3.15-3.24-5.96-5.65-8.39a26.137 26.137 0 0 0-8.39-5.65 26.326 26.326 0 0 0-10.27-2.08z" fill="#c4a006"/><radialGradient id="SVGID_139_" cx="38.387" cy="39.515" r="26.447" fx="32.545" fy="24.404" gradientTransform="matrix(1 0 0 -1 0 78)" gradientUnits="userSpaceOnUse"><stop offset="0" stop-color="#0fb3e8"/><stop offset=".393" stop-color="#5d88a1"/><stop offset=".813" stop-color="#454c52"/><stop offset="1"/></radialGradient><circle cx="38.39" cy="38.49" r="26.45" opacity=".27" fill="url(#SVGID_139_)"/><path d="M14.31 46.62c1.56-.18 2.3-.37 2.3-2.09V32.16c-1.46-1.8-1.88-1.88-2.22-1.88v-.65h5.5l9.07 11.16H29v-7.92c0-1.56-.31-2.43-2.43-2.59v-.65h5.62v.65c-1.88.24-2.03.84-2.03 2.09v15.38h-.74L17.81 33.6h-.06v10.45c0 1.88.54 2.37 2.49 2.59v.65h-5.93v-.67zm30.33-11.76c-.47-1.82-2.03-4.83-5.12-4.83-1.35 0-2.8.78-2.8 2.49 0 1.41.5 1.99 2.69 3.08l3.84 1.91c.88.44 2.87 1.96 2.87 4.8 0 2.3-1.68 5.46-6.48 5.46-2.49 0-3.65-.88-4.46-.88-.54 0-.68.47-.78.88h-.75v-6.45h.75c.53 2.63 2.03 5.59 5.36 5.59 3.13 0 3.27-2.59 3.27-2.93 0-1.75-1.22-2.37-2.93-3.18l-1.75-.84c-4.46-2.13-4.46-4.39-4.46-5.59 0-1.59.81-5.14 5.77-5.14 2.09 0 3.31.85 4.08.85.6 0 .74-.4.85-.88h.78v5.67h-.74v-.01zm3.03-5.23h14.81v5.25h-.62c-.57-2.71-1.28-4.36-5.77-4.36-1.41 0-1.88.1-1.88 1.22v6.06c3.24.06 3.64-1.8 3.99-3.89h.65v8.83h-.65c-.28-2.13-.71-4.05-3.99-4.05v6.08c0 1.72 1.04 1.78 2.87 1.85v.65h-9.4v-.65c1.49-.16 2.3-.24 2.3-1.85V32.14c0-1.72-1.07-1.78-2.3-1.85v-.66h-.01z" fill="#fff" stroke="#005699" stroke-width=".294"/></svg>