<svg width="60" height="73" xmlns="http://www.w3.org/2000/svg"><g id="Tokens" fill="none" fill-rule="evenodd"><g id="3-Column-CTA-Row" transform="translate(-999 -186)"><g id="Benefits" transform="translate(0 7)"><g id="Benefits-Card-Copy" transform="translate(985 179)"><g id="university-icon" transform="translate(14)"><g id="iconfinder_008_022_school_chime_building_1276138" fill-rule="nonzero"><path d="M1 71.03v-26a4 4 0 0 1 4-4h12v30H1z" id="Path" fill="#FFF"/><path d="M17 72.03H1a1 1 0 0 1-1-1v-26c0-2.757 2.243-5 5-5h12a1 1 0 0 1 1 1v30a1 1 0 0 1-1 1zm-15-2h14v-28H5c-1.654 0-3 1.345-3 3v25z" id="Shape" fill="#0A94E3"/><path d="M59 71.03v-26a4 4 0 0 0-4-4H43v30h16z" id="Path" fill="#FFF"/><path d="M59 72.03H43a1 1 0 0 1-1-1v-30a1 1 0 0 1 1-1h12c2.757 0 5 2.243 5 5v26a1 1 0 0 1-1 1zm-15-2h14v-25c0-1.655-1.346-3-3-3H44v28z" id="Shape" fill="#0A94E3"/><path id="Rectangle" fill="#FFF" d="M17 21.03h26v50H17z"/><path d="M43 72.03H17a1 1 0 0 1-1-1v-50a1 1 0 0 1 1-1h26a1 1 0 0 1 1 1v50a1 1 0 0 1-1 1zm-25-2h24v-48H18v48z" id="Shape" fill="#0A94E3"/><path id="Rectangle" fill="#C2E4F8" d="M17 17.03h26v4H17z"/><path d="M43 22.03H17a1 1 0 0 1-1-1v-4a1 1 0 0 1 1-1h26a1 1 0 0 1 1 1v4a1 1 0 0 1-1 1zm-25-2h24v-2H18v2z" id="Shape" fill="#0A94E3"/><path id="Rectangle" fill="#C2E4F8" d="M21 55.03h18v16H21z"/><path d="M39 72.03H21a1 1 0 0 1-1-1v-16a1 1 0 0 1 1-1h18a1 1 0 0 1 1 1v16a1 1 0 0 1-1 1zm-17-2h16v-14H22v14z" id="Shape" fill="#0A94E3"/><path d="M30 72.03a1 1 0 0 1-1-1v-16a1 1 0 0 1 2 0v16a1 1 0 0 1-1 1zm-3-7.95c-.552 0-1.05-.498-1.05-1.05s.498-1.05 1.05-1.05 1.05.498 1.05 1.05-.498 1.05-1.05 1.05zm6 0c-.552 0-1.05-.498-1.05-1.05s.498-1.05 1.05-1.05 1.05.498 1.05 1.05-.498 1.05-1.05 1.05zm12-42.05H15a1 1 0 0 1 0-2h30a1 1 0 0 1 0 2zm0-4H15a1 1 0 0 1 0-2h30a1 1 0 0 1 0 2z" id="Path" fill="#0A94E3"/><path id="Rectangle" fill="#C2E4F8" d="M5 45.03h8v18H5z"/><path d="M13 64.03H5a1 1 0 0 1-1-1v-18a1 1 0 0 1 1-1h8a1 1 0 0 1 1 1v18a1 1 0 0 1-1 1zm-7-2h6v-16H6v16z" id="Shape" fill="#0A94E3"/><path id="Rectangle" fill="#C2E4F8" d="M1 67.03h16v4H1z"/><path d="M17 72.03H1a1 1 0 0 1-1-1v-4a1 1 0 0 1 1-1h16a1 1 0 0 1 1 1v4a1 1 0 0 1-1 1zm-15-2h14v-2H2v2z" id="Shape" fill="#0A94E3"/><path d="M13 52.03H5a1 1 0 0 1 0-2h8a1 1 0 0 1 0 2zm0 6H5a1 1 0 0 1 0-2h8a1 1 0 0 1 0 2z" id="Path" fill="#0A94E3"/><path id="Rectangle" fill="#C2E4F8" d="M43 67.03h16v4H43z"/><path d="M59 72.03H43a1 1 0 0 1-1-1v-4a1 1 0 0 1 1-1h16a1 1 0 0 1 1 1v4a1 1 0 0 1-1 1zm-15-2h14v-2H44v2z" id="Shape" fill="#0A94E3"/><path d="M59 72.03H1a1 1 0 0 1 0-2h58a1 1 0 0 1 0 2z" id="Path" fill="#0A94E3"/><path id="Rectangle" fill="#C2E4F8" d="M47 45.03h8v18h-8z"/><path d="M55 64.03h-8a1 1 0 0 1-1-1v-18a1 1 0 0 1 1-1h8a1 1 0 0 1 1 1v18a1 1 0 0 1-1 1zm-7-2h6v-16h-6v16z" id="Shape" fill="#0A94E3"/><path d="M55 52.03h-8a1 1 0 0 1 0-2h8a1 1 0 0 1 0 2zm0 6h-8a1 1 0 0 1 0-2h8a1 1 0 0 1 0 2zm-25-40a1 1 0 0 1-1-1v-4a1 1 0 0 1 2 0v4a1 1 0 0 1-1 1z" id="Path" fill="#0A94E3"/><path d="M30 16a1 1 0 0 1-1-1V1a1 1 0 0 1 2 0v14a1 1 0 0 1-1 1z" id="Path" fill="#0A94E3"/><path id="Rectangle" fill="#C2E4F8" d="M30 3h6v6h-6z"/><path d="M36 10h-6a1 1 0 0 1-1-1V3a1 1 0 0 1 1-1h6a1 1 0 0 1 1 1v6a1 1 0 0 1-1 1zm-5-2h4V4h-4v4z" id="Shape" fill="#0A94E3"/><path id="Rectangle" fill="#C2E4F8" d="M36 5h6v6h-6z"/><path d="M42 12h-6a1 1 0 0 1-1-1V5a1 1 0 0 1 1-1h6a1 1 0 0 1 1 1v6a1 1 0 0 1-1 1zm-5-2h4V6h-4v4z" id="Shape" fill="#0A94E3"/><circle id="Oval" fill="#C2E4F8" cx="30" cy="34.03" r="7"/><path d="M30 42.03c-4.411 0-8-3.59-8-8 0-4.411 3.589-8 8-8s8 3.589 8 8c0 4.41-3.589 8-8 8zm0-14c-3.309 0-6 2.691-6 6 0 3.308 2.691 6 6 6s6-2.692 6-6c0-3.309-2.691-6-6-6z" id="Shape" fill="#0A94E3"/><path d="M33 35.03h-3a1 1 0 0 1-1-1v-3a1 1 0 0 1 2 0v2h2a1 1 0 0 1 0 2z" id="Path" fill="#0A94E3"/></g></g></g></g></g></g></svg>